<?xml version="1.0" encoding="UTF-8"?>
<svg width="128" height="128" version="1.1" viewBox="0 0 33.866 33.866" xmlns="http://www.w3.org/2000/svg"><path d="m16.934 2.4464c-0.63124 0.036225-0.77955 0.12801-1.5347 0.49076l-14.345 11.074c-0.066829 0.03641-0.26482 0.10331-0.21783 0.10266 0.06541 0.01088 0.14976-0.01818 0.21783-0.01818 0.33995 0 15.879 9.5447 15.879 9.5447s15.539-9.5447 15.879-9.5447c0.06806 0 0.15242 0.02904 0.21783 0.01818 0.047 7.17e-4 -0.15101-0.06625-0.21783-0.10266l-14.345-11.074c-0.75514-0.36274-0.90345-0.45454-1.5347-0.49076z" fill="#ef7109" stroke-width=".16823"/><path d="m30.275 12.567-26.685-1.31e-4v10.283c0 0.76076 0.57165 1.3733 1.282 1.3733h24.12c0.71036 0 1.2823-0.61255 1.2823-1.3733z" fill="#fafafa" stroke-width=".15604"/><path d="m5.2879 4.3241h23.29c0.94035 0 1.6974 0.81075 1.6974 1.8178-7e-6 1.305e-4 1.62e-4 7.0504 1.62e-4 7.0504h-26.684s-1.392e-4 -7.0502-2.733e-4 -7.0504c-3.66e-5 -1.0071 0.75704-1.8178 1.6974-1.8178z" fill="#e6e6e6" stroke-width=".10819"/><path d="m1.3949 14.087 15.539 8.9096 15.539-8.9096c0.63977-0.46559 1.3935 0.66958 1.3935 1.5013v14.33c0 0.83172-0.62158 1.5013-1.3937 1.5013h-31.079c-0.77209 0-1.3937-0.66958-1.3937-1.5013v-14.33c0-0.83172 0.70505-1.8775 1.3937-1.5013z" fill="#ffcd41" stroke-width=".16254"/><g transform="matrix(1.0878 0 0 1.0878 -1.8798 -1.6454)" fill="#7c8c94" stroke-width=".27166" style="font-variant-caps:normal;font-variant-ligatures:normal;font-variant-numeric:normal" aria-label="@"><path d="m18.765 11.369q-0.27128-0.06261-0.59821-0.06261-0.52169 0-0.95992 0.22259-0.43127 0.21563-0.74428 0.57038-0.31302 0.35475-0.49387 0.81384-0.1739 0.45909-0.1739 0.93905 0 0.50083 0.22954 0.80688 0.22954 0.2991 0.68168 0.2991 0.21563 0 0.43127-0.06956 0.22259-0.06956 0.42431-0.24346 0.20868-0.1739 0.38258-0.473 0.1739-0.2991 0.29215-0.75124zm0.43127 1.9407q-0.13912 0.52865-0.13216 0.86253 7e-3 0.32693 0.10434 0.51474 0.10434 0.18781 0.28519 0.25737 0.18085 0.06261 0.39649 0.06261 0.34084 0 0.6469-0.19476t0.5356-0.54952q0.2365-0.35475 0.36866-0.84862 0.13912-0.50082 0.13912-1.106 0-0.95992-0.30606-1.6833-0.30606-0.72341-0.84862-1.2034-0.5356-0.48691-1.2729-0.72341-0.73037-0.24346-1.579-0.24346-0.93209 0-1.7459 0.35475-0.81384 0.35475-1.419 0.98078-0.60516 0.62603-0.95992 1.4816-0.3478 0.85558-0.3478 1.8642 0 1.1825 0.36866 2.0798 0.37562 0.89036 1.0156 1.4955 0.6469 0.60516 1.5164 0.91122 0.86949 0.30606 1.8642 0.30606 1.0573 0 1.8642-0.22954 0.81384-0.22954 1.4051-0.5843 0.13912-0.08347 0.24346-0.04869 0.10434 0.02782 0.15303 0.15303l0.18085 0.45909q-0.75124 0.50082-1.7042 0.78602-0.946 0.28519-2.1424 0.28519-1.2103 0-2.2468-0.38258t-1.8016-1.106q-0.75819-0.71646-1.1964-1.7598-0.43127-1.0434-0.43127-2.365 0-0.75819 0.18781-1.4607 0.19477-0.70255 0.54256-1.3077 0.3478-0.61212 0.83471-1.1129 0.48691-0.50778 1.0851-0.86253 0.59821-0.36171 1.2868-0.55647 0.69559-0.20172 1.4468-0.20172 0.63994 0 1.2521 0.13912t1.1547 0.4104q0.54952 0.27128 1.0017 0.67472 0.45909 0.39649 0.79297 0.91818 0.33388 0.51474 0.51474 1.1547 0.18781 0.63299 0.18781 1.3773 0 0.75124-0.21563 1.3912-0.20868 0.63299-0.5843 1.099-0.36866 0.46605-0.87644 0.73037t-1.0921 0.26432q-0.52865 0-0.87644-0.25737-0.34084-0.26432-0.43822-0.79993-0.39649 0.55647-0.86949 0.79993-0.473 0.24346-1.0225 0.24346-0.4104 0-0.72341-0.13912-0.30606-0.14607-0.50778-0.39649-0.20172-0.25737-0.30606-0.60516-0.09738-0.3478-0.09738-0.75124 0-0.59125 0.22259-1.1895 0.22954-0.60516 0.67472-1.0851 0.44518-0.48691 1.106-0.79297 0.66081-0.30606 1.5303-0.30606 0.46605 0 0.8208 0.07651 0.35475 0.06956 0.66777 0.20868z" fill="#7c8c94" stroke-width=".2556"/></g></svg>
