<?xml version="1.0" encoding="UTF-8"?>
<svg width="128pt" height="128pt" version="1.1" viewBox="0 0 128 128" xmlns="http://www.w3.org/2000/svg"><g transform="translate(.13275 .062985)"><path transform="scale(.75294)" d="m84.824 138.56v-34.412m-13.655-32.975-24.337-24.337m37.992 18.677v-34.412m-19.315 53.727h-34.412m67.387-13.655 24.337-24.337m-24.337 51.652 24.337 24.337m-18.677-37.992h34.412m-91.724 37.992 24.337-24.337" fill="none" stroke="#999" stroke-miterlimit="10" stroke-width="1.932"/><g><path d="m69.93 110.38c0.02344 2.1836-1.125 4.207-3.0117 5.3047-1.8828 1.0977-4.2148 1.0977-6.0977 0-1.8867-1.0977-3.0352-3.1211-3.0117-5.3047 0.03516-3.3203 2.7383-5.9922 6.0586-5.9922 3.3203 0 6.0234 2.6719 6.0625 5.9922z" fill="#7dccba"/><path d="m78.414 63.867c0 8.0352-6.5117 14.547-14.547 14.547-8.0312 0-14.543-6.5117-14.543-14.547 0-8.0312 6.5117-14.543 14.543-14.543 8.0352 0 14.547 6.5117 14.547 14.543z" fill="#fc3"/><path d="m37.039 30.98c0.02344 2.1797-1.125 4.207-3.0117 5.3047-1.8828 1.0977-4.2148 1.0977-6.0977 0-1.8867-1.0977-3.0352-3.125-3.0117-5.3047 0.03516-3.3203 2.7383-5.9961 6.0586-5.9961 3.3203 0 6.0234 2.6758 6.0625 5.9961zm32.891-13.625c0.02344 2.1797-1.125 4.207-3.0117 5.3047-1.8828 1.0977-4.2148 1.0977-6.0977 0-1.8867-1.0977-3.0352-3.125-3.0117-5.3047 0.03516-3.3203 2.7383-5.9922 6.0586-5.9922 3.3203 0 6.0234 2.6719 6.0625 5.9922zm-46.516 46.516c0.02344 2.1797-1.125 4.207-3.0117 5.3047-1.8828 1.0977-4.2148 1.0977-6.0977 0-1.8867-1.0977-3.0352-3.125-3.0117-5.3047 0.03906-3.3203 2.7422-5.9961 6.0625-5.9961 3.3203 0 6.0234 2.6758 6.0586 5.9961zm79.406-32.891c0.0234 2.1797-1.125 4.207-3.0117 5.3047-1.8828 1.0977-4.2148 1.0977-6.0977 0-1.8867-1.0977-3.0352-3.125-3.0117-5.3047 0.03516-3.3203 2.7383-5.9961 6.0586-5.9961 3.3203 0 6.0234 2.6758 6.0625 5.9961zm-65.781 65.781c0.02344 2.1797-1.125 4.207-3.0117 5.3047-1.8828 1.0976-4.2148 1.0976-6.0977 0-1.8867-1.0977-3.0352-3.125-3.0117-5.3047 0.03516-3.3203 2.7383-5.9922 6.0586-5.9922 3.3203 0 6.0234 2.6719 6.0625 5.9922zm65.781 0c0.0234 2.1797-1.125 4.207-3.0117 5.3047-1.8828 1.0976-4.2148 1.0976-6.0977 0-1.8867-1.0977-3.0352-3.125-3.0117-5.3047 0.03516-3.3203 2.7383-5.9922 6.0586-5.9922 3.3203 0 6.0234 2.6719 6.0625 5.9922zm13.621-32.891c0.0273 2.1797-1.125 4.207-3.0078 5.3047-1.8867 1.0977-4.2148 1.0977-6.1016 0-1.8828-1.0977-3.0352-3.125-3.0078-5.3047 0.0352-3.3203 2.7383-5.9961 6.0586-5.9961 3.3203 0 6.0234 2.6758 6.0586 5.9961z" fill="#7dccba"/></g></g></svg>
