<?xml version="1.0" encoding="UTF-8"?>
<svg width="128pt" height="128pt" version="1.1" viewBox="0 0 128 128" xmlns="http://www.w3.org/2000/svg"><g transform="translate(.4707 11.473)"><path transform="scale(.34048 .34314)" d="m101.02 99.074h-31.883m-19.676-56.009 4.2105 42.007m1.3997 28.061v16.882m196.49 129.28-49.929 14.002m56.813-87.212 5.3118 55.417m-9.5797 5.1455-60.151-48.712m136.03 57.569h-50.893m-173.81-213.53-43.573-9.8129m54.335 52.89 1.9274-25.955m14.96-12.067 36.162 5.0772m-132.15 123.75 11.106-19.558m39.925 35.814-43.952-3.0623m-14.203 13.092-0.64247 48.883m280.89-113.3-51.042-31.294m-61.93-7.354h35.887m14.054-30.942v16.871m-28.647 45.615 19.194-21.14m59.406-10.405h-35.887m76.695 143.84-20.479-41.233m-21.385-166.54-35.772 13.843m50.491 36.03-1.1932-40.891m-188.82 193.97-13.251-32.012m4.7038 47.016-69.169 9.9837m96.061-6.5571 36.07 15.129m-6.0805-81.873-52.912 2.6069m28.005-53.789 50.813 1.9011m-74.813-28.3 4.8988 12.75m-8.9716 14.253-46.969 3.7567m71.119 4.8723 32.743 31.499m10.933 23.792 3.4074 59.925m15.029-109.64-12.551 23.292m53.623-1.4685-46.591 10.701m-6.3214-74.895 11.129 18.021m-72.473-29.985h39.891m28.131-45.012h35.887m-106.24 37.248 44.56-29.484m99.147 114.48 27.19 8.5607m16.819-9.4259 4.1875-16.712m-10.647-14.15-85.013-3.0395" fill="none" stroke="#999" stroke-miterlimit="10" stroke-width="1.125"/><path d="m23.539 33.996c0 2.6641-2.1445 4.8242-4.7891 4.8242s-4.7891-2.1602-4.7891-4.8242c0-2.668 2.1445-4.8281 4.7891-4.8281s4.7891 2.1602 4.7891 4.8281zm71.512 53.676c0 2.6641-2.1445 4.8242-4.7891 4.8242s-4.7891-2.1602-4.7891-4.8242 2.1445-4.8281 4.7891-4.8281 4.7891 2.1641 4.7891 4.8281zm-49.719-72.207c0 2.6641-2.1445 4.8242-4.7891 4.8242s-4.7891-2.1602-4.7891-4.8242c0-2.668 2.1445-4.8281 4.7891-4.8281s4.7891 2.1602 4.7891 4.8281zm-30.305 49.074c0 2.6641-2.1445 4.8242-4.7891 4.8242-2.6484 0-4.7891-2.1602-4.7891-4.8242 0-2.6641 2.1406-4.8281 4.7891-4.8281 2.6445 0 4.7852 2.1641 4.7852 4.8281zm73.895-30.543c0 2.6641-2.1445 4.8242-4.7891 4.8242-2.6445 0-4.7852-2.1602-4.7852-4.8242 0-2.668 2.1406-4.8281 4.7852-4.8281 2.6445 0 4.7891 2.1602 4.7891 4.8281zm33.031 53.676c0 2.6641-2.1445 4.8242-4.7891 4.8242s-4.7852-2.1602-4.7852-4.8242 2.1406-4.8281 4.7852-4.8281 4.7891 2.1641 4.7891 4.8281zm-11.914-77.355c0 2.6641-2.1445 4.8242-4.7891 4.8242s-4.7891-2.1602-4.7891-4.8242c0-2.6641 2.1445-4.8281 4.7891-4.8281s4.7891 2.1641 4.7891 4.8281zm-62.324 75.844c0 2.6641-2.1445 4.8242-4.7891 4.8242s-4.7891-2.1602-4.7891-4.8242c0-2.668 2.1445-4.8281 4.7891-4.8281s4.7891 2.1602 4.7891 4.8281zm-8.1719-19.906c0 2.6641-2.1445 4.8281-4.7891 4.8281-2.6445 0-4.7852-2.1641-4.7852-4.8281 0-2.6641 2.1406-4.8242 4.7852-4.8242 2.6445 0 4.7891 2.1602 4.7891 4.8242zm9.5352-18.875c0 2.6641-2.1445 4.8281-4.7891 4.8281-2.6445 0-4.7891-2.1641-4.7891-4.8281 0-2.6641 2.1445-4.8242 4.7891-4.8242 2.6445 0 4.7891 2.1602 4.7891 4.8242zm18.051 17.504c0 2.6641-2.1445 4.8242-4.7891 4.8242-2.6445 0-4.7891-2.1602-4.7891-4.8242 0-2.668 2.1445-4.8281 4.7891-4.8281 2.6445 0 4.7891 2.1602 4.7891 4.8281zm0-30.887c0 2.6641-2.1445 4.8242-4.7891 4.8242-2.6445 0-4.7891-2.1602-4.7891-4.8242 0-2.668 2.1445-4.8281 4.7891-4.8281 2.6445 0 4.7891 2.1602 4.7891 4.8281zm0-15.445c0 2.668-2.1445 4.8281-4.7891 4.8281-2.6445 0-4.7891-2.1602-4.7891-4.8281 0-2.6641 2.1445-4.8242 4.7891-4.8242 2.6445 0 4.7891 2.1602 4.7891 4.8242zm-45.977-8.5781c0 2.6641-2.1406 4.8281-4.7852 4.8281-2.6484 0-4.7891-2.1641-4.7891-4.8281 0-2.6641 2.1406-4.8242 4.7891-4.8242 2.6445 0 4.7852 2.1602 4.7852 4.8242zm22.816 24.023c0 2.6641-2.1406 4.8242-4.7852 4.8242-2.6445 0-4.7891-2.1602-4.7891-4.8242 0-2.668 2.1445-4.8281 4.7891-4.8281 2.6445 0 4.7852 2.1602 4.7852 4.8281zm48.359 25.051c0 2.668-2.1445 4.8281-4.7891 4.8281-2.6445 0-4.7891-2.1602-4.7891-4.8281 0-2.6641 2.1445-4.8242 4.7891-4.8242 2.6445 0 4.7891 2.1602 4.7891 4.8242zm18.391-25.051c0 2.6641-2.1445 4.8242-4.7891 4.8242s-4.7891-2.1602-4.7891-4.8242c0-2.668 2.1445-4.8281 4.7891-4.8281s4.7891 2.1602 4.7891 4.8281zm0 30.887c0 2.6641-2.1445 4.8242-4.7891 4.8242s-4.7891-2.1602-4.7891-4.8242c0-2.668 2.1445-4.8281 4.7891-4.8281s4.7891 2.1602 4.7891 4.8281zm3.7461-15.102c0 2.6641-2.1445 4.8281-4.7891 4.8281s-4.7891-2.1641-4.7891-4.8281 2.1445-4.8242 4.7891-4.8242 4.7891 2.1602 4.7891 4.8242zm-25.543-31.23c0 2.668-2.1445 4.8281-4.7891 4.8281-2.6445 0-4.7852-2.1602-4.7852-4.8281 0-2.6641 2.1406-4.8242 4.7852-4.8242 2.6445 0 4.7891 2.1602 4.7891 4.8242zm-20.09 76.527c0 2.668-2.1445 4.8281-4.7891 4.8281s-4.7891-2.1602-4.7891-4.8242c0-2.668 2.1445-4.8281 4.7891-4.8281s4.7891 2.1602 4.7891 4.8281zm-54.148-4.1172c0 2.668-2.1445 4.8281-4.7891 4.8281s-4.7891-2.1602-4.7891-4.8281c0-2.6641 2.1445-4.8242 4.7891-4.8242s4.7891 2.1602 4.7891 4.8242zm61.266-42.566c0 2.6641-2.1445 4.8242-4.7891 4.8242-2.6445 0-4.7891-2.1602-4.7891-4.8242 0-2.668 2.1445-4.8281 4.7891-4.8281 2.6445 0 4.7891 2.1602 4.7891 4.8281zm-52.41 1.043c0 2.668-2.1445 4.8281-4.7891 4.8281s-4.7891-2.1602-4.7891-4.8281c0-2.6641 2.1445-4.8242 4.7891-4.8242s4.7891 2.1602 4.7891 4.8242z" fill="#7dccba"/></g><g fill="#69f" stroke-width=".20562"><path transform="scale(.75)" d="m111.02 66.703c-2.5862-0.79381-4.4241-3.2286-4.4394-5.8812-0.015-2.6064 1.1282-4.5894 3.3578-5.8243 0.98033-0.54299 1.293-0.60962 2.849-0.60705 1.4915 0.0025 1.8985 0.08277 2.7759 0.5477 1.3264 0.70287 2.431 1.8581 3.0126 3.1506 0.62852 1.3967 0.64375 3.7115 0.0333 5.0629-1.3132 2.9072-4.6305 4.4595-7.5893 3.5514z"/><path transform="scale(.75)" d="m82.612 46.256c-1.9856-0.39688-3.6398-1.6577-4.5138-3.4405-0.4899-0.99928-0.57572-1.4255-0.56829-2.822 0.0073-1.3731 0.1001-1.8213 0.56146-2.7116 0.67819-1.3088 1.742-2.3684 3.0001-2.9883 0.76795-0.37836 1.2886-0.46783 2.6993-0.46385 1.4904 0.0042 1.9029 0.08604 2.8013 0.55573 1.3457 0.7036 2.6327 2.1656 3.0728 3.4907 0.45895 1.3818 0.32676 3.8453-0.26808 4.996-1.2605 2.4385-4.1942 3.9016-6.7848 3.3838z"/><path transform="scale(.75)" d="m53.359 42.074c-0.62201-0.13693-1.3473-0.36792-1.6118-0.51333-0.93626-0.51476-2.1285-1.76-2.669-2.7877-0.47472-0.9026-0.54785-1.2874-0.54949-2.8918-0.0017-1.6661 0.0585-1.9596 0.60395-2.9443 0.677-1.2221 1.5516-2.0706 2.844-2.759 1.2548-0.66838 4.1827-0.66838 5.4376 0 1.3599 0.72435 2.2537 1.6225 2.8762 2.89 0.49123 1.0003 0.5737 1.4195 0.5737 2.9161 0 1.553-0.06798 1.8705-0.60994 2.849-1.421 2.5656-4.1457 3.8462-6.8953 3.241z"/><path transform="scale(.75)" d="m23.833 66.703c-2.5862-0.79381-4.4241-3.2286-4.4394-5.8812-0.01499-2.5984 1.1375-4.6053 3.3298-5.7985 3.0919-1.6828 7.2105-0.24911 8.6465 3.0099 0.64423 1.4621 0.66771 3.7562 0.05238 5.1185-1.3132 2.9072-4.6305 4.4595-7.5893 3.5514z"/><path transform="scale(.75)" d="m23.612 87.227c-2.6337-0.94138-4.2171-3.2013-4.2171-6.0188 0-2.4738 1.3165-4.6157 3.4945-5.6852 1.5617-0.7669 3.7172-0.79983 5.3274-0.08137 1.2608 0.56252 2.5887 1.9218 3.2 3.2756 0.59945 1.3274 0.60172 3.6749 0.0048 4.9962-1.3513 2.9914-4.8574 4.5689-7.8097 3.5136z"/><path transform="scale(.75)" d="m58.676 84.699c-2.0035-0.31013-3.7313-1.5892-4.6363-3.4321-0.78184-1.5921-0.80723-3.9374-0.0594-5.4864 1.0642-2.2044 2.8892-3.4152 5.371-3.5635 1.3834-0.08265 1.7158-0.02799 2.7759 0.45644 1.5681 0.71656 2.4538 1.5788 3.1826 3.0984 1.1266 2.3491 0.71718 5.0152-1.0706 6.9714-1.4957 1.6365-3.3697 2.2953-5.5632 1.9558z"/><path transform="scale(.75)" d="m82.146 107.98c-2.9042-0.95618-4.618-3.255-4.618-6.1943 0-2.555 1.2601-4.5741 3.5557-5.6972 1.5286-0.74787 3.75-0.78942 5.1811-0.09691 2.3859 1.1545 3.5169 2.8602 3.6562 5.5135 0.07667 1.4608 0.02233 1.8215-0.42006 2.7878-1.0853 2.3705-2.9452 3.6603-5.4608 3.7869-0.759 0.0382-1.6113-7e-3 -1.894-0.0998z"/><path transform="scale(.75)" d="m115.66 100.16c-1.9618-0.638-3.6476-2.2214-4.2291-3.9721-0.45854-1.3805-0.32672-3.8448 0.26726-4.996 2.3847-4.6221 9.0241-4.5913 11.296 0.05248 1.1614 2.3738 0.63054 5.4206-1.2711 7.2951-1.1725 1.1558-2.4167 1.6824-4.1098 1.7393-0.79164 0.0266-1.6707-0.0268-1.9534-0.11876z"/></g><path transform="scale(.75)" d="m139.82 107.8c-2.7442-0.98244-4.35-3.4367-4.1792-6.387 0.30861-5.3279 6.7037-7.878 10.521-4.1954 0.43387 0.41852 1.034 1.2236 1.3337 1.789 0.46493 0.87736 0.54524 1.2844 0.5477 2.7759 3e-3 2.0498-0.43538 3.1658-1.7691 4.4995-1.681 1.681-4.287 2.2939-6.4545 1.5179z" fill="#fc0" stroke-width=".20562"/><path transform="scale(.75)" d="m144.91 87.717c-1.5564-0.50781-2.7783-1.6036-3.6893-3.3085-0.73686-1.3791-0.79729-3.8206-0.13041-5.2685 1.4932-3.2419 5.1835-4.6757 8.316-3.231 2.3526 1.085 3.6829 3.2177 3.6829 5.9042 0 2.38-1.32 4.4638-3.5527 5.6082-1.0904 0.55893-3.3727 0.70482-4.6266 0.29573z" fill="#69f" stroke-width=".20562"/><path transform="scale(.75)" d="m20.102 34.441c-1.332-0.57695-2.5296-1.7343-3.2555-3.1461-0.89119-1.7333-0.65797-4.6686 0.50175-6.3151 2.4804-3.5216 7.7885-3.4666 10.205 0.10575 1.1515 1.7019 1.4221 3.3967 0.8497 5.3217-1.0297 3.4633-5.0776 5.4302-8.3014 4.0337z" fill="#fc0" stroke-width=".29079"/><g fill="#999"><path transform="scale(.75)" d="m38.45 32.483c-5.3715-1.2226-9.7759-2.2327-9.7875-2.2446-0.03096-0.03177 0.07369-0.45164 0.11133-0.44671 0.05412 0.0071 19.696 4.4603 19.707 4.468 0.0056 4e-3 -0.011 0.10343-0.03699 0.22107-0.04153 0.18794-0.0582 0.21458-0.13749 0.21956-0.04963 0.0031-4.4851-0.99467-9.8566-2.2173z"/><path transform="scale(.75)" d="m24.742 54.095c-0.06234-0.42087-1.8906-19.019-1.8715-19.038 0.01266-0.01266 0.12245-0.03203 0.24398-0.04305 0.19733-0.01789 0.22097-0.01291 0.22097 0.04661 0 0.03665 0.42616 4.3509 0.94702 9.5872 0.52086 5.2363 0.94206 9.5246 0.93599 9.5295-0.0061 0.0049-0.11125 0.01898-0.23373 0.03121l-0.2227 0.02224z"/><g stroke="#999" stroke-width="2"><path transform="scale(.75)" d="m24.737 54.08c-0.01197-0.08581-0.33126-3.2802-0.70953-7.0987-0.37827-3.8185-0.79828-8.0584-0.93336-9.422-0.13508-1.3636-0.23529-2.4896-0.2227-2.5022 0.01259-0.01259 0.12232-0.03191 0.24386-0.04293 0.17392-0.01577 0.22099-0.0093 0.22107 0.03045 5.7e-5 0.02777 0.26177 2.684 0.58158 5.9027 0.31981 3.2187 0.74617 7.51 0.94746 9.5362s0.36078 3.6883 0.35442 3.6937c-0.0064 0.0054-0.1127 0.02081-0.2363 0.0343l-0.22473 0.02452z"/><path transform="scale(.75)" d="m45.691 34.129c-1.3894-0.3176-5.7814-1.3159-9.7598-2.2186s-7.2464-1.6527-7.2622-1.667c-0.04965-0.0448 0.06159-0.45653 0.12118-0.4485 0.05746 0.0077 4.8185 1.0847 11.539 2.6101 2.3391 0.53092 5.128 1.1633 6.1976 1.4053 1.0696 0.24199 1.9507 0.44519 1.9581 0.45156 0.0074 0.0064-0.0096 0.10641-0.0378 0.22231-0.04441 0.18267-0.06314 0.21149-0.14065 0.21644-0.04918 0.0031-1.2262-0.25414-2.6157-0.57173z"/><path transform="scale(.75)" d="m69.196 38.219c-4.4083-0.62673-8.0613-1.1403-8.1179-1.1412-0.09233-0.0016-0.10089-0.01196-0.08373-0.10169 0.01051-0.05498 0.02949-0.1688 0.04218-0.25295 0.0214-0.14196 0.03006-0.1517 0.12008-0.13513 0.05336 0.0098 1.4219 0.20468 3.0413 0.43302s3.7621 0.53089 4.7618 0.67235c0.9996 0.14146 3.2651 0.46162 5.0344 0.71149 1.7693 0.24986 3.2705 0.46392 3.3359 0.47568 0.11392 0.02047 0.11808 0.02701 0.09751 0.15348-0.05258 0.32332-0.05628 0.33214-0.13761 0.32826-0.04339-0.0021-3.6857-0.51654-8.0939-1.1433z"/><path transform="scale(.75)" d="m25.417 70.928v-3.8554h0.46265v7.7108h-0.46265z"/><path transform="scale(.75)" d="m32.02 80.775c-0.01871-0.09975-0.02284-0.21045-0.0092-0.246 0.01817-0.04727 1.2044-0.15933 4.4137-0.41697 2.4139-0.19378 7.1879-0.57846 10.609-0.85485s6.2227-0.49953 6.2259-0.49587c0.0032 0.0037 0.01834 0.10508 0.0337 0.22537 0.02474 0.19383 0.01531 0.22132-0.08289 0.24165-0.06094 0.01261-4.772 0.39465-10.469 0.84898-5.697 0.45432-10.432 0.83797-10.523 0.85255-0.1544 0.0249-0.16646 0.01548-0.19842-0.15485z"/><path transform="scale(.75)" d="m76.486 95.099c-1.3582-1.3204-4.6835-4.5478-7.3896-7.1719s-4.9201-4.7884-4.9201-4.8097c0-0.02122 0.06766-0.10339 0.15034-0.18261l0.15034-0.14404 5.8511 5.6734c3.2181 3.1204 6.5517 6.3539 7.408 7.1856l1.557 1.5122-0.16604 0.17131c-0.09132 0.09422-0.16728 0.17021-0.1688 0.16888-0.0015-0.0013-1.114-1.0828-2.4723-2.4032z"/><path transform="scale(.75)" d="m90.044 100.55c-0.01395-0.0226-0.04141-0.12657-0.06102-0.23111-0.03204-0.17079-0.02339-0.19309 0.08529-0.21983 1.7772-0.43735 20.951-4.8392 20.975-4.8154 0.019 0.01879 0.0502 0.1194 0.0694 0.22358 0.0341 0.18576 0.031 0.19042-0.16307 0.24114-0.10882 0.02845-4.8128 1.1184-10.453 2.4221-5.6405 1.3037-10.294 2.3817-10.341 2.3955-0.0471 0.0138-0.09705 7e-3 -0.111-0.0159z"/><path transform="scale(.75)" d="m129.69 98.196c-3.2373-1.0305-5.9812-1.8986-6.0977-1.9291l-0.21175-0.05538 0.0584-0.1978c0.0321-0.10879 0.0727-0.21207 0.0901-0.22951 0.0248-0.02484 12.204 3.8037 12.269 3.8566 0.0426 0.03496-0.1051 0.43457-0.15958 0.4319-0.0342-2e-3 -2.711-0.84621-5.9482-1.8767z"/><path transform="scale(.75)" d="m143.38 95.541c-0.14495-0.03846-0.1879-0.07312-0.16865-0.13605 0.0142-0.04645 0.43399-1.7384 0.93284-3.7599 0.49886-2.0215 0.92458-3.6945 0.94605-3.7178 0.0215-0.02326 0.13138-0.01743 0.24424 0.01296l0.2052 0.05525-0.91816 3.6882c-0.50498 2.0285-0.93024 3.7403-0.94502 3.8039-0.0296 0.12759-0.0221 0.12624-0.2965 0.05343z"/><path transform="scale(.75)" d="m129.72 71.356c-6.3442-3.9191-11.543-7.1327-11.554-7.1412-0.0103-0.0086 0.0329-0.09918 0.0961-0.20136 0.0794-0.12851 0.13994-0.17612 0.19635-0.15448 0.0448 0.01721 5.2546 3.2278 11.577 7.1346l11.496 7.1033-0.0993 0.16829c-0.0546 0.09256-0.11683 0.17913-0.13827 0.19238-0.0214 0.01325-5.2297-3.1824-11.574-7.1016z"/><path transform="scale(.75)" d="m112.57 50.34v-3.8297h0.46265v7.6594h-0.46265z"/><path transform="scale(.75)" d="m90.159 40.034v-0.25703h16.244v0.51406h-16.244z"/></g></g><path transform="scale(.75)" d="m111.54 46.325c-2.0943-0.45453-3.7502-1.8252-4.6029-3.8101-0.18341-0.4269-0.36044-1.0497-0.41475-1.4591l-0.0333-0.25111h0.42449v-1.5422h-0.20562c-0.24154 0-0.24461-0.01355-0.12827-0.5666 0.52716-2.5061 2.5271-4.4734 5.0491-4.9668 0.60602-0.11857 1.7355-0.11857 2.3415 0 2.621 0.51281 4.6756 2.6189 5.0985 5.2264 0.55459 3.4198-1.5943 6.6066-4.9584 7.3532-0.58395 0.1296-0.56546 0.13308-0.56546-0.10642v-0.20562h-1.4908v0.20562c0 0.23583 3e-3 0.23506-0.51405 0.12278z" fill="#69f"/></svg>
