<?xml version="1.0" encoding="UTF-8"?>
<svg width="128pt" height="128pt" version="1.1" viewBox="0 0 128 128" xmlns="http://www.w3.org/2000/svg"><g transform="translate(.4707 11.473)"><path transform="scale(.34048 .34314)" d="m101.02 99.074h-31.883m-19.676-56.009 4.2105 42.007m1.3997 28.061v16.882m196.49 129.28-49.929 14.002m56.813-87.212 5.3118 55.417m-9.5797 5.1455-60.151-48.712m136.03 57.569h-50.893m-173.81-213.53-43.573-9.8129m54.335 52.89 1.9274-25.955m14.96-12.067 36.162 5.0772m-132.15 123.75 11.106-19.558m39.925 35.814-43.952-3.0623m-14.203 13.092-0.64247 48.883m280.89-113.3-51.042-31.294m-61.93-7.354h35.887m14.054-30.942v16.871m-28.647 45.615 19.194-21.14m59.406-10.405h-35.887m76.695 143.84-20.479-41.233m-21.385-166.54-35.772 13.843m50.491 36.03-1.1932-40.891m-188.82 193.97-13.251-32.012m4.7038 47.016-69.169 9.9837m96.061-6.5571 36.07 15.129m-6.0805-81.873-52.912 2.6069m28.005-53.789 50.813 1.9011m-74.813-28.3 4.8988 12.75m-8.9716 14.253-46.969 3.7567m71.119 4.8723 32.743 31.499m10.933 23.792 3.4074 59.925m15.029-109.64-12.551 23.292m53.623-1.4685-46.591 10.701m-6.3214-74.895 11.129 18.021m-72.473-29.985h39.891m28.131-45.012h35.887m-106.24 37.248 44.56-29.484m99.147 114.48 27.19 8.5607m16.819-9.4259 4.1875-16.712m-10.647-14.15-85.013-3.0395" fill="none" stroke="#999" stroke-miterlimit="10" stroke-width="1.125"/><path d="m23.539 33.996c0 2.6641-2.1445 4.8242-4.7891 4.8242s-4.7891-2.1602-4.7891-4.8242c0-2.668 2.1445-4.8281 4.7891-4.8281s4.7891 2.1602 4.7891 4.8281zm71.512 53.676c0 2.6641-2.1445 4.8242-4.7891 4.8242s-4.7891-2.1602-4.7891-4.8242 2.1445-4.8281 4.7891-4.8281 4.7891 2.1641 4.7891 4.8281zm-49.719-72.207c0 2.6641-2.1445 4.8242-4.7891 4.8242s-4.7891-2.1602-4.7891-4.8242c0-2.668 2.1445-4.8281 4.7891-4.8281s4.7891 2.1602 4.7891 4.8281zm-30.305 49.074c0 2.6641-2.1445 4.8242-4.7891 4.8242-2.6484 0-4.7891-2.1602-4.7891-4.8242 0-2.6641 2.1406-4.8281 4.7891-4.8281 2.6445 0 4.7852 2.1641 4.7852 4.8281zm73.895-30.543c0 2.6641-2.1445 4.8242-4.7891 4.8242-2.6445 0-4.7852-2.1602-4.7852-4.8242 0-2.668 2.1406-4.8281 4.7852-4.8281 2.6445 0 4.7891 2.1602 4.7891 4.8281zm33.031 53.676c0 2.6641-2.1445 4.8242-4.7891 4.8242s-4.7852-2.1602-4.7852-4.8242 2.1406-4.8281 4.7852-4.8281 4.7891 2.1641 4.7891 4.8281zm-11.914-77.355c0 2.6641-2.1445 4.8242-4.7891 4.8242s-4.7891-2.1602-4.7891-4.8242c0-2.6641 2.1445-4.8281 4.7891-4.8281s4.7891 2.1641 4.7891 4.8281zm-62.324 75.844c0 2.6641-2.1445 4.8242-4.7891 4.8242s-4.7891-2.1602-4.7891-4.8242c0-2.668 2.1445-4.8281 4.7891-4.8281s4.7891 2.1602 4.7891 4.8281zm-8.1719-19.906c0 2.6641-2.1445 4.8281-4.7891 4.8281-2.6445 0-4.7852-2.1641-4.7852-4.8281 0-2.6641 2.1406-4.8242 4.7852-4.8242 2.6445 0 4.7891 2.1602 4.7891 4.8242zm9.5352-18.875c0 2.6641-2.1445 4.8281-4.7891 4.8281-2.6445 0-4.7891-2.1641-4.7891-4.8281 0-2.6641 2.1445-4.8242 4.7891-4.8242 2.6445 0 4.7891 2.1602 4.7891 4.8242zm18.051 17.504c0 2.6641-2.1445 4.8242-4.7891 4.8242-2.6445 0-4.7891-2.1602-4.7891-4.8242 0-2.668 2.1445-4.8281 4.7891-4.8281 2.6445 0 4.7891 2.1602 4.7891 4.8281zm0-30.887c0 2.6641-2.1445 4.8242-4.7891 4.8242-2.6445 0-4.7891-2.1602-4.7891-4.8242 0-2.668 2.1445-4.8281 4.7891-4.8281 2.6445 0 4.7891 2.1602 4.7891 4.8281zm0-15.445c0 2.668-2.1445 4.8281-4.7891 4.8281-2.6445 0-4.7891-2.1602-4.7891-4.8281 0-2.6641 2.1445-4.8242 4.7891-4.8242 2.6445 0 4.7891 2.1602 4.7891 4.8242zm-45.977-8.5781c0 2.6641-2.1406 4.8281-4.7852 4.8281-2.6484 0-4.7891-2.1641-4.7891-4.8281 0-2.6641 2.1406-4.8242 4.7891-4.8242 2.6445 0 4.7852 2.1602 4.7852 4.8242zm22.816 24.023c0 2.6641-2.1406 4.8242-4.7852 4.8242-2.6445 0-4.7891-2.1602-4.7891-4.8242 0-2.668 2.1445-4.8281 4.7891-4.8281 2.6445 0 4.7852 2.1602 4.7852 4.8281zm48.359 25.051c0 2.668-2.1445 4.8281-4.7891 4.8281-2.6445 0-4.7891-2.1602-4.7891-4.8281 0-2.6641 2.1445-4.8242 4.7891-4.8242 2.6445 0 4.7891 2.1602 4.7891 4.8242zm18.391-25.051c0 2.6641-2.1445 4.8242-4.7891 4.8242s-4.7891-2.1602-4.7891-4.8242c0-2.668 2.1445-4.8281 4.7891-4.8281s4.7891 2.1602 4.7891 4.8281zm0 30.887c0 2.6641-2.1445 4.8242-4.7891 4.8242s-4.7891-2.1602-4.7891-4.8242c0-2.668 2.1445-4.8281 4.7891-4.8281s4.7891 2.1602 4.7891 4.8281zm3.7461-15.102c0 2.6641-2.1445 4.8281-4.7891 4.8281s-4.7891-2.1641-4.7891-4.8281 2.1445-4.8242 4.7891-4.8242 4.7891 2.1602 4.7891 4.8242zm-25.543-31.23c0 2.668-2.1445 4.8281-4.7891 4.8281-2.6445 0-4.7852-2.1602-4.7852-4.8281 0-2.6641 2.1406-4.8242 4.7852-4.8242 2.6445 0 4.7891 2.1602 4.7891 4.8242zm-20.09 76.527c0 2.668-2.1445 4.8281-4.7891 4.8281s-4.7891-2.1602-4.7891-4.8242c0-2.668 2.1445-4.8281 4.7891-4.8281s4.7891 2.1602 4.7891 4.8281zm-54.148-4.1172c0 2.668-2.1445 4.8281-4.7891 4.8281s-4.7891-2.1602-4.7891-4.8281c0-2.6641 2.1445-4.8242 4.7891-4.8242s4.7891 2.1602 4.7891 4.8242zm61.266-42.566c0 2.6641-2.1445 4.8242-4.7891 4.8242-2.6445 0-4.7891-2.1602-4.7891-4.8242 0-2.668 2.1445-4.8281 4.7891-4.8281 2.6445 0 4.7891 2.1602 4.7891 4.8281zm-52.41 1.043c0 2.668-2.1445 4.8281-4.7891 4.8281s-4.7891-2.1602-4.7891-4.8281c0-2.6641 2.1445-4.8242 4.7891-4.8242s4.7891 2.1602 4.7891 4.8242z" fill="#7dccba"/></g></svg>
