<?xml version="1.0" encoding="UTF-8"?>
<svg version="1.1" viewBox="0 0 128 128" xmlns="http://www.w3.org/2000/svg"><g transform="matrix(.26933 0 0 .26933 -.34755 18.767)"><path d="m373.55 121.64-13.618-28.28m-245.99 153.64-32.342-119.76m-20.008-12.029-30.601 6.985m33.727-20.683-24.54-19.57m74.399 0-24.54 19.57m-12.66-6.097v-31.387m15.925 50.508 114.64 21.088m-137.59-9.428-13.618 28.279m154.48-26.017-24.54-19.57m198.86 97.472-146.73-61.543m-48.517-74.928 26.471 54.12m-88.092 126.3 84.706-99.43m9.682-28.496-1.166-23.035m116.33-13.767-99.65 46.166m22.507-22.859-24.54 19.57m14.224-88.658-22.63 83.13m-63.573 150.29-30.601-6.985m21.413-33.269-24.54 19.57m7.985 52.964-13.619-28.28m-19.684-24.684-24.54-19.57m21.413 33.269-30.6 6.984m39.361 4.001-13.619 28.28m295.91-78.292-13.619 28.28m57.844-72.533-24.54 19.57m7.984 52.963-13.618-28.28m39.361-4.001-30.6-6.984m-15.787-19.795v-31.387m-15.785 51.182-30.601 6.984m-13.827-154.53-24.54-19.57m37.199 13.474v-31.389m37.199 17.915-24.54 19.57m33.728 20.683-30.6-6.985" fill="none" stroke="#999" stroke-miterlimit="10" stroke-width="1.943"/><path d="m377.06 120.84a8.096 8.096 0 1 1 0 16.192 8.096 8.096 0 0 1 0-16.192z" fill="#7fcdbb"/><path d="m77.375 95.412c8.943 0 16.192 7.25 16.192 16.192 0 8.943-7.249 16.192-16.192 16.192-8.942 0-16.191-7.25-16.191-16.192s7.249-16.192 16.191-16.192z" fill="#fc3"/><path d="m33.847 68.795a8.096 8.096 0 1 1 0 16.192 8.096 8.096 0 0 1 0-16.192zm-10.751 47.102a8.096 8.096 0 1 1 0 16.192 8.096 8.096 0 0 1 0-16.192zm54.279-68.064a8.096 8.096 0 1 1 0 16.192 8.096 8.096 0 0 1 0-16.192zm-24.156 105.84a8.096 8.096 0 1 1 0 16.192 8.096 8.096 0 0 1 0-16.192zm67.685-84.875a8.096 8.096 0 1 1 0 16.192 8.096 8.096 0 0 1 0-16.192z" fill="#7fcdbb"/><path d="m223.87 122.36c8.943 0 16.192 7.25 16.192 16.192s-7.249 16.192-16.192 16.192c-8.942 0-16.191-7.25-16.191-16.192 0-8.943 7.249-16.192 16.191-16.192z" fill="#fc3"/><path d="m252.88 23.889a8.096 8.096 0 1 1 0 16.192 8.096 8.096 0 0 1 0-16.192zm-72.539 71.853a8.096 8.096 0 1 1 0 16.192 8.096 8.096 0 0 1 0-16.192zm41.134-12.579a8.096 8.096 0 1 1 0 16.192 8.096 8.096 0 0 1 0-16.192zm45.923 12.579a8.096 8.096 0 1 1 0 16.192 8.096 8.096 0 0 1 0-16.192zm-80.671-41.225a8.096 8.096 0 1 1 0 16.192 8.096 8.096 0 0 1 0-16.192zm-14.284 212.41a8.096 8.096 0 1 1 0 16.192 8.096 8.096 0 0 1 0-16.192zm-10.752-47.102a8.096 8.096 0 1 1 0 16.192 8.096 8.096 0 0 1 0-16.192zm-19.371 84.875a8.096 8.096 0 1 1 0 16.192 8.096 8.096 0 0 1 0-16.192z" fill="#7fcdbb"/><path d="m118.16 246.44c8.943 0 16.192 7.25 16.192 16.192s-7.25 16.192-16.192 16.192-16.192-7.25-16.192-16.192c0-8.943 7.25-16.192 16.192-16.192z" fill="#fc3"/><path d="m74.633 219.82a8.096 8.096 0 1 1 0 16.192 8.096 8.096 0 0 1 0-16.192zm-10.75 47.102a8.096 8.096 0 1 1 0 16.192 8.096 8.096 0 0 1 0-16.192zm30.122 37.773a8.096 8.096 0 1 1 0 16.192 8.096 8.096 0 0 1 0-16.192z" fill="#7fcdbb"/><path d="m400.46 196.43c8.943 0 16.192 7.25 16.192 16.192 0 8.943-7.249 16.192-16.192 16.192-8.942 0-16.191-7.25-16.191-16.192s7.249-16.192 16.191-16.192z" fill="#fc3"/><path d="m454.74 216.91a8.096 8.096 0 1 1 0 16.192 8.096 8.096 0 0 1 0-16.192zm-108.56 0a8.096 8.096 0 1 1 0 16.192 8.096 8.096 0 0 1 0-16.192zm54.279-68.064a8.096 8.096 0 1 1 0 16.192 8.096 8.096 0 0 1 0-16.192zm-24.157 105.84a8.096 8.096 0 1 1 0 16.192 8.096 8.096 0 0 1 0-16.192zm67.686-84.875a8.096 8.096 0 1 1 0 16.192 8.096 8.096 0 0 1 0-16.192zm-19.372 84.875a8.096 8.096 0 1 1 0 16.192 8.096 8.096 0 0 1 0-16.192z" fill="#7fcdbb"/><path d="m352.9 62.58c8.943 0 16.192 7.249 16.192 16.191 0 8.943-7.25 16.192-16.192 16.192s-16.192-7.25-16.192-16.192 7.25-16.192 16.192-16.192z" fill="#fc3"/><path d="m407.18 83.064a8.096 8.096 0 1 1 0 16.192 8.096 8.096 0 0 1 0-16.192zm-97.809-47.102a8.096 8.096 0 1 1 0 16.192 8.096 8.096 0 0 1 0-16.192zm43.529-20.962a8.096 8.096 0 1 1 0 16.192 8.096 8.096 0 0 1 0-16.192zm43.529 20.962a8.096 8.096 0 1 1 0 16.192 8.096 8.096 0 0 1 0-16.192z" fill="#7fcdbb"/></g></svg>
