<svg xmlns="http://www.w3.org/2000/svg" width="477.833" height="335.89"><path d="M373.547 121.639l-13.618-28.28M113.94 247L81.598 127.236M61.59 115.207l-30.601 6.985m33.727-20.683l-24.54-19.57m74.399 0l-24.54 19.57m-12.66-6.097V64.025M93.3 114.533l114.644 21.088M70.35 126.193l-13.618 28.279m154.478-26.017l-24.54-19.57m198.856 97.472L238.8 144.814m-48.517-74.928l26.471 54.12m-88.092 126.3l84.706-99.43m9.682-28.496l-1.166-23.035m116.327-13.767l-99.65 46.166m22.507-22.859l-24.54 19.57m14.224-88.658l-22.63 83.13M164.549 273.22l-30.601-6.985m21.413-33.269l-24.54 19.57m7.985 52.964l-13.619-28.28m-19.684-24.684l-24.54-19.57m21.413 33.269l-30.6 6.984m39.361 4.001L97.518 305.5m295.914-78.292l-13.619 28.28m57.844-72.533l-24.54 19.57m7.984 52.963l-13.618-28.28m39.361-4.001l-30.6-6.984m-15.787-19.795v-31.387m-15.785 51.182l-30.601 6.984M340.244 68.676l-24.54-19.57m37.199 13.474V31.191m37.199 17.915l-24.54 19.57m33.728 20.683l-30.6-6.985" stroke-width="1.943" fill="none" stroke="#999" stroke-miterlimit="10"/><path d="M377.06 120.837a8.096 8.096 0 110 16.192 8.096 8.096 0 010-16.192z" fill="#7fcdbb"/><path d="M77.375 95.412c8.943 0 16.192 7.25 16.192 16.192 0 8.943-7.249 16.192-16.192 16.192-8.942 0-16.191-7.25-16.191-16.192s7.249-16.192 16.191-16.192z" fill="#fc3"/><path d="M33.847 68.795a8.096 8.096 0 110 16.192 8.096 8.096 0 010-16.192zm-10.751 47.102a8.096 8.096 0 110 16.192 8.096 8.096 0 010-16.192zm54.279-68.064a8.096 8.096 0 110 16.192 8.096 8.096 0 010-16.192zM53.219 153.67a8.096 8.096 0 110 16.192 8.096 8.096 0 010-16.192zm67.685-84.875a8.096 8.096 0 110 16.192 8.096 8.096 0 010-16.192z" fill="#7fcdbb"/><path d="M223.868 122.359c8.943 0 16.192 7.25 16.192 16.192s-7.249 16.192-16.192 16.192c-8.942 0-16.191-7.25-16.191-16.192 0-8.943 7.249-16.192 16.191-16.192z" fill="#fc3"/><path d="M252.879 23.889a8.096 8.096 0 110 16.192 8.096 8.096 0 010-16.192zM180.34 95.742a8.096 8.096 0 110 16.192 8.096 8.096 0 010-16.192zm41.134-12.579a8.096 8.096 0 110 16.192 8.096 8.096 0 010-16.192zm45.923 12.579a8.096 8.096 0 110 16.192 8.096 8.096 0 010-16.192zm-80.671-41.225a8.096 8.096 0 110 16.192 8.096 8.096 0 010-16.192zm-14.284 212.408a8.096 8.096 0 110 16.192 8.096 8.096 0 010-16.192zm-10.752-47.102a8.096 8.096 0 110 16.192 8.096 8.096 0 010-16.192zm-19.371 84.875a8.096 8.096 0 110 16.192 8.096 8.096 0 010-16.192z" fill="#7fcdbb"/><path d="M118.162 246.44c8.943 0 16.192 7.25 16.192 16.192s-7.25 16.192-16.192 16.192-16.192-7.25-16.192-16.192c0-8.943 7.25-16.192 16.192-16.192z" fill="#fc3"/><path d="M74.633 219.823a8.096 8.096 0 110 16.192 8.096 8.096 0 010-16.192zm-10.75 47.102a8.096 8.096 0 110 16.192 8.096 8.096 0 010-16.192zm30.122 37.773a8.096 8.096 0 110 16.192 8.096 8.096 0 010-16.192z" fill="#7fcdbb"/><path d="M400.457 196.428c8.943 0 16.192 7.25 16.192 16.192 0 8.943-7.249 16.192-16.192 16.192-8.942 0-16.191-7.25-16.191-16.192s7.249-16.192 16.191-16.192z" fill="#fc3"/><path d="M454.737 216.913a8.096 8.096 0 110 16.192 8.096 8.096 0 010-16.192zm-108.559 0a8.096 8.096 0 110 16.192 8.096 8.096 0 010-16.192zm54.279-68.064a8.096 8.096 0 110 16.192 8.096 8.096 0 010-16.192zM376.3 254.686a8.096 8.096 0 110 16.192 8.096 8.096 0 010-16.192zm67.686-84.875a8.096 8.096 0 110 16.192 8.096 8.096 0 010-16.192zm-19.372 84.875a8.096 8.096 0 110 16.192 8.096 8.096 0 010-16.192z" fill="#7fcdbb"/><path d="M352.903 62.58c8.943 0 16.192 7.249 16.192 16.191 0 8.943-7.25 16.192-16.192 16.192s-16.192-7.25-16.192-16.192 7.25-16.192 16.192-16.192z" fill="#fc3"/><path d="M407.183 83.064a8.096 8.096 0 110 16.192 8.096 8.096 0 010-16.192zm-97.809-47.102a8.096 8.096 0 110 16.192 8.096 8.096 0 010-16.192zM352.903 15a8.096 8.096 0 110 16.192 8.096 8.096 0 010-16.192zm43.529 20.962a8.096 8.096 0 110 16.192 8.096 8.096 0 010-16.192z" fill="#7fcdbb"/></svg>