<svg xmlns="http://www.w3.org/2000/svg" width="169.651" height="169.652"><path d="M84.826 138.554v-34.412M71.167 71.168L46.834 46.834M84.826 65.51V31.096M65.51 84.826H31.096m67.388-13.658l24.334-24.334m-24.334 51.65l24.334 24.335m-18.676-37.992h34.412m-91.72 37.992l24.333-24.335" stroke-width="1.932" fill="none" stroke="#999" stroke-miterlimit="10"/><path d="M92.874 146.603a8.049 8.049 0 11-16.097 0 8.049 8.049 0 0116.097 0z" fill="#7fcdbb"/><path d="M104.142 84.826c0 10.669-8.648 19.317-19.316 19.317s-19.317-8.649-19.317-19.317c0-10.667 8.649-19.316 19.317-19.316 10.668 0 19.316 8.648 19.316 19.316z" fill="#fc3"/><path d="M49.191 41.144a8.049 8.049 0 11-16.097 0 8.049 8.049 0 0116.097 0zm43.683-18.095a8.049 8.049 0 11-16.097 0 8.049 8.049 0 0116.097 0zM31.097 84.827a8.049 8.049 0 11-16.097 0 8.049 8.049 0 0116.097 0zm105.46-43.683a8.049 8.049 0 11-16.097 0 8.049 8.049 0 0116.097 0zM49.191 128.51a8.049 8.049 0 11-16.097 0 8.049 8.049 0 0116.097 0zm87.366 0a8.049 8.049 0 11-16.097 0 8.049 8.049 0 0116.097 0zm18.094-43.683a8.049 8.049 0 11-16.097 0 8.049 8.049 0 0116.097 0z" fill="#7fcdbb"/></svg>