<svg xmlns="http://www.w3.org/2000/svg" width="353.181" height="286.155"><path d="M91.013 89.071H59.129M39.464 33.06l4.201 42.016M45.065 103.136v16.877M241.561 249.297l-49.928 13.997M248.446 176.084l5.315 55.416M244.174 236.649l-60.153-48.714M320.052 245.5h-50.884M95.357 31.973l-43.572-9.817M106.116 75.045l1.923-25.954M123.005 37.023l36.158 5.083M27.012 165.855l11.105-19.549M78.047 182.11l-43.952-3.052M19.882 192.147l-.635 48.88M300.127 127.724l-51.034-31.3M187.155 89.071h35.884M237.104 58.13v16.877M208.451 120.619l19.197-21.137M287.052 89.071h-35.884M327.858 232.905l-20.483-41.226M286 25.14l-35.78 13.848M300.71 75.012l-1.186-40.889M110.7 228.094L97.455 196.08M102.157 243.1l-69.172 9.982M129.048 246.529l36.072 15.123M159.043 179.778l-52.918 2.612M134.132 128.603l50.809 1.901M110.126 102.198l4.903 12.752M106.058 129.199l-46.974 3.757M130.213 137.829l32.743 31.504M173.888 193.126l3.405 59.923M192.322 143.41l-12.558 23.294M233.396 165.233l-46.598 10.703M180.48 101.039l11.127 18.024M119.142 89.071h39.884M187.155 44.065h35.884M116.807 81.31l44.555-29.484M260.52 166.307l27.18 8.555M304.527 165.44l4.179-16.718M298.061 134.575l-85.01-3.042" fill="none" stroke="#999" stroke-linecap="butt" stroke-miterlimit="10" stroke-width="1.12516"/><path d="M59.13 89.071c0 7.768-6.298 14.065-14.065 14.065C37.297 103.136 31 96.839 31 89.07s6.297-14.064 14.065-14.064c7.767 0 14.064 6.296 14.064 14.064zM269.168 245.5c0 7.768-6.297 14.065-14.064 14.065-7.768 0-14.065-6.297-14.065-14.065s6.297-14.064 14.065-14.064c7.767 0 14.064 6.296 14.064 14.064zM123.142 35.065c0 7.767-6.297 14.064-14.064 14.064-7.768 0-14.065-6.297-14.065-14.064 0-7.768 6.297-14.065 14.065-14.065 7.767 0 14.064 6.297 14.064 14.065zM34.13 178.084c0 7.768-6.298 14.065-14.065 14.065-7.768 0-14.065-6.297-14.065-14.065s6.297-14.064 14.065-14.064c7.767 0 14.064 6.296 14.064 14.064zM251.168 89.071c0 7.768-6.297 14.065-14.064 14.065-7.768 0-14.065-6.297-14.065-14.065s6.297-14.064 14.065-14.064c7.767 0 14.064 6.296 14.064 14.064zM348.181 245.5c0 7.768-6.297 14.065-14.064 14.065-7.768 0-14.065-6.297-14.065-14.065s6.297-14.064 14.065-14.064c7.767 0 14.064 6.296 14.064 14.064zM313.181 20.065c0 7.767-6.297 14.064-14.064 14.064-7.768 0-14.065-6.297-14.065-14.064C285.052 12.297 291.35 6 299.117 6c7.767 0 14.064 6.297 14.064 14.065zM130.142 241.09c0 7.768-6.297 14.065-14.064 14.065-7.768 0-14.065-6.297-14.065-14.064 0-7.768 6.297-14.065 14.065-14.065 7.767 0 14.064 6.297 14.064 14.065zM106.142 183.084c0 7.768-6.297 14.065-14.064 14.065-7.768 0-14.065-6.297-14.065-14.065s6.297-14.064 14.065-14.064c7.767 0 14.064 6.296 14.064 14.064zM134.142 128.078c0 7.767-6.297 14.064-14.064 14.064-7.768 0-14.065-6.297-14.065-14.064 0-7.768 6.297-14.065 14.065-14.065 7.767 0 14.064 6.297 14.064 14.065zM187.155 179.084c0 7.768-6.297 14.065-14.064 14.065-7.768 0-14.065-6.297-14.065-14.065s6.297-14.064 14.065-14.064c7.767 0 14.064 6.296 14.064 14.064zM187.155 89.071c0 7.768-6.297 14.065-14.064 14.065-7.768 0-14.065-6.297-14.065-14.065s6.297-14.064 14.065-14.064c7.767 0 14.064 6.296 14.064 14.064zM187.155 44.065c0 7.767-6.297 14.064-14.064 14.064-7.768 0-14.065-6.297-14.065-14.064 0-7.768 6.297-14.065 14.065-14.065 7.767 0 14.064 6.297 14.064 14.065zM52.13 19.065c0 7.767-6.298 14.064-14.065 14.064C30.297 33.13 24 26.832 24 19.065 24 11.297 30.297 5 38.065 5c7.767 0 14.064 6.297 14.064 14.065zM119.142 89.071c0 7.768-6.297 14.065-14.064 14.065-7.768 0-14.065-6.297-14.065-14.065s6.297-14.064 14.065-14.064c7.767 0 14.064 6.296 14.064 14.064zM261.168 162.084c0 7.768-6.297 14.065-14.064 14.065-7.768 0-14.065-6.297-14.065-14.065s6.297-14.064 14.065-14.064c7.767 0 14.064 6.296 14.064 14.064zM315.181 89.071c0 7.768-6.297 14.065-14.064 14.065-7.768 0-14.065-6.297-14.065-14.065s6.297-14.064 14.065-14.064c7.767 0 14.064 6.296 14.064 14.064zM315.181 179.084c0 7.768-6.297 14.065-14.064 14.065-7.768 0-14.065-6.297-14.065-14.065s6.297-14.064 14.065-14.064c7.767 0 14.064 6.296 14.064 14.064zM326.181 135.078c0 7.767-6.297 14.064-14.064 14.064-7.768 0-14.065-6.297-14.065-14.064 0-7.768 6.297-14.065 14.065-14.065 7.767 0 14.064 6.297 14.064 14.065zM251.168 44.065c0 7.767-6.297 14.064-14.064 14.064-7.768 0-14.065-6.297-14.065-14.064 0-7.768 6.297-14.065 14.065-14.065 7.767 0 14.064 6.297 14.064 14.065zM192.155 267.09c0 7.768-6.297 14.065-14.064 14.065-7.768 0-14.065-6.297-14.065-14.064 0-7.768 6.297-14.065 14.065-14.065 7.767 0 14.064 6.297 14.064 14.065zM33.13 255.09c0 7.768-6.298 14.065-14.065 14.065-7.768 0-14.065-6.297-14.065-14.064 0-7.768 6.297-14.065 14.065-14.065 7.767 0 14.064 6.297 14.064 14.065zM213.06 131.03c0 7.768-6.297 14.065-14.065 14.065-7.767 0-14.064-6.297-14.064-14.065s6.297-14.065 14.064-14.065c7.768 0 14.065 6.297 14.065 14.065zM59.13 134.078c0 7.767-6.298 14.064-14.065 14.064-7.768 0-14.065-6.297-14.065-14.064 0-7.768 6.297-14.065 14.065-14.065 7.767 0 14.064 6.297 14.064 14.065z" fill="#7fcdbb" stroke-linecap="square" stroke-miterlimit="10"/></svg>