<svg xmlns="http://www.w3.org/2000/svg" width="149.651" height="149.651"><path d="M74.826 128.554V94.142M61.167 61.167L36.834 36.834M74.826 55.51V21.096M55.51 74.826H21.096M88.484 61.167l24.334-24.333M88.484 88.484l24.334 24.334M94.142 74.826h34.412M36.834 112.818l24.333-24.334" stroke-width="1.93164" fill="none" stroke="#999" stroke-linecap="butt" stroke-miterlimit="10"/><path d="M82.874 136.603a8.048 8.048 0 11-16.097 0 8.048 8.048 0 0116.097 0z" fill="#7fcdbb" stroke-linecap="square" stroke-miterlimit="10"/><path d="M94.142 74.826c0 10.668-8.648 19.316-19.316 19.316s-19.317-8.648-19.317-19.316 8.649-19.317 19.317-19.317c10.668 0 19.316 8.649 19.316 19.317z" fill="#fc3" stroke-linecap="square" stroke-miterlimit="10"/><path d="M39.191 31.143a8.048 8.048 0 11-16.097 0 8.048 8.048 0 0116.097 0zM82.874 13.048a8.048 8.048 0 11-16.097 0 8.048 8.048 0 0116.097 0zM21.097 74.826a8.048 8.048 0 11-16.097 0 8.048 8.048 0 0116.097 0zM126.557 31.143a8.048 8.048 0 11-16.097 0 8.048 8.048 0 0116.097 0zM39.191 118.509a8.048 8.048 0 11-16.097 0 8.048 8.048 0 0116.097 0zM126.557 118.509a8.048 8.048 0 11-16.097 0 8.048 8.048 0 0116.097 0zM144.651 74.826a8.048 8.048 0 11-16.097 0 8.048 8.048 0 0116.097 0z" fill="#7fcdbb" stroke-linecap="square" stroke-miterlimit="10"/></svg>