<svg xmlns="http://www.w3.org/2000/svg" width="373.181" height="306.155"><path d="M101.013 99.071H69.129M49.464 43.06l4.201 42.016m1.4 28.06v16.877m196.496 129.284l-49.928 13.997m56.813-87.21l5.315 55.416m-9.587 5.149l-60.153-48.714M330.052 255.5h-50.884M105.357 41.973l-43.572-9.817m54.331 52.889l1.923-25.954m14.966-12.068l36.158 5.083M37.012 175.855l11.105-19.549m39.93 35.804l-43.952-3.052m-14.213 13.089l-.635 48.88m280.88-113.303l-51.034-31.3m-61.938-7.353h35.884m14.065-30.941v16.877m-28.653 45.612l19.197-21.137m59.404-10.411h-35.884m76.69 143.834l-20.483-41.226M296 35.14l-35.78 13.848m50.49 36.024l-1.186-40.889M120.7 238.094l-13.245-32.014m4.702 47.02l-69.172 9.982m96.063-6.553l36.072 15.123m-6.077-81.874l-52.918 2.612m28.007-53.787l50.809 1.901m-74.815-28.306l4.903 12.752m-8.971 14.249l-46.974 3.757m71.129 4.873l32.743 31.504m10.932 23.793l3.405 59.923m15.029-109.639l-12.558 23.294m53.632-1.471l-46.598 10.703m-6.318-74.897l11.127 18.024m-72.465-29.992h39.884m28.129-45.006h35.884M126.807 91.31l44.555-29.484m99.158 114.481l27.18 8.555m16.827-9.422l4.179-16.718m-10.645-14.147l-85.01-3.042" fill="none" stroke="#999" stroke-miterlimit="10" stroke-width="1.125"/><path d="M69.13 99.071c0 7.768-6.298 14.065-14.065 14.065-7.768 0-14.065-6.297-14.065-14.066 0-7.769 6.297-14.064 14.065-14.064 7.767 0 14.064 6.296 14.064 14.064zM279.168 255.5c0 7.768-6.297 14.065-14.064 14.065-7.768 0-14.065-6.297-14.065-14.065s6.297-14.064 14.065-14.064c7.767 0 14.064 6.296 14.064 14.064zM133.142 45.065c0 7.767-6.297 14.064-14.064 14.064-7.768 0-14.065-6.297-14.065-14.064 0-7.768 6.297-14.065 14.065-14.065 7.767 0 14.064 6.297 14.064 14.065zM44.13 188.084c0 7.768-6.298 14.065-14.065 14.065-7.768 0-14.065-6.297-14.065-14.065s6.297-14.064 14.065-14.064c7.767 0 14.064 6.296 14.064 14.064zm217.038-89.013c0 7.768-6.297 14.065-14.064 14.065-7.768 0-14.065-6.297-14.065-14.065s6.297-14.064 14.065-14.064c7.767 0 14.064 6.296 14.064 14.064zM358.181 255.5c0 7.768-6.297 14.065-14.064 14.065-7.768 0-14.065-6.297-14.065-14.065s6.297-14.064 14.065-14.064c7.767 0 14.064 6.296 14.064 14.064zm-35-225.435c0 7.767-6.297 14.064-14.064 14.064-7.768 0-14.065-6.297-14.065-14.064 0-7.768 6.298-14.065 14.065-14.065 7.767 0 14.064 6.297 14.064 14.065zM140.142 251.09c0 7.768-6.297 14.065-14.064 14.065-7.768 0-14.065-6.297-14.065-14.064 0-7.768 6.297-14.065 14.065-14.065 7.767 0 14.064 6.297 14.064 14.065zm-24-58.006c0 7.768-6.297 14.065-14.064 14.065-7.768 0-14.065-6.297-14.065-14.065s6.297-14.064 14.065-14.064c7.767 0 14.064 6.296 14.064 14.064zm28-55.006c0 7.767-6.297 14.064-14.064 14.064-7.768 0-14.065-6.297-14.065-14.064 0-7.768 6.297-14.065 14.065-14.065 7.767 0 14.064 6.297 14.064 14.065zm53.013 51.006c0 7.768-6.297 14.065-14.064 14.065-7.768 0-14.065-6.297-14.065-14.065s6.297-14.064 14.065-14.064c7.767 0 14.064 6.296 14.064 14.064zm0-90.013c0 7.768-6.297 14.065-14.064 14.065-7.768 0-14.065-6.297-14.065-14.065s6.297-14.064 14.065-14.064c7.767 0 14.064 6.296 14.064 14.064zm0-45.006c0 7.767-6.297 14.064-14.064 14.064-7.768 0-14.065-6.297-14.065-14.064 0-7.768 6.297-14.065 14.065-14.065 7.767 0 14.064 6.297 14.064 14.065zm-135.025-25c0 7.767-6.298 14.064-14.065 14.064C40.297 43.13 34 36.832 34 29.065 34 21.297 40.297 15 48.065 15c7.767 0 14.064 6.297 14.064 14.065zm67.012 70.006c0 7.768-6.297 14.065-14.064 14.065-7.768 0-14.065-6.297-14.065-14.065s6.297-14.064 14.065-14.064c7.767 0 14.064 6.296 14.064 14.064zm142.026 73.013c0 7.768-6.297 14.065-14.064 14.065-7.768 0-14.065-6.297-14.065-14.065s6.297-14.064 14.065-14.064c7.767 0 14.064 6.296 14.064 14.064zm54.013-73.013c0 7.768-6.297 14.065-14.064 14.065-7.768 0-14.065-6.297-14.065-14.065s6.297-14.064 14.065-14.064c7.767 0 14.064 6.296 14.064 14.064zm0 90.013c0 7.768-6.297 14.065-14.064 14.065-7.768 0-14.065-6.297-14.065-14.065s6.297-14.064 14.065-14.064c7.767 0 14.064 6.296 14.064 14.064zm11-44.006c0 7.767-6.297 14.064-14.064 14.064-7.768 0-14.065-6.297-14.065-14.064 0-7.768 6.297-14.065 14.065-14.065 7.767 0 14.064 6.297 14.064 14.065zm-75.013-91.013c0 7.767-6.297 14.064-14.064 14.064-7.768 0-14.065-6.297-14.065-14.064 0-7.768 6.297-14.065 14.065-14.065 7.767 0 14.064 6.297 14.064 14.065zM202.155 277.09c0 7.768-6.297 14.065-14.064 14.065-7.768 0-14.065-6.297-14.065-14.064 0-7.768 6.297-14.065 14.065-14.065 7.767 0 14.064 6.297 14.064 14.065zm-159.025-12c0 7.768-6.298 14.065-14.065 14.065-7.768 0-14.065-6.297-14.065-14.064 0-7.768 6.297-14.065 14.065-14.065 7.767 0 14.064 6.297 14.064 14.065zm179.93-124.06c0 7.768-6.297 14.065-14.065 14.065-7.767 0-14.064-6.297-14.064-14.065s6.297-14.065 14.064-14.065c7.768 0 14.065 6.297 14.065 14.065zm-153.93 3.048c0 7.767-6.298 14.064-14.065 14.064-7.768 0-14.065-6.297-14.065-14.064 0-7.768 6.297-14.065 14.065-14.065 7.767 0 14.064 6.297 14.064 14.065z" fill="#7fcdbb"/></svg>