<svg xmlns="http://www.w3.org/2000/svg" width="457.833" height="315.89"><path d="M363.547 111.639l-13.618-28.28M103.94 237L71.598 117.236M51.59 105.207l-30.601 6.985M54.716 91.509l-24.54-19.57M104.575 71.939l-24.54 19.57M67.375 85.412V54.025M83.3 104.533l114.644 21.088M60.35 116.193l-13.618 28.279M201.21 118.455l-24.54-19.57M375.526 196.357L228.8 134.814M180.283 59.886l26.471 54.12M118.662 240.306l84.706-99.43M213.05 112.38l-1.166-23.035M328.211 75.578l-99.65 46.166M251.068 98.885l-24.54 19.57M240.752 29.797l-22.63 83.13M154.549 263.22l-30.601-6.985M145.361 222.966l-24.54 19.57M128.806 295.5l-13.619-28.28M95.503 242.536l-24.54-19.57M92.376 256.235l-30.6 6.984M101.137 267.22L87.518 295.5M383.432 217.208l-13.619 28.28M427.657 172.955l-24.54 19.57M411.101 245.488l-13.618-28.28M436.844 213.207l-30.6-6.984M390.457 186.428v-31.387M374.672 206.223l-30.601 6.984M330.244 58.676l-24.54-19.57M342.903 52.58V21.191M380.102 39.106l-24.54 19.57M389.29 79.359l-30.6-6.985" stroke-width="1.94304" fill="none" stroke="#999" stroke-linecap="butt" stroke-miterlimit="10"/><path d="M367.06 110.837a8.096 8.096 0 110 16.192 8.096 8.096 0 010-16.192z" fill="#7fcdbb" stroke-linecap="square" stroke-miterlimit="10"/><path d="M67.375 85.412c8.943 0 16.192 7.25 16.192 16.192 0 8.943-7.249 16.192-16.192 16.192-8.942 0-16.191-7.25-16.191-16.192s7.249-16.192 16.191-16.192z" fill="#fc3" stroke-linecap="square" stroke-miterlimit="10"/><path d="M23.847 58.795a8.096 8.096 0 110 16.192 8.096 8.096 0 010-16.192zM13.096 105.897a8.096 8.096 0 110 16.192 8.096 8.096 0 010-16.192zM67.375 37.833a8.096 8.096 0 110 16.192 8.096 8.096 0 010-16.192zM43.219 143.67a8.096 8.096 0 110 16.192 8.096 8.096 0 010-16.192zM110.904 58.795a8.096 8.096 0 110 16.192 8.096 8.096 0 010-16.192z" fill="#7fcdbb" stroke-linecap="square" stroke-miterlimit="10"/><path d="M213.868 112.359c8.943 0 16.192 7.25 16.192 16.192s-7.249 16.192-16.192 16.192c-8.942 0-16.191-7.25-16.191-16.192 0-8.943 7.249-16.192 16.191-16.192z" fill="#fc3" stroke-linecap="square" stroke-miterlimit="10"/><path d="M242.879 13.889a8.096 8.096 0 110 16.192 8.096 8.096 0 010-16.192zM170.34 85.742a8.096 8.096 0 110 16.192 8.096 8.096 0 010-16.192zM211.474 73.163a8.096 8.096 0 110 16.192 8.096 8.096 0 010-16.192zM257.397 85.742a8.096 8.096 0 110 16.192 8.096 8.096 0 010-16.192zM176.726 44.517a8.096 8.096 0 110 16.192 8.096 8.096 0 010-16.192zM162.442 256.925a8.096 8.096 0 110 16.192 8.096 8.096 0 010-16.192zM151.69 209.823a8.096 8.096 0 110 16.192 8.096 8.096 0 010-16.192zM132.319 294.698a8.096 8.096 0 110 16.192 8.096 8.096 0 010-16.192z" fill="#7fcdbb" stroke-linecap="square" stroke-miterlimit="10"/><path d="M108.162 236.44c8.943 0 16.192 7.25 16.192 16.192s-7.25 16.192-16.192 16.192-16.192-7.25-16.192-16.192c0-8.943 7.25-16.192 16.192-16.192z" fill="#fc3" stroke-linecap="square" stroke-miterlimit="10"/><path d="M64.633 209.823a8.096 8.096 0 110 16.192 8.096 8.096 0 010-16.192zM53.883 256.925a8.096 8.096 0 110 16.192 8.096 8.096 0 010-16.192zM84.005 294.698a8.096 8.096 0 110 16.192 8.096 8.096 0 010-16.192z" fill="#7fcdbb" stroke-linecap="square" stroke-miterlimit="10"/><path d="M390.457 186.428c8.943 0 16.192 7.25 16.192 16.192 0 8.943-7.249 16.192-16.192 16.192-8.942 0-16.191-7.25-16.191-16.192s7.249-16.192 16.191-16.192z" fill="#fc3" stroke-linecap="square" stroke-miterlimit="10"/><path d="M444.737 206.913a8.096 8.096 0 110 16.192 8.096 8.096 0 010-16.192zM336.178 206.913a8.096 8.096 0 110 16.192 8.096 8.096 0 010-16.192zM390.457 138.849a8.096 8.096 0 110 16.192 8.096 8.096 0 010-16.192zM366.3 244.686a8.096 8.096 0 110 16.192 8.096 8.096 0 010-16.192zM433.986 159.811a8.096 8.096 0 110 16.192 8.096 8.096 0 010-16.192zM414.614 244.686a8.096 8.096 0 110 16.192 8.096 8.096 0 010-16.192z" fill="#7fcdbb" stroke-linecap="square" stroke-miterlimit="10"/><path d="M342.903 52.58c8.943 0 16.192 7.249 16.192 16.191 0 8.943-7.25 16.192-16.192 16.192s-16.192-7.25-16.192-16.192 7.25-16.192 16.192-16.192z" fill="#fc3" stroke-linecap="square" stroke-miterlimit="10"/><path d="M397.183 73.064a8.096 8.096 0 110 16.192 8.096 8.096 0 010-16.192zM299.374 25.962a8.096 8.096 0 110 16.192 8.096 8.096 0 010-16.192zM342.903 5a8.096 8.096 0 110 16.192 8.096 8.096 0 010-16.192zM386.432 25.962a8.096 8.096 0 110 16.192 8.096 8.096 0 010-16.192z" fill="#7fcdbb" stroke-linecap="square" stroke-miterlimit="10"/></svg>