<?xml version="1.0" encoding="UTF-8"?>
<svg width="256" height="128" version="1.1" viewBox="0 0 67.733 33.867" xmlns="http://www.w3.org/2000/svg"><g transform="translate(0 -263.13)"><rect x="1.7802e-6" y="263.13" width="67.733" height="33.867" rx=".14226" ry=".48088" fill="#e6e6e6" stroke-width=".13402"/><g fill="#222" stroke-width=".079498" style="font-variant-caps:normal;font-variant-ligatures:normal;font-variant-numeric:normal" aria-label="The FBI has not been here"><path d="m17.593 268.53h5.1276v1.0844h-1.8446v4.4792h-1.4347v-4.4792h-1.8483z"/><path d="m27.595 271.55v2.5415h-1.3415v-1.9378q0-0.54779-0.02609-0.75275-0.02236-0.20495-0.08198-0.30184-0.07826-0.13043-0.21241-0.20123-0.13415-0.0745-0.30557-0.0745-0.41736 0-0.65586 0.3242-0.23849 0.32048-0.23849 0.89063v2.0533h-1.3341v-5.7984h1.3341v2.2359q0.30184-0.36519 0.64095-0.53661 0.33911-0.17515 0.74902-0.17515 0.72294 0 1.0956 0.44345 0.37637 0.44345 0.37637 1.2894z"/><path d="m33.006 272v0.3801h-3.1191q0.04844 0.46954 0.33911 0.70431 0.29066 0.23476 0.81237 0.23476 0.42109 0 0.86082-0.12297 0.44345-0.1267 0.90926-0.3801v1.0285q-0.47326 0.17887-0.94652 0.2683-0.47326 0.0932-0.94652 0.0932-1.1328 0-1.7626-0.57387-0.62605-0.57761-0.62605-1.6173 0-1.021 0.61487-1.6061 0.61859-0.58506 1.6993-0.58506 0.98379 0 1.5726 0.59251 0.59251 0.59251 0.59251 1.5838zm-1.3713-0.44345q0-0.3801-0.22359-0.61114-0.21986-0.23477-0.5776-0.23477-0.38755 0-0.62977 0.21987-0.24222 0.21613-0.30184 0.62604z"/><path d="m36.725 268.53h3.8718v1.0844h-2.4371v1.036h2.2918v1.0844h-2.2918v2.3589h-1.4347z"/><path d="m44.17 270.69q0.33911 0 0.51425-0.14905 0.17514-0.14906 0.17514-0.43973 0-0.28694-0.17514-0.43599-0.17514-0.15279-0.51425-0.15279h-0.79374v1.1776zm0.04844 2.4334q0.43227 0 0.64841-0.1826 0.21986-0.18259 0.21986-0.55151 0-0.36147-0.21614-0.54034-0.21614-0.1826-0.65213-0.1826h-0.84218v1.457zm1.3341-2.0011q0.46208 0.13415 0.71548 0.49562 0.2534 0.36146 0.2534 0.8869 0 0.80491-0.54406 1.1999-0.54406 0.39501-1.6546 0.39501h-2.3812v-5.5636h2.1539q1.1589 0 1.6769 0.35029 0.5217 0.35029 0.5217 1.1217 0 0.40619-0.19005 0.69312-0.19005 0.28322-0.55152 0.4211z"/><path d="m47.755 268.53h1.4347v5.5636h-1.4347z"/><path d="m22.497 279.19v2.5415h-1.3415v-1.9378q0-0.54779-0.02609-0.75274-0.02236-0.20496-0.08198-0.30185-0.07826-0.13042-0.21241-0.20123-0.13415-0.0745-0.30557-0.0745-0.41736 0-0.65586 0.32421-0.23849 0.32047-0.23849 0.89062v2.0533h-1.3341v-5.7984h1.3341v2.2359q0.30184-0.36519 0.64095-0.53661 0.33911-0.17514 0.74902-0.17514 0.72294 0 1.0956 0.44345 0.37637 0.44345 0.37637 1.2894z"/><path d="m25.613 279.85q-0.41736 0-0.62977 0.1416-0.20868 0.14161-0.20868 0.41737 0 0.2534 0.16769 0.39873 0.17142 0.14161 0.47326 0.14161 0.37637 0 0.6335-0.26831 0.25713-0.27203 0.25713-0.67822v-0.15278zm2.0384-0.50308v2.3812h-1.3453v-0.6186q-0.26831 0.3801-0.60369 0.55525-0.33538 0.17142-0.8161 0.17142-0.64841 0-1.0546-0.37638-0.40246-0.3801-0.40246-0.98379 0-0.73411 0.50307-1.077 0.5068-0.34283 1.5875-0.34283h0.78628v-0.10434q0-0.31675-0.24967-0.46209-0.24967-0.14905-0.77883-0.14905-0.42854 0-0.79746 0.0857-0.36892 0.0857-0.68567 0.25713v-1.0173q0.42854-0.10434 0.86081-0.15651 0.43227-0.0559 0.86454-0.0559 1.1291 0 1.6285 0.44717 0.50307 0.44345 0.50307 1.4459z"/><path d="m32.16 277.69v1.0136q-0.42854-0.17887-0.82728-0.26831-0.39873-0.0894-0.75275-0.0894-0.3801 0-0.56642 0.0969-0.1826 0.0932-0.1826 0.29067 0 0.16024 0.13788 0.24595 0.14161 0.0857 0.50307 0.1267l0.23477 0.0335q1.0248 0.13043 1.3788 0.42855 0.35401 0.29812 0.35401 0.93534 0 0.66704-0.49189 1.0024-0.49189 0.33539-1.4682 0.33539-0.41364 0-0.85709-0.0671-0.43972-0.0634-0.90553-0.19378v-1.0136q0.39873 0.19378 0.8161 0.29067 0.42109 0.0969 0.85336 0.0969 0.39128 0 0.58878-0.10807t0.1975-0.32048q0-0.17887-0.13788-0.26458-0.13415-0.0894-0.54034-0.13788l-0.23477-0.0298q-0.89063-0.11179-1.2484-0.41364-0.35774-0.30184-0.35774-0.91671 0-0.66331 0.45463-0.98379 0.45463-0.32047 1.3937-0.32047 0.36892 0 0.77511 0.0559 0.40619 0.0559 0.88317 0.17515z"/><path d="m40.295 279.19v2.5415h-1.3415v-1.9452q0-0.54034-0.02609-0.74529-0.02236-0.20496-0.08198-0.30185-0.07826-0.13042-0.21241-0.20123-0.13415-0.0745-0.30557-0.0745-0.41736 0-0.65586 0.32421-0.23849 0.32047-0.23849 0.89062v2.0533h-1.3341v-4.1736h1.3341v0.61114q0.30184-0.36519 0.64095-0.53661 0.33911-0.17514 0.74902-0.17514 0.72294 0 1.0956 0.44345 0.37637 0.44345 0.37637 1.2894z"/><path d="m43.526 278.41q-0.44345 0-0.67822 0.32048-0.23104 0.31675-0.23104 0.91671t0.23104 0.92044q0.23477 0.31675 0.67822 0.31675 0.436 0 0.66704-0.31675 0.23104-0.32048 0.23104-0.92044t-0.23104-0.91671q-0.23104-0.32048-0.66704-0.32048zm0-0.95397q1.077 0 1.6806 0.58133 0.60742 0.58132 0.60742 1.6098t-0.60742 1.6098q-0.60369 0.58133-1.6806 0.58133-1.0807 0-1.6918-0.58133-0.60742-0.58133-0.60742-1.6098t0.60742-1.6098q0.61114-0.58133 1.6918-0.58133z"/><path d="m48.243 276.37v1.185h1.3751v0.95398h-1.3751v1.7701q0 0.29067 0.11552 0.39501 0.11552 0.10061 0.45836 0.10061h0.68567v0.95398h-1.144q-0.79001 0-1.1217-0.32793-0.32793-0.33166-0.32793-1.1217v-1.7701h-0.66331v-0.95398h0.66331v-1.185z"/><path d="m14.858 288.5q0.42854 0 0.65213-0.31303 0.22731-0.31302 0.22731-0.90926 0-0.59623-0.22731-0.90926-0.22359-0.31302-0.65213-0.31302t-0.65958 0.31675q-0.22732 0.31302-0.22732 0.90553t0.22732 0.90926q0.23104 0.31303 0.65958 0.31303zm-0.8869-2.7017q0.27576-0.36519 0.61114-0.53661 0.33538-0.17514 0.77138-0.17514 0.77138 0 1.267 0.61487 0.49562 0.61114 0.49562 1.5763 0 0.96516-0.49562 1.58-0.49562 0.61114-1.267 0.61114-0.436 0-0.77138-0.17142-0.33538-0.17514-0.61114-0.54034v0.60369h-1.3341v-5.7984h1.3341z"/><path d="m22.274 287.26v0.3801h-3.1191q0.04844 0.46953 0.33911 0.7043 0.29066 0.23477 0.81237 0.23477 0.42109 0 0.86082-0.12298 0.44345-0.1267 0.90926-0.3801v1.0285q-0.47326 0.17887-0.94652 0.26831-0.47326 0.0932-0.94652 0.0932-1.1328 0-1.7626-0.57388-0.62605-0.5776-0.62605-1.6173 0-1.021 0.61487-1.6061 0.61859-0.58505 1.6993-0.58505 0.98379 0 1.5726 0.59251 0.59251 0.59251 0.59251 1.5838zm-1.3713-0.44345q0-0.3801-0.22359-0.61114-0.21986-0.23477-0.5776-0.23477-0.38755 0-0.62977 0.21986-0.24222 0.21614-0.30184 0.62605z"/><path d="m27.446 287.26v0.3801h-3.1191q0.04844 0.46953 0.33911 0.7043 0.29066 0.23477 0.81237 0.23477 0.42109 0 0.86081-0.12298 0.44345-0.1267 0.90926-0.3801v1.0285q-0.47326 0.17887-0.94652 0.26831-0.47326 0.0932-0.94652 0.0932-1.1328 0-1.7626-0.57388-0.62605-0.5776-0.62605-1.6173 0-1.021 0.61487-1.6061 0.61859-0.58505 1.6993-0.58505 0.98379 0 1.5726 0.59251 0.59251 0.59251 0.59251 1.5838zm-1.3713-0.44345q0-0.3801-0.22359-0.61114-0.21986-0.23477-0.5776-0.23477-0.38755 0-0.62977 0.21986-0.24222 0.21614-0.30184 0.62605z"/><path d="m32.648 286.82v2.5414h-1.3415v-1.9452q0-0.54034-0.02608-0.74529-0.02236-0.20496-0.08198-0.30185-0.07826-0.13042-0.21241-0.20122-0.13415-0.0745-0.30557-0.0745-0.41736 0-0.65586 0.3242-0.23849 0.32048-0.23849 0.89063v2.0533h-1.3341v-4.1736h1.3341v0.61114q0.30184-0.36519 0.64095-0.53661 0.33911-0.17514 0.74902-0.17514 0.72294 0 1.0956 0.44345 0.37637 0.44345 0.37637 1.2894z"/><path d="m40.742 286.82v2.5414h-1.3415v-1.9378q0-0.5478-0.02609-0.75275-0.02236-0.20496-0.08198-0.30185-0.07826-0.13042-0.21241-0.20122-0.13415-0.0745-0.30557-0.0745-0.41736 0-0.65586 0.3242-0.23849 0.32048-0.23849 0.89063v2.0533h-1.3341v-5.7984h1.3341v2.2359q0.30184-0.36519 0.64095-0.53661 0.33911-0.17514 0.74902-0.17514 0.72294 0 1.0956 0.44345 0.37637 0.44345 0.37637 1.2894z"/><path d="m46.153 287.26v0.3801h-3.1191q0.04844 0.46953 0.33911 0.7043 0.29066 0.23477 0.81237 0.23477 0.42109 0 0.86082-0.12298 0.44345-0.1267 0.90926-0.3801v1.0285q-0.47326 0.17887-0.94652 0.26831-0.47326 0.0932-0.94652 0.0932-1.1328 0-1.7626-0.57388-0.62605-0.5776-0.62605-1.6173 0-1.021 0.61487-1.6061 0.6186-0.58505 1.6993-0.58505 0.98379 0 1.5726 0.59251 0.59251 0.59251 0.59251 1.5838zm-1.3713-0.44345q0-0.3801-0.22359-0.61114-0.21986-0.23477-0.5776-0.23477-0.38755 0-0.62977 0.21986-0.24222 0.21614-0.30184 0.62605z"/><path d="m50.259 286.32q-0.17514-0.082-0.35029-0.11925-0.17142-0.041-0.34656-0.041-0.51425 0-0.79374 0.33165-0.27576 0.32793-0.27576 0.9428v1.9229h-1.3341v-4.1736h1.3341v0.68567q0.25713-0.40991 0.58878-0.59623 0.33538-0.19005 0.80119-0.19005 0.06708 0 0.14533 7e-3 0.07826 4e-3 0.22732 0.0224z"/><path d="m55.096 287.26v0.3801h-3.1191q0.04844 0.46953 0.33911 0.7043 0.29066 0.23477 0.81237 0.23477 0.42109 0 0.86082-0.12298 0.44345-0.1267 0.90926-0.3801v1.0285q-0.47326 0.17887-0.94652 0.26831-0.47326 0.0932-0.94652 0.0932-1.1328 0-1.7626-0.57388-0.62605-0.5776-0.62605-1.6173 0-1.021 0.61487-1.6061 0.6186-0.58505 1.6993-0.58505 0.98379 0 1.5726 0.59251 0.59251 0.59251 0.59251 1.5838zm-1.3713-0.44345q0-0.3801-0.22359-0.61114-0.21986-0.23477-0.5776-0.23477-0.38755 0-0.62977 0.21986-0.24222 0.21614-0.30184 0.62605z"/></g><g fill="#222" stroke-width=".038182" style="font-variant-caps:normal;font-variant-ligatures:normal;font-variant-numeric:normal" aria-label="(watch very closely for the removal of this sign)"><path d="m16.048 291.53q-0.09993 0.17152-0.1484 0.33931-0.04847 0.16779-0.04847 0.34006 0 0.17226 0.04847 0.34155 0.04922 0.16853 0.1484 0.33931h-0.11932q-0.11186-0.17525-0.16779-0.34453-0.05518-0.16929-0.05518-0.33633 0-0.1663 0.05518-0.33484 0.05518-0.16853 0.16779-0.34453z"/><path d="m16.235 291.85h0.13722l0.17152 0.65178 0.17077-0.65178h0.16182l0.17152 0.65178 0.17077-0.65178h0.13722l-0.2185 0.83523h-0.16182l-0.17972-0.68459-0.18047 0.68459h-0.16182z"/><path d="m17.945 292.27q-0.1663 0-0.23043 0.038-0.06413 0.038-0.06413 0.12976 0 0.0731 0.04773 0.11633 0.04847 0.0425 0.13125 0.0425 0.1141 0 0.1827-0.0805 0.06935-0.0813 0.06935-0.21552v-0.0306zm0.27368-0.0567v0.47653h-0.13722v-0.12678q-0.04698 0.0761-0.11708 0.11261-0.0701 0.0358-0.17152 0.0358-0.12827 0-0.20433-0.0716-0.07532-0.0723-0.07532-0.19314 0-0.14095 0.09396-0.21254 0.09471-0.0716 0.28189-0.0716h0.1924v-0.0134q0-0.0947-0.06264-0.14616-0.0619-0.0522-0.1745-0.0522-0.07159 0-0.13945 0.0172-0.06786 0.0172-0.1305 0.0514v-0.12677q0.07532-0.0291 0.14616-0.0433 0.07084-0.0149 0.13796-0.0149 0.18121 0 0.2707 0.094 0.08949 0.094 0.08949 0.28487z"/><path d="m18.637 291.62v0.23714h0.28263v0.10664h-0.28263v0.45341q0 0.10217 0.02759 0.13125 0.02834 0.0291 0.1141 0.0291h0.14094v0.11485h-0.14094q-0.15884 0-0.21925-0.0589-0.0604-0.0597-0.0604-0.21626v-0.45341h-0.10068v-0.10664h0.10068v-0.23714z"/><path d="m19.702 291.89v0.12827q-0.05817-0.0321-0.11708-0.0477-0.05817-0.0164-0.11783-0.0164-0.13349 0-0.20731 0.085-0.07383 0.0843-0.07383 0.23714 0 0.15288 0.07383 0.23789 0.07383 0.0843 0.20731 0.0843 0.05966 0 0.11783-0.0157 0.05891-0.0164 0.11708-0.0485v0.12677q-0.05742 0.0269-0.11932 0.0403-0.06115 0.0134-0.1305 0.0134-0.18867 0-0.29979-0.11857-0.11111-0.11857-0.11111-0.31992 0-0.20433 0.11186-0.32141 0.11261-0.11708 0.30799-0.11708 0.06339 0 0.12379 0.0134 0.0604 0.0127 0.11708 0.0388z"/><path d="m20.637 292.18v0.50412h-0.13722v-0.49965q0-0.11857-0.04624-0.17748-0.04624-0.0589-0.13871-0.0589-0.11111 0-0.17525 0.0708-0.06413 0.0709-0.06413 0.19315v0.47205h-0.13796v-1.1604h0.13796v0.4549q0.04922-0.0753 0.11559-0.1126 0.06712-0.0373 0.15437-0.0373 0.14393 0 0.21776 0.0895 0.07383 0.0887 0.07383 0.26175z"/><path d="m21.3 291.85h0.14542l0.26101 0.70099 0.26101-0.70099h0.14542l-0.31321 0.83523h-0.18643z"/><path d="m23.016 292.24v0.0671h-0.63089q0.0089 0.14169 0.08501 0.21626 0.07681 0.0738 0.21328 0.0738 0.07905 0 0.15288-0.0194 0.07457-0.0194 0.14766-0.0582v0.12976q-0.07383 0.0313-0.15138 0.0477-0.07756 0.0164-0.15735 0.0164-0.19986 0-0.31694-0.11633-0.11634-0.11634-0.11634-0.3147 0-0.20508 0.11037-0.32514 0.11112-0.12081 0.29904-0.12081 0.16854 0 0.26623 0.10888 0.09844 0.10813 0.09844 0.29456zm-0.13722-0.0403q-0.0015-0.1126-0.06339-0.17972-0.06115-0.0671-0.16257-0.0671-0.11484 0-0.1842 0.0649-0.06861 0.0649-0.07905 0.18271z"/><path d="m23.726 291.98q-0.02312-0.0134-0.05071-0.0194-0.02685-7e-3 -0.05966-7e-3 -0.11634 0-0.17898 0.0761-0.0619 0.0753-0.0619 0.21701v0.43999h-0.13796v-0.83523h0.13796v0.12976q0.04325-0.0761 0.11261-0.1126 0.06935-0.0373 0.16854-0.0373 0.01417 0 0.03132 2e-3 0.01715 1e-3 0.03803 5e-3z"/><path d="m24.218 292.77q-0.05817 0.14915-0.11335 0.19464-0.05518 0.0455-0.14766 0.0455h-0.10962v-0.11484h0.08054q0.05668 0 0.088-0.0269 0.03132-0.0268 0.06935-0.12677l0.02461-0.0627-0.33782-0.8218h0.14542l0.26101 0.65327 0.26101-0.65327h0.14542z"/><path d="m25.862 291.89v0.12827q-0.05817-0.0321-0.11708-0.0477-0.05817-0.0164-0.11783-0.0164-0.13349 0-0.20731 0.085-0.07383 0.0843-0.07383 0.23714 0 0.15288 0.07383 0.23789 0.07383 0.0843 0.20731 0.0843 0.05966 0 0.11783-0.0157 0.05891-0.0164 0.11708-0.0485v0.12677q-0.05742 0.0269-0.11932 0.0403-0.06115 0.0134-0.1305 0.0134-0.18867 0-0.29978-0.11857-0.11112-0.11857-0.11112-0.31992 0-0.20433 0.11186-0.32141 0.11261-0.11708 0.30799-0.11708 0.06339 0 0.12379 0.0134 0.0604 0.0127 0.11708 0.0388z"/><path d="m26.102 291.53h0.13722v1.1604h-0.13722z"/><path d="m26.849 291.95q-0.11037 0-0.1745 0.0865-0.06413 0.0858-0.06413 0.23565 0 0.14989 0.06339 0.2364 0.06413 0.0858 0.17525 0.0858 0.10962 0 0.17376-0.0865 0.06413-0.0865 0.06413-0.23565 0-0.1484-0.06413-0.23491-0.06413-0.0872-0.17376-0.0872zm0-0.11633q0.17898 0 0.28114 0.11633 0.10217 0.11634 0.10217 0.32216 0 0.20508-0.10217 0.32216-0.10217 0.11633-0.28114 0.11633-0.17972 0-0.28189-0.11633-0.10142-0.11708-0.10142-0.32216 0-0.20582 0.10142-0.32216 0.10217-0.11633 0.28189-0.11633z"/><path d="m27.992 291.88v0.12976q-0.05817-0.0298-0.12081-0.0447-0.06264-0.0149-0.12976-0.0149-0.10217 0-0.15362 0.0313-0.05071 0.0313-0.05071 0.094 0 0.0477 0.03654 0.0753 0.03654 0.0268 0.14691 0.0515l0.04698 0.0104q0.14616 0.0313 0.20731 0.0887 0.0619 0.0567 0.0619 0.15884 0 0.11634-0.09247 0.1842-0.09173 0.0679-0.2528 0.0679-0.06712 0-0.1402-0.0134-0.07234-0.0127-0.15288-0.0388v-0.14169q0.07606 0.0395 0.14989 0.0597 0.07383 0.0194 0.14616 0.0194 0.09695 0 0.14915-0.0328 0.0522-0.0336 0.0522-0.094 0-0.0559-0.03803-0.0858-0.03729-0.0298-0.16481-0.0574l-0.04773-0.0112q-0.12752-0.0269-0.1842-0.082-0.05668-0.0559-0.05668-0.15288 0-0.11782 0.08352-0.18196 0.08352-0.0641 0.23714-0.0641 0.07606 0 0.14318 0.0112 0.06712 0.0112 0.12379 0.0336z"/><path d="m28.97 292.24v0.0671h-0.63089q0.0089 0.14169 0.08501 0.21626 0.07681 0.0738 0.21328 0.0738 0.07905 0 0.15288-0.0194 0.07457-0.0194 0.14766-0.0582v0.12976q-0.07383 0.0313-0.15138 0.0477-0.07756 0.0164-0.15735 0.0164-0.19986 0-0.31694-0.11633-0.11634-0.11634-0.11634-0.3147 0-0.20508 0.11037-0.32514 0.11112-0.12081 0.29904-0.12081 0.16854 0 0.26623 0.10888 0.09844 0.10813 0.09844 0.29456zm-0.13722-0.0403q-0.0015-0.1126-0.06339-0.17972-0.06115-0.0671-0.16257-0.0671-0.11484 0-0.1842 0.0649-0.06861 0.0649-0.07905 0.18271z"/><path d="m29.196 291.53h0.13722v1.1604h-0.13722z"/><path d="m29.967 292.77q-0.05817 0.14915-0.11335 0.19464-0.05518 0.0455-0.14766 0.0455h-0.10962v-0.11484h0.08054q0.05668 0 0.088-0.0269 0.03132-0.0268 0.06935-0.12677l0.02461-0.0627-0.33782-0.8218h0.14542l0.26101 0.65327 0.26101-0.65327h0.14542z"/><path d="m31.432 291.53v0.1141h-0.13125q-0.07383 0-0.10291 0.0298-0.02834 0.0298-0.02834 0.10739v0.0738h0.22596v0.10664h-0.22596v0.72859h-0.13796v-0.72859h-0.13125v-0.10664h0.13125v-0.0582q0-0.13946 0.06488-0.20284 0.06488-0.0641 0.20582-0.0641z"/><path d="m31.87 291.95q-0.11037 0-0.1745 0.0865-0.06413 0.0858-0.06413 0.23565 0 0.14989 0.06339 0.2364 0.06413 0.0858 0.17525 0.0858 0.10962 0 0.17376-0.0865 0.06413-0.0865 0.06413-0.23565 0-0.1484-0.06413-0.23491-0.06413-0.0872-0.17376-0.0872zm0-0.11633q0.17898 0 0.28114 0.11633 0.10217 0.11634 0.10217 0.32216 0 0.20508-0.10217 0.32216-0.10216 0.11633-0.28114 0.11633-0.17972 0-0.28189-0.11633-0.10142-0.11708-0.10142-0.32216 0-0.20582 0.10142-0.32216 0.10217-0.11633 0.28189-0.11633z"/><path d="m32.964 291.98q-0.02312-0.0134-0.05071-0.0194-0.02685-7e-3 -0.05966-7e-3 -0.11634 0-0.17898 0.0761-0.0619 0.0753-0.0619 0.21701v0.43999h-0.13796v-0.83523h0.13796v0.12976q0.04325-0.0761 0.11261-0.1126 0.06935-0.0373 0.16854-0.0373 0.01417 0 0.03132 2e-3 0.01715 1e-3 0.03803 5e-3z"/><path d="m33.731 291.62v0.23714h0.28263v0.10664h-0.28263v0.45341q0 0.10217 0.02759 0.13125 0.02834 0.0291 0.1141 0.0291h0.14094v0.11485h-0.14094q-0.15884 0-0.21925-0.0589-0.0604-0.0597-0.0604-0.21626v-0.45341h-0.10067v-0.10664h0.10067v-0.23714z"/><path d="m34.889 292.18v0.50412h-0.13722v-0.49965q0-0.11857-0.04624-0.17748-0.04624-0.0589-0.13871-0.0589-0.11111 0-0.17525 0.0708-0.06413 0.0709-0.06413 0.19315v0.47205h-0.13796v-1.1604h0.13796v0.4549q0.04922-0.0753 0.11559-0.1126 0.06712-0.0373 0.15437-0.0373 0.14393 0 0.21775 0.0895 0.07383 0.0887 0.07383 0.26175z"/><path d="m35.879 292.24v0.0671h-0.63089q0.0089 0.14169 0.08501 0.21626 0.07681 0.0738 0.21328 0.0738 0.07905 0 0.15288-0.0194 0.07457-0.0194 0.14766-0.0582v0.12976q-0.07383 0.0313-0.15138 0.0477-0.07756 0.0164-0.15735 0.0164-0.19986 0-0.31694-0.11633-0.11633-0.11634-0.11633-0.3147 0-0.20508 0.11037-0.32514 0.11112-0.12081 0.29904-0.12081 0.16854 0 0.26623 0.10888 0.09844 0.10813 0.09844 0.29456zm-0.13722-0.0403q-0.0015-0.1126-0.06339-0.17972-0.06115-0.0671-0.16257-0.0671-0.11484 0-0.1842 0.0649-0.06861 0.0649-0.07905 0.18271z"/><path d="m37.074 291.98q-0.02312-0.0134-0.05071-0.0194-0.02685-7e-3 -0.05966-7e-3 -0.11634 0-0.17898 0.0761-0.0619 0.0753-0.0619 0.21701v0.43999h-0.13796v-0.83523h0.13796v0.12976q0.04325-0.0761 0.11261-0.1126 0.06935-0.0373 0.16854-0.0373 0.01417 0 0.03132 2e-3 0.01715 1e-3 0.03803 5e-3z"/><path d="m37.901 292.24v0.0671h-0.63089q0.0089 0.14169 0.08501 0.21626 0.07681 0.0738 0.21328 0.0738 0.07905 0 0.15288-0.0194 0.07457-0.0194 0.14766-0.0582v0.12976q-0.07383 0.0313-0.15138 0.0477-0.07756 0.0164-0.15735 0.0164-0.19986 0-0.31694-0.11633-0.11634-0.11634-0.11634-0.3147 0-0.20508 0.11037-0.32514 0.11111-0.12081 0.29904-0.12081 0.16854 0 0.26623 0.10888 0.09844 0.10813 0.09844 0.29456zm-0.13722-0.0403q-0.0015-0.1126-0.06339-0.17972-0.06115-0.0671-0.16257-0.0671-0.11484 0-0.1842 0.0649-0.06861 0.0649-0.07905 0.18271z"/><path d="m38.777 292.01q0.05146-0.0925 0.12305-0.13647 0.07159-0.044 0.16854-0.044 0.1305 0 0.20135 0.0917 0.07085 0.091 0.07085 0.25952v0.50412h-0.13796v-0.49965q0-0.12006-0.04251-0.17823-0.04251-0.0582-0.12976-0.0582-0.10664 0-0.16854 0.0708-0.0619 0.0709-0.0619 0.19315v0.47205h-0.13796v-0.49965q0-0.1208-0.04251-0.17823-0.04251-0.0582-0.13125-0.0582-0.10515 0-0.16704 0.0716-0.0619 0.0708-0.0619 0.1924v0.47205h-0.13796v-0.83523h0.13796v0.12976q0.04698-0.0768 0.11261-0.11335 0.06562-0.0365 0.15586-0.0365 0.09098 0 0.15437 0.0462 0.06413 0.0462 0.09471 0.13424z"/><path d="m39.939 291.95q-0.11037 0-0.1745 0.0865-0.06413 0.0858-0.06413 0.23565 0 0.14989 0.06339 0.2364 0.06413 0.0858 0.17525 0.0858 0.10962 0 0.17376-0.0865 0.06413-0.0865 0.06413-0.23565 0-0.1484-0.06413-0.23491-0.06413-0.0872-0.17376-0.0872zm0-0.11633q0.17898 0 0.28114 0.11633 0.10216 0.11634 0.10216 0.32216 0 0.20508-0.10216 0.32216-0.10217 0.11633-0.28114 0.11633-0.17972 0-0.28189-0.11633-0.10142-0.11708-0.10142-0.32216 0-0.20582 0.10142-0.32216 0.10217-0.11633 0.28189-0.11633z"/><path d="m40.45 291.85h0.14542l0.26101 0.70099 0.26101-0.70099h0.14542l-0.31321 0.83523h-0.18643z"/><path d="m41.832 292.27q-0.1663 0-0.23043 0.038-0.06413 0.038-0.06413 0.12976 0 0.0731 0.04773 0.11633 0.04847 0.0425 0.13125 0.0425 0.1141 0 0.1827-0.0805 0.06935-0.0813 0.06935-0.21552v-0.0306zm0.27368-0.0567v0.47653h-0.13722v-0.12678q-0.04698 0.0761-0.11708 0.11261-0.0701 0.0358-0.17152 0.0358-0.12827 0-0.20433-0.0716-0.07532-0.0723-0.07532-0.19314 0-0.14095 0.09396-0.21254 0.09471-0.0716 0.28189-0.0716h0.1924v-0.0134q0-0.0947-0.06264-0.14616-0.0619-0.0522-0.1745-0.0522-0.07159 0-0.13945 0.0172-0.06786 0.0172-0.1305 0.0514v-0.12677q0.07532-0.0291 0.14616-0.0433 0.07084-0.0149 0.13796-0.0149 0.18121 0 0.2707 0.094 0.08949 0.094 0.08949 0.28487z"/><path d="m42.389 291.53h0.13722v1.1604h-0.13722z"/><path d="m43.623 291.95q-0.11037 0-0.1745 0.0865-0.06413 0.0858-0.06413 0.23565 0 0.14989 0.06339 0.2364 0.06413 0.0858 0.17525 0.0858 0.10962 0 0.17376-0.0865 0.06413-0.0865 0.06413-0.23565 0-0.1484-0.06413-0.23491-0.06413-0.0872-0.17376-0.0872zm0-0.11633q0.17898 0 0.28114 0.11633 0.10217 0.11634 0.10217 0.32216 0 0.20508-0.10217 0.32216-0.10216 0.11633-0.28114 0.11633-0.17972 0-0.28189-0.11633-0.10142-0.11708-0.10142-0.32216 0-0.20582 0.10142-0.32216 0.10217-0.11633 0.28189-0.11633z"/><path d="m44.655 291.53v0.1141h-0.13125q-0.07383 0-0.10291 0.0298-0.02834 0.0298-0.02834 0.10739v0.0738h0.22596v0.10664h-0.22596v0.72859h-0.13796v-0.72859h-0.13125v-0.10664h0.13125v-0.0582q0-0.13946 0.06488-0.20284 0.06488-0.0641 0.20582-0.0641z"/><path d="m45.391 291.62v0.23714h0.28263v0.10664h-0.28263v0.45341q0 0.10217 0.02759 0.13125 0.02834 0.0291 0.1141 0.0291h0.14094v0.11485h-0.14094q-0.15884 0-0.21925-0.0589-0.0604-0.0597-0.0604-0.21626v-0.45341h-0.10067v-0.10664h0.10067v-0.23714z"/><path d="m46.55 292.18v0.50412h-0.13722v-0.49965q0-0.11857-0.04623-0.17748-0.04624-0.0589-0.13871-0.0589-0.11111 0-0.17525 0.0708-0.06413 0.0709-0.06413 0.19315v0.47205h-0.13796v-1.1604h0.13796v0.4549q0.04922-0.0753 0.11559-0.1126 0.06712-0.0373 0.15437-0.0373 0.14393 0 0.21776 0.0895 0.07383 0.0887 0.07383 0.26175z"/><path d="m46.825 291.85h0.13722v0.83523h-0.13722zm0-0.32514h0.13722v0.17376h-0.13722z"/><path d="m47.781 291.88v0.12976q-0.05817-0.0298-0.12081-0.0447-0.06264-0.0149-0.12976-0.0149-0.10216 0-0.15362 0.0313-0.05071 0.0313-0.05071 0.094 0 0.0477 0.03654 0.0753 0.03654 0.0268 0.14691 0.0515l0.04698 0.0104q0.14616 0.0313 0.20731 0.0887 0.0619 0.0567 0.0619 0.15884 0 0.11634-0.09247 0.1842-0.09172 0.0679-0.2528 0.0679-0.06712 0-0.1402-0.0134-0.07234-0.0127-0.15288-0.0388v-0.14169q0.07606 0.0395 0.14989 0.0597 0.07383 0.0194 0.14616 0.0194 0.09695 0 0.14915-0.0328 0.0522-0.0336 0.0522-0.094 0-0.0559-0.03803-0.0858-0.03729-0.0298-0.16481-0.0574l-0.04773-0.0112q-0.12752-0.0269-0.1842-0.082-0.05668-0.0559-0.05668-0.15288 0-0.11782 0.08352-0.18196 0.08352-0.0641 0.23714-0.0641 0.07606 0 0.14318 0.0112 0.06712 0.0112 0.12379 0.0336z"/><path d="m49.063 291.88v0.12976q-0.05817-0.0298-0.12081-0.0447-0.06264-0.0149-0.12976-0.0149-0.10217 0-0.15362 0.0313-0.05071 0.0313-0.05071 0.094 0 0.0477 0.03654 0.0753 0.03654 0.0268 0.14691 0.0515l0.04698 0.0104q0.14616 0.0313 0.20732 0.0887 0.0619 0.0567 0.0619 0.15884 0 0.11634-0.09247 0.1842-0.09172 0.0679-0.2528 0.0679-0.06712 0-0.1402-0.0134-0.07234-0.0127-0.15288-0.0388v-0.14169q0.07606 0.0395 0.14989 0.0597 0.07383 0.0194 0.14616 0.0194 0.09695 0 0.14915-0.0328 0.0522-0.0336 0.0522-0.094 0-0.0559-0.03803-0.0858-0.03729-0.0298-0.16481-0.0574l-0.04773-0.0112q-0.12752-0.0269-0.1842-0.082-0.05668-0.0559-0.05668-0.15288 0-0.11782 0.08352-0.18196 0.08352-0.0641 0.23714-0.0641 0.07606 0 0.14318 0.0112 0.06712 0.0112 0.12379 0.0336z"/><path d="m49.327 291.85h0.13722v0.83523h-0.13722zm0-0.32514h0.13722v0.17376h-0.13722z"/><path d="m50.301 292.26q0-0.14915-0.0619-0.23118-0.06115-0.082-0.17226-0.082-0.11037 0-0.17226 0.082-0.06115 0.082-0.06115 0.23118 0 0.1484 0.06115 0.23043 0.0619 0.082 0.17226 0.082 0.11111 0 0.17226-0.082 0.0619-0.082 0.0619-0.23043zm0.13722 0.32365q0 0.21328-0.09471 0.31694-0.09471 0.1044-0.29009 0.1044-0.07234 0-0.13647-0.0112-0.06413-0.0104-0.12454-0.0328v-0.13348q0.06041 0.0328 0.11932 0.0485 0.05891 0.0157 0.12006 0.0157 0.13498 0 0.2021-0.0709 0.06712-0.0701 0.06712-0.21253v-0.0679q-0.04251 0.0738-0.10888 0.11037-0.06637 0.0365-0.15884 0.0365-0.15362 0-0.24758-0.11708-0.09396-0.11708-0.09396-0.31023 0-0.19389 0.09396-0.31097t0.24758-0.11708q0.09247 0 0.15884 0.0365 0.06637 0.0365 0.10888 0.11037v-0.12678h0.13722z"/><path d="m51.415 292.18v0.50412h-0.13722v-0.49965q0-0.11857-0.04624-0.17748-0.04624-0.0589-0.13871-0.0589-0.11111 0-0.17525 0.0708-0.06413 0.0709-0.06413 0.19315v0.47205h-0.13796v-0.83523h0.13796v0.12976q0.04922-0.0753 0.11559-0.1126 0.06712-0.0373 0.15437-0.0373 0.14393 0 0.21775 0.0895 0.07383 0.0887 0.07383 0.26175z"/><path d="m51.668 291.53h0.11932q0.11186 0.176 0.16704 0.34453 0.05593 0.16854 0.05593 0.33484 0 0.16704-0.05593 0.33633-0.05518 0.16928-0.16704 0.34453h-0.11932q0.09918-0.17078 0.14766-0.33931 0.04922-0.16929 0.04922-0.34155 0-0.17227-0.04922-0.34006-0.04847-0.16779-0.14766-0.33931z"/></g></g></svg>
