<?xml version="1.0" encoding="UTF-8"?>
<svg width="112pc" height="112pc" version="1.1" viewBox="0 0 1792 1792" xmlns="http://www.w3.org/2000/svg"><g transform="matrix(39.518 0 0 39.518 -52.447 -39728)"><g transform="matrix(-1,0,0,1,48,0)"><path transform="matrix(-.036722 0 0 .036722 52.202 995.08)" d="m185.55 286.5a34.043 34.043 0 0 0-27.551 55.26l97.998 126.82c-3.4863 9.1033-5.4004 18.997-5.4004 29.355v190.62c0 45.259 36.434 81.695 81.693 81.695h871.41c45.259 0 81.695-36.436 81.695-81.695v-190.62c0-10.361-1.9162-20.258-5.4043-29.363l97.996-126.82a34.043 34.043 0 0 0-27.553-55.26 34.043 34.043 0 0 0-26.326 13.615l-93.279 120.71c-8.4826-2.9675-17.608-4.584-27.129-4.584h-871.41c-9.5223 0-18.649 1.6173-27.133 4.5859l-93.281-120.72a34.043 34.043 0 0 0-26.326-13.615zm320.34 231.86a91.907 91.907 0 0 1 91.906 91.906 91.907 91.907 0 0 1-91.906 91.908 91.907 91.907 0 0 1-91.908-91.908 91.907 91.907 0 0 1 91.908-91.906zm531.02 0a91.907 91.907 0 0 1 91.908 91.906 91.907 91.907 0 0 1-91.908 91.908 91.907 91.907 0 0 1-91.906-91.908 91.907 91.907 0 0 1 91.906-91.906z" color="#000000" color-rendering="auto" dominant-baseline="auto" fill-rule="evenodd" image-rendering="auto" shape-rendering="auto" solid-color="#000000" style="font-feature-settings:normal;font-variant-alternates:normal;font-variant-caps:normal;font-variant-ligatures:normal;font-variant-numeric:normal;font-variant-position:normal;isolation:auto;mix-blend-mode:normal;shape-padding:0;text-decoration-color:#000000;text-decoration-line:none;text-decoration-style:solid;text-indent:0;text-orientation:mixed;text-transform:none;white-space:normal"/></g><path transform="matrix(.03167 0 0 .03167 -.92412 997.9)" d="m281.79 835.54c-52.479 0-94.727 42.248-94.727 94.727v631.51c0 52.479 42.248 94.729 94.727 94.729h1010.4c52.479 0 94.726-42.25 94.726-94.729v-631.51c0-52.479-42.248-94.727-94.726-94.727zm505.21 78.939c182.75 0 331.54 148.79 331.54 331.54s-148.79 331.54-331.54 331.54-331.54-148.79-331.54-331.54 148.79-331.54 331.54-331.54zm0 60.006c-150.33 0-271.54 121.21-271.54 271.54s121.21 271.54 271.54 271.54 271.54-121.21 271.54-271.54-121.21-271.54-271.54-271.54zm0 74.191c108.43 0 197.35 88.916 197.35 197.35s-88.918 197.35-197.35 197.35c-93.214 0-171.83-65.798-192.11-153.13h99.6c16.37 34.636 51.224 58.402 92.506 58.402 57.237 0 102.62-45.384 102.62-102.62s-45.384-102.62-102.62-102.62c-38.687 0-71.55 21-89.053 52.113h-101.45c22.527-84.172 99.543-146.84 190.5-146.84z"/></g></svg>
