<?xml version="1.0" encoding="UTF-8"?>
<svg width="96pc" height="96pc" version="1.1" viewBox="0 0 406.4 406.4" xmlns="http://www.w3.org/2000/svg"><path d="m306.26 340.79c26.617-15.024 43.092-39.526 43.092-77.235 2.5085-55.228-32.312-80.326-57.194-116.76-31.322-45.885-39.567-85.506-46.617-81.94-1.3695 0.69153 2.1831 22.617 13.22 52.177 2.6848 7.2136 20.746 49.94 23.417 56.299 22.021 52.462 37.478 115.74-3.5526 164.29-2.5085 2.9695-5.1526 5.7357-7.9188 8.2984-22.78 21.288 27.282-0.44747 35.553-5.1255zm-120.68 34.305c-1.2746 0.80004-2.617 1.6-3.9865 2.4-12.109 6.9696-22.888 10.97-24.095 8.8815-1.1932-2.0746 7.6476-9.4238 19.756-16.421 9.4916-5.478 11.932-3.3899 25.424-3.4984 11.349-0.0949 16.285-2.3865 26.482 3.4984 12.109 6.9831 20.949 14.346 19.756 16.421-1.2068 2.0746-11.987-1.8983-24.095-8.895-1.6543-0.94917-3.2543-1.9255-4.7729-2.8746 10.102 12.041 16.258 22.482 14.143 24.38-2.2373 1.9932-12.963-6.2645-24.543-18.766-0.73221 14.997-3.1458 26.21-5.9119 26.183-2.8746-0.028-5.1526-12.231-5.478-28.217-12.285 13.627-24.027 22.902-26.4 20.8-2.1017-1.8848 3.8644-12.054 13.722-23.892zm-4.895-365.94c3.3085-15.241 11.837-10.346 11.132 6.617-1.356 32.76-3.6204 59.418-6.4679 81.764 9.5323-30.278 18.549-58.333 22.902-81.167 4.5967-24.149 16.936-4.0814 17.614 19.2 10.576 70.197 27.227 109.85 40.651 141.82 11.824 28.163 21.085 52.502 21.085 84.503v-2.2102h0.0121c0 36.448-12.312 62.089-30.034 78.55-7.7424 7.2001-16.556 12.692-25.817 16.556-12.204 5.1119-20.448 8.1221-31.716-0.012-2.7119-1.9797-5.3696-4.3797-7.9052-7.2543-29.166-23.743-39.417-57.668-39.404-95.703-0.21696 3.7424-0.32542 7.634-0.32542 11.702 0 15.024 1.2746 28.448 3.5526 40.245 3.2814 17.071 8.2984 31.024 15.309 41.275 11.268 16.461 10.888 15.146-13.085 10.983-3.539-0.61019-6.8611-1.9119-10.17-3.0102-24.543-8.1764-53.506-20.556-74.699-38.021 6.5357 9.7899 14.658 18.522 23.892 26.319 13.166 11.092 13.763 14.387-10.224 5.5458-47.675-17.546-80.259-49.316-71.974-107.3 6.3187-44.285 38.197-61.913 67.838-89.547 65.56-61.194 31.485-18.726-2.4678 24.99-10.454 13.437-17.505 28.055-21.329 45.234 25.329-37.126 75.187-78.794 99.716-145.82 9.4645-17.668 16.231-39.106 21.912-65.262zm142.36 147.17c33.831 25.004 62.238 46.794 68.326 83.242 5.3289 31.96-5.9526 57.804-27.716 77.031-9.7628 8.6238-28.055 28.258-7.7018-6.2238 7.3899-12.542 9.8984-28.57 9.8984-46.821 0-46.4-22.292-71.919-47.58-100.87-12.109-12.692-10.17-17.41 4.773-6.3594z" fill-rule="evenodd" stroke-width="13.559"/></svg>
