<?xml version="1.0" encoding="UTF-8"?>
<svg width="112pc" height="112pc" version="1.1" viewBox="0 0 1792 1792" xmlns="http://www.w3.org/2000/svg"><path d="m440.41 0h911.19c243.99 0 440.41 196.42 440.41 440.41v911.19c0 243.99-196.42 440.41-440.41 440.41h-911.19c-243.99 0-440.41-196.42-440.41-440.41v-911.19c0-243.99 196.42-440.41 440.41-440.41z" stroke-width="1.2311"/><path d="m207.42 1229.8h114.95v-489.35h-114.95zm57.246-553.53c36.009 0 64.17-27.7 64.17-62.323 0-35.086-28.161-62.785-64.17-62.785-35.548 0-63.708 27.7-63.708 62.785 0 34.625 28.161 62.323 63.708 62.323zm440.43-123.73c-194.35 0-316.23 132.49-316.23 344.4s121.86 343.94 316.23 343.94c193.89 0 315.77-132.03 315.77-343.94 0-211.91-121.86-344.4-315.77-344.4zm0 101.57c118.65 0 194.35 94.171 194.35 242.83 0 148.19-75.71 242.37-194.35 242.37-119.11 0-194.35-94.172-194.35-242.37 0-148.66 75.25-242.83 194.35-242.83zm364.26 388.25c5.0781 122.81 105.72 198.51 258.99 198.51 161.12 0 262.69-79.402 262.69-205.9 0-99.252-57.246-155.12-192.51-186.04l-76.634-17.544c-81.713-19.389-115.42-45.242-115.42-89.564 0-55.399 50.782-92.325 126.03-92.325 76.173 0 128.34 37.395 133.88 99.71h113.57c-2.7699-117.26-99.71-196.67-246.52-196.67-144.97 0-247.92 79.867-247.92 198.05 0 95.095 58.169 154.2 180.97 182.35l86.329 20.314c84.017 19.851 118.19 47.55 118.19 95.56 0 55.398-55.86 95.094-136.18 95.094-81.248 0-142.65-40.164-150.03-101.57h-115.42z" fill="#fff" stroke-width="11.819"/></svg>
