<?xml version="1.0" encoding="UTF-8"?>
<svg width="112pc" height="112pc" version="1.1" viewBox="0 0 1792 1792" xmlns="http://www.w3.org/2000/svg"><path d="m8.3312 1326.3h148.19v-630.84h-148.19zm73.798-713.57c46.421 0 82.724-35.709 82.724-80.343 0-45.231-36.303-80.939-82.724-80.939-45.826 0-82.129 35.709-82.129 80.939 0 44.636 36.303 80.343 82.129 80.343zm567.78-159.5c-250.54 0-407.67 170.8-407.67 443.98 0 273.18 157.1 443.38 407.67 443.38 249.95 0 407.07-170.21 407.07-443.38 0-273.18-157.1-443.98-407.07-443.98zm0 130.94c152.95 0 250.54 121.4 250.54 313.04 0 191.04-97.601 312.45-250.54 312.45-153.55 0-250.54-121.4-250.54-312.45 0-191.64 97.007-313.04 250.54-313.04zm469.58 500.51c6.5465 158.32 136.29 255.91 333.87 255.91 207.7 0 338.64-102.36 338.64-265.43 0-127.95-73.798-199.97-248.17-239.83l-98.792-22.616c-105.34-24.995-148.79-58.323-148.79-115.46 0-71.417 65.465-119.02 162.47-119.02 98.198 0 165.45 48.207 172.59 128.54h146.41c-3.5709-151.17-128.54-253.53-317.8-253.53-186.88 0-319.6 102.96-319.6 255.31 0 122.59 74.988 198.78 233.29 235.08l111.29 26.187c108.31 25.591 152.36 61.298 152.36 123.19 0 71.416-72.012 122.59-175.56 122.59-104.74 0-183.89-51.777-193.41-130.94h-148.79z" stroke-width="15.236"/></svg>
