<?xml version="1.0" encoding="UTF-8"?>
<svg width="112pc" height="112pc" version="1.1" viewBox="0 0 1792 1792" xmlns="http://www.w3.org/2000/svg"><path d="m1581.6 1413.2c-12.599-13.999-18.548-40.597-25.198-68.944-6.2995-28.348-13.649-58.795-36.747-78.394-4.5497-3.8497-9.0993-7.3494-13.999-10.149-4.5496-2.7997-9.4492-5.2495-14.349-6.9994 32.197-95.542 19.598-190.73-12.949-276.83-39.897-105.34-109.54-197.38-162.74-260.38-59.845-75.244-117.94-146.64-116.89-251.98 1.7498-160.64 17.848-459.16-265.28-459.51-358.37-0.69994-268.78 361.87-272.63 473.16-5.9495 81.893-22.398 146.29-78.744 226.43-66.144 78.743-159.24 205.78-203.33 338.42-20.998 62.645-30.797 126.34-21.698 186.53-22.748 20.298-39.897 51.446-58.095 70.694-14.699 15.049-36.047 20.648-59.495 29.048s-48.996 20.998-64.745 50.746c-7.3494 13.649-9.7992 28.348-9.7992 43.396 0 13.649 2.0998 27.648 4.1996 41.297 4.1996 28.348 8.7493 54.945 2.7998 72.794-18.198 50.396-20.648 85.393-7.6994 110.94 13.299 25.548 39.897 36.747 70.344 43.046 60.545 12.599 142.79 9.4492 207.53 43.746 69.294 36.397 139.64 49.346 195.63 36.397 40.597-9.0993 73.844-33.597 90.642-70.694 43.746-0.3499 92.042-18.898 169.04-23.098 52.146-4.1997 117.59 18.548 192.83 14.349 2.0998 8.0493 4.8996 16.099 8.7492 23.448v0.35c29.048 58.445 83.293 85.043 141.04 80.493 58.095-4.5496 119.34-38.497 169.04-97.642 47.596-57.395 125.99-81.193 178.14-112.69 25.898-15.749 46.896-35.347 48.646-64.045 1.3999-28.698-15.399-60.545-54.246-103.94zm-686.99-1107.7c34.297-77.694 119.69-76.294 153.99-1.3999 22.748 49.696 12.599 108.14-15.049 141.39-5.5995-2.7998-20.648-9.0992-44.096-17.149 3.8496-4.1996 10.849-9.4492 13.649-16.099 16.799-41.297-0.6999-94.492-31.847-95.542-25.548-1.7499-48.646 37.797-41.297 80.493-14.349-6.9994-32.897-12.249-45.496-15.399-3.4997-24.148-1.0499-51.096 10.149-76.294zm-142.44-40.247c35.347 0 72.794 49.696 66.844 117.24-12.249 3.4997-24.848 8.7493-35.697 16.099 4.1997-31.147-11.549-70.344-33.597-68.594-29.398 2.4498-34.297 74.194-6.2995 98.342 3.4997 2.7998 6.6495-0.69994-20.648 19.248-54.595-51.096-36.747-182.33 29.398-182.33zm-43.17 237.44c21.698-16.099 43.119-29.36 44.92-31.057 16.398-15.452 47.246-49.696 97.642-49.696 24.848 0 54.596 8.0493 90.642 31.147 22.048 14.349 39.547 15.399 79.093 32.547 54.618 17.653-10.734 67.109-42.696 77.373-38.847 12.599-69.294 55.995-133.69 52.146-13.649-0.69994-24.498-3.4997-33.597-7.3494-27.998-12.249-42.696-36.397-69.994-52.496-22.388-14.869-48.696-38.039-32.321-52.616zm-15.637 1124.9c-9.4493 122.84-130.88 111.54-240.77 54.143-104.64-55.295-212.58-5.0452-240.23-58.941-8.3993-16.449-8.3993-34.331 9.0992-82.277v-0.6999c8.3993-26.598 2.0998-55.995-2.0998-83.643-4.1996-27.298-6.2995-52.496 3.1497-69.994 12.249-23.448 24.057-11.616 46.106-19.315 36.047-12.949 20.885-1.7831 48.183-24.531 19.248-19.948 33.247-45.146 50.046-62.995 17.849-19.248 33.598-28.348 60.545-24.148 28.348 4.1997 52.846 23.798 76.644 55.995l68.594 124.59c33.247 69.644 128.08 120.07 120.73 191.82zm17.861-98.23c-30.787-19.621-33.597-21.042-50.396-42.04 24.848 0 49.696-7.6994 58.445-31.148 8.0494-21.698 0-52.146-25.898-87.143-47.246-63.695-134.04-113.74-134.04-113.74-47.246-29.398-73.844-65.445-86.093-104.64 93.783-404.88-120.57-59.575 54.595 97.815 2.0998-72.444 19.248-213.31 48.296-282.25 41.996-95.892 130.54-249.61 137.54-381.9 3.8497 2.7998 16.099 11.199 21.698 14.349 16.099 9.4492 28.348 23.448 44.096 36.047 43.396 34.997 99.742 32.197 148.39 4.1996 21.698-12.249 39.197-26.248 55.645-31.497 34.647-10.849 62.295-30.098 78.044-52.496 26.948 106.39 89.942 247.51 130.19 322.4 21.348 39.897 64.045 158.22 82.593 260.06 149.46 61.543 112.15 16.005 85.043 12.919-68.594-30.098-125.99-30.098-134.04 43.746-42.346 14.699-64.045 51.446-74.894 95.542-9.7992 39.197-12.599 86.443-15.399 139.64-1.7498 26.948-12.599 36.441-23.798 74.938-112.34 80.143-268.43 115.14-400.02 25.198zm866.2-11.796c-3.1498 58.795-116.56 37.348-193.55 130.44-46.196 54.946-96.786 89.276-146.48 93.126-49.696 3.8497-72.855-16.582-98.053-67.327-16.449-38.847-5.9339-54.544 6.3152-100.74 12.949-49.696 32.197-100.79 34.647-142.09 2.7998-53.196 5.9495-99.742 14.699-135.44 9.0992-36.047 1.6391-39.173 26.487-52.822 1.0499-0.6999 2.4498-1.0499 3.4997-1.7499 2.7997 46.196 25.548 72.07 65.794 82.219 44.096 11.549 107.44-26.248 134.39-57.045 28.703 1.4089 26.563 9.5846 50.788 30.493 34.57 29.837 24.433 96.079 59.43 135.63 18.307 24.615 47.678 52.225 42.039 85.307z" fill="currentColor" stroke-width="3.4997"/></svg>
