<?xml version="1.0" encoding="UTF-8"?>
<svg width="112pc" height="112pc" version="1.1" viewBox="0 0 1792 1792" xmlns="http://www.w3.org/2000/svg"><g transform="matrix(1.1667 0 0 1.1667 5.3368e-6 -149.37)"><path d="m66.977 290.98c-37.105 0-66.977 29.871-66.977 66.977v1076.1c0 37.105 29.871 66.976 66.977 66.976h1402c37.105 0 66.977-29.871 66.977-66.976v-1076.1c0-37.105-29.871-66.977-66.977-66.977zm834.98 73.674h541.16c16.827 0 30.373 13.546 30.373 30.373v1002c0 16.827-13.546 30.373-30.373 30.373h-510.79c-16.266 0-29.464-12.658-30.326-28.701v-117.27c77.944-17.511 173.69-54.052 263.6-129.22 13.304-11.403 15.204-31.359 3.8008-44.662-6.2361-7.4832-15.278-11.358-24.42-11.344-7.1108 0.011-14.281 2.3744-20.24 7.2247-75.378 63.263-155.32 96.086-222.74 112.88v-120.26h-0.0469v-115.16h-229.95c67.954-375.04 120.4-550.11 229.95-616.19zm-523.31 171.91c19.789 0 35.721 15.931 35.721 35.721v142.88c0 19.789-15.931 35.721-35.721 35.721-19.789 0-35.721-15.931-35.721-35.721v-142.88c0-19.789 15.931-35.721 35.721-35.721zm12.455 559.59c7.0931 0.011 14.186 2.3744 20.006 7.2247 46.562 39.277 174.53 129.87 356.98 129.87 9.8192 0 22.172-0.3173 36.426-1.2676 1.7924-0.1258 3.64-0.2744 5.4941-0.4258v63.367c-16.553 1.3772-30.815 1.6758-41.92 1.6758-203.04 0-345.57-101.04-397.52-144.44-13.62-11.403-15.203-31.359-4.1172-44.662 6.4142-7.4832 15.535-11.358 24.654-11.344z" stroke-width="1.241"/><path d="m1157.4 536.56c19.789 0 35.721 15.932 35.721 35.721v142.88c0 19.789-15.932 35.721-35.721 35.721s-35.721-15.932-35.721-35.721v-142.88c0-19.789 15.932-35.721 35.721-35.721z" stroke-width="1.1761"/></g></svg>
