<?xml version="1.0" encoding="UTF-8"?>
<svg width="112pc" height="112pc" version="1.1" viewBox="0 0 1792 1792" xmlns="http://www.w3.org/2000/svg"><g transform="matrix(30.912 0 0 30.912 200.14 234.56)" fill-rule="evenodd"><path d="m-6.4747-7.1331v51.382c0 3.1373 2.5971 5.68 5.8008 5.68 3.2037 0 5.8008-2.5427 5.8008-5.68l0.00366-36.69c0.22599-2.9367 2.7239-5.2521 5.7742-5.2521 3.2001 0 5.7936 2.5463 5.7936 5.6872v22.252c0 3.1409 2.5934 5.686 5.7935 5.686 3.1989 0 5.7924-2.5451 5.7936-5.6848v-8.7991c0.38048-2.7777 2.8163-4.9197 5.7645-4.9197 3.211 0 5.8153 2.5426 5.8153 5.6799v2.8908c0 3.1361 2.6043 5.6787 5.8165 5.6787 3.211 0 5.8153-2.5427 5.8153-5.68v-32.225z" stroke-width="1.2085"/></g></svg>
