<?xml version="1.0" encoding="UTF-8"?>
<svg width="112pc" height="112pc" version="1.1" viewBox="0 0 1792 1792" xmlns="http://www.w3.org/2000/svg"><style type="text/css"/><g transform="matrix(.4148 0 0 -.4148 .069885 1582.7)"><path d="m834 3091.1s-12.27 28.54-46.871 9.44c-28.77-15.96-13.809-45.43-13.809-45.43l540.69-1143.3h131.16l-611.18 1179.3"/><path d="m2368.8 129.32-409.04 789.41h-176.15l410.89-868.81s41.41-81.774 130.26-36.57c88.82 45.199 44.06 115.97 44.06 115.97"/><path d="m3876.5 3169.4c-512.64 246.04-976.45 128.54-1495.2-26.7-522.23-156.2-986.75-240.74-1508.6-27.83 56.851-101.58 85.308-152.36 142.19-253.86 52.22-93.37 104.51-186.73 156.75-280.06 56.87-101.56 85.3-152.3 142.18-253.84 415.48-117.43 759.56 34.86 1128.8 219.44 443.36 221.52 843.83 420.81 1350.4 305.34-428.09 214.37-816.17 161.24-1263.8 39.8 438.24 223.1 850.84 396.62 1347.3 277.71"/><path d="m840.76 1344.5c0-85.64 0-168.57 2.629-212.09-9.2-15.74-46.082-30.3-77.68-30.3-1.332 0-44.801 67.2-106.69 143.63l-304.25 376.73c-75.051 94.85-119.84 148.83-143.55 168.6-6.571-13.15-6.571-35.53-6.571-84.28v-255.59c0-106.7 5.25-205.46 19.75-241.06 11.864-27.64 42.141-35.55 76.383-42.1l36.879-5.3c10.52-10.56 7.899-38.24 0-46.07-71.121 2.57-123.8 3.95-176.48 3.95-48.731 0-97.45-1.38-147.49-3.95-7.9102 7.83-10.543 35.51 0 46.07l22.379 3.96c35.559 7.91 60.57 15.8 72.418 43.44 13.172 35.6 18.453 134.36 18.453 241.06v334.61c0 72.42 0 93.48-9.222 111.93-9.231 22.4-28.981 35.59-75.078 44.79l-36.859 5.29c-9.2227 10.54-7.9102 42.15 5.25 46.08 61.91-2.57 127.75-3.93 181.77-3.93 44.769 0 82.969 1.32 110.63 3.94 13.191-59.27 98.789-159.35 217.31-300.33l110.63-130.42c59.277-68.5 96.149-114.56 126.46-144.9 5.262 13.2 5.262 35.62 5.262 59.28v181.81c0 106.68-5.262 205.48-19.77 241.1-11.859 27.62-40.82 35.49-76.379 42.08l-35.57 5.29c-10.519 10.54-7.891 38.19 0 46.08 71.141-2.57 122.5-3.93 176.5-3.93 48.707 0 96.141 1.32 147.51 3.94 7.91-7.9 10.519-35.55 0-46.11l-23.707-3.93c-34.231-7.93-59.274-15.8-71.141-43.49-14.461-35.55-19.75-134.35-19.75-241.07v-314.83"/><path transform="matrix(2.8126 0 0 -2.8126 -.16822 4175.5)" d="m411.18 892.27c-58.53 0-101.14 45.903-101.14 104.92 0 51.049 34.177 95.559 97.393 95.559 28.098 0 62.746-13.599 81.949-53.416 0-7.9464-7.0259-11.689-12.178-10.758-12.64 21.553-30.433 24.35-43.549 24.35-43.543 0-66.025-34.186-66.025-69.32 0-7.4948 0.94353-8.4219 11.713-8.4219h89.908c14.51 0 16.85-6.5555 16.85-15.451 0-36.077-26.225-67.457-74.92-67.457zm-4.7578 21.141c0.53027 7e-3 1.0568 0.036 1.5781 0.0879 20.256 2.0169 23.971 13.834 25 23.375 1.9258 17.86-10.512 17.816-27.25 17.816-18.034 0-32.987 2.946-34.25-6.5664-1.8556-13.972 18.483-34.927 34.922-34.713z"/><path d="m1626.7 1576.3c-17.11 0-18.43-1.28-18.43-30.3v-197.53c0-73.81 0-155.49 92.19-155.49 18.44 0 39.5 9.21 55.33 19.74 13.14-3.92 21.05-18.4 18.4-34.22-36.87-39.5-107.98-76.43-189.63-76.43-109.33 0-147.51 63.25-147.51 150.24v293.69c0 27.7-1.32 30.3-25.03 30.3h-40.81c-14.5 5.37-18.45 31.64-7.92 40.89 40.82 14.44 77.7 38.19 109.32 59.24 23.7 17.11 56.64 44.75 97.46 102.8 9.2 5.23 32.93 3.88 39.52-6.62v-98.81c0-25.01 1.32-26.33 25.02-26.33h117.23c6.58-5.25 10.52-13.2 10.52-25.04 0-14.49-3.94-38.16-17.11-46.13h-118.56"/><path transform="matrix(2.8126 0 0 -2.8126 -.16822 4175.5)" d="m768.15 775.65c-46.836 0-81.018 1.8828-116.61 4.2188-7.0291 0.46932-6.0901 14.514-1.877 16.857l12.646 1.8848c19.665 2.3572 20.602 7.4985 20.602 54.789h0.01v165.33c0 42.153-2.8131 45.435-23.879 49.644l-13.58 2.8145c-3.7403 1.4043-3.7403 13.576 0 16.381 26.683-0.928 49.626-1.416 72.58-1.416 13.585 0 31.38 1.8926 48.232 1.8926 28.568 0 63.678-1.4051 93.191-11.705 29.492-10.314 55.246-35.612 54.773-78.707-0.47287-45.424-31.838-69.753-68.828-77.721-4.2167-0.95285-6.5703-2.3472-6.5703-3.748 0-2.3395 4.6854-4.2272 9.375-5.1445 14.513-3.7581 47.752-19.209 47.752-58.561 0-27.615-12.165-47.295-32.303-59.469-20.589-12.181-50.574-17.342-95.518-17.342zm-4.8262 19.902c91.78-0.18718 93.879 134.88-14.824 116.45-5.3095-33.09-5.864-72.398-2-115 5.9058-0.97207 11.515-1.4364 16.824-1.4473zm8.6211 135.97c97.063-0.49904 94.385 152.72-14.582 130.28-17.001-19.261-11.782-81.172-9.0718-127.31 8.4269-1.9909 16.313-2.933 23.654-2.9707z"/><path d="m2858.5 1099.5c-121.14 0-196.23 34.25-223.87 50.03-25.02 28.98-42.13 123.82-42.13 213.41 9.2 17.1 39.51 18.45 50.04 3.96 26.33-85.62 114.55-206.8 226.52-206.8 97.44 0 142.25 67.17 142.25 133.01 0 106.69-100.08 169.92-179.12 209.43-94.83 47.48-197.56 126.46-198.85 256.91 0 148.83 114.59 251.62 305.55 251.62 43.45 0 97.44-5.3 150.15-21.13 17.11-5.26 28.95-7.86 44.77-10.51 10.49-28.98 23.71-100.12 23.71-188.39-6.6-15.77-39.53-17.11-51.37-3.99-22.4 67.23-79.06 163.4-173.88 163.4-86.9 0-134.3-56.67-134.3-122.49 0-60.62 53.94-115.91 119.8-150.17l86.96-46.15c81.64-43.46 185.7-119.84 185.7-264.74 0-162.04-133.07-267.4-331.93-267.4"/><path transform="matrix(2.8126 0 0 -2.8126 -.16822 4175.5)" d="m1265.3 775.65c-49.644 0-86.16 1.8828-125.49 4.2188-5.6176 0.46932-5.6187 14.065-0.9434 16.408l8.8926 0.92969c21.542 2.343 22.48 11.238 22.48 55.727v165.8c0 43.099-2.8115 46.377-23.881 50.117l-14.514 2.3418c-3.7439 2.3394-3.7439 13.576 0 16.381 26.68-0.928 50.56-1.416 73.045-1.416 16.846 0 40.284 2.8164 62.281 2.8164 48.229 0 86.638-6.0646 118.48-22 53.843-26.687 83.809-77.278 83.809-140.05 0-58.533-33.702-113.8-95.051-135.81-32.319-11.69-70.707-15.465-109.1-15.465zm2.3672 21.18c13.436 0.0897 30.365 2.4307 47.865 8.0488 45.684 14.5 79.549 57.618 79.549 128.69 0 71.076-36.676 110.66-80.256 122.33-24.454 9.8995-65.824 4.0671-72.928-15.201-8.2568-22.396-5.914-77.901-5.914-107.13 0-51.723-4.2945-113.11 3.7149-129.87 2-4.1845 12.741-6.9747 27.969-6.873z"/><path d="m4083.4 1892.8c0 32.61 11.57 60.48 34.72 83.57 23.14 23.09 51.04 34.65 83.65 34.65 32.6 0 60.47-11.56 83.56-34.65 23.07-23.09 34.62-50.96 34.62-83.57 0-32.64-11.55-60.51-34.62-83.67-23.09-23.14-50.96-34.72-83.56-34.72-32.61 0-60.51 11.58-83.65 34.72-23.15 23.16-34.72 51.03-34.72 83.67zm217.17 0c0 27.32-9.62 50.62-28.9 69.91-19.28 19.27-42.56 28.92-69.9 28.92-27.32 0-50.66-9.65-69.99-28.92-19.34-19.29-29-42.59-29-69.91 0-27.33 9.66-50.66 29-70 19.33-19.3 42.67-28.99 69.99-28.99 27.34 0 50.62 9.69 69.9 28.99 19.28 19.34 28.9 42.67 28.9 70zm-62.07-71.19-37.09 62.7h-21.06v-62.7h-20.68v145.43h37.32c35.02 0 52.52-13.43 52.52-40.25 0-18.66-9.42-31.86-28.26-39.55l39.88-65.63zm-58.15 127.82v-48.62c1.74-0.24 6.28-0.33 13.6-0.33 13.5 0 22.59 1.72 27.24 5.18 4.66 3.47 6.99 10.07 6.99 19.83 0 16.08-10.48 24.12-31.42 24.12h-8.2l-8.21-0.18"/></g></svg>
