<?xml version="1.0" encoding="UTF-8"?>
<svg width="112pc" height="112pc" version="1.1" viewBox="0 0 1792 1792" xmlns="http://www.w3.org/2000/svg"><g transform="matrix(1.1667 0 0 1.1667 .0055977 -149.33)"><path d="m710.45 180.84c-19.406 0-45.409 91.404-54.418 125.43-36.37 4.973-76.786 11.858-106.04 19.512-19.536-33.646-64.164-106.47-81.928-101.71-19.946 5.3445-20.32 112.48-20.062 141.12-27.765 14.41-53.676 31.224-76.557 45.797-28.738-28.403-87.469-83.402-102.89-74.496-19.622 11.329 14.894 133.73 18.414 146.01-19.612 20.04-36.341 42.023-51.861 61.045-36.21-20.434-102.5-55.205-114.65-43.059-16.86 16.86 56.828 138.36 56.828 138.36-18.339 44.374-35.848 90.606-45.537 132.99-23.74-12.204-49.443-34.393-75.617-34.098-19.351 0.41588-37.98 10.654-48.404 28.709-15.884 27.512-6.5238 62.45 20.988 78.334l82.982 47.908-81.854 47.258c-27.512 15.884-36.876 50.82-20.992 78.332s50.822 36.874 78.334 20.99l43.18-24.93c13.123 48.538 29.657 100.2 46.92 138.79 0 0-73.688 121.51-56.828 138.37 12.146 12.146 78.436-22.624 114.65-43.059 17.257 22.326 33.823 42.218 51.861 61.045-3.5196 12.282-38.036 134.69-18.414 146.01 15.426 8.9061 74.157-46.093 102.89-74.496 25.836 17.534 50.449 31.987 76.557 45.797-0.25725 28.64 0.11651 135.77 20.062 141.12 17.763 4.7591 62.395-68.077 81.932-101.72 36.476 8.8997 73.954 16.45 106.03 19.524 9.0089 34.03 35.012 125.43 54.418 125.43 19.469 0 45.568-91.963 54.494-125.72 35.829-3.1811 71.294-9.6184 105.96-19.232 19.536 33.646 64.166 106.48 81.93 101.72 19.946-5.3449 20.32-112.48 20.062-141.12 26.634-13.32 52.225-28.629 76.557-45.797 28.738 28.403 87.469 83.402 102.89 74.496 19.621-11.328-14.894-133.73-18.414-146.01 18.645-19.155 35.971-39.55 51.861-61.045 36.21 20.434 102.5 55.205 114.65 43.059 16.86-16.86-56.826-138.37-56.826-138.37 22.291-52.882 42.98-113.59 51.344-163.55h40.357c25.181 99.994 25.55 170.63 104.03 170.63 61.111-3.1032 107.42-120.81 94.471-200.37-83.531 177.17-126.17 46.06-125.72-63.852-0.4448-109.91 41.982-241.47 125.72-63.85 12.75-78.315-33.872-199.89-94.471-200.37-92.576 0.61343-94.144 122.33-108.72 191.67h-33.121c-8.4753-73.915-29.023-142.17-51.417-184.59 0 0 71.211-121.5 54.351-138.36-12.146-12.146-78.436 22.624-114.65 43.059-17.407-22.898-33.613-42.154-51.861-61.045 3.5196-12.282 38.036-134.69 18.414-146.01-15.426-8.9058-74.154 46.088-102.89 74.492-26.274-17.785-49.897-32.201-76.559-45.793 0.2572-28.64-0.1166-135.77-20.062-141.12-17.763-4.7596-62.393 68.076-81.93 101.72-34.661-9.614-70.126-16.051-105.96-19.232-8.9264-33.762-35.025-125.72-54.494-125.72zm283.43 425.74c3.4956-0.0927 6.167 0.56346 7.7578 2.1543 14.545 14.545-49.025 119.37-49.025 119.37l-70.344-70.344s83.148-50.425 111.61-51.18zm-647.81 84.875h192.06c12.137 18.614 18.605 40.353 18.617 62.574 4.6e-4 63.34-51.347 114.69-114.69 114.69-63.34 4.6e-4 -114.69-51.347-114.69-114.69 0.0359-22.229 6.531-43.969 18.695-62.574zm637.48 162.26s119.07 29.171 119.07 49.74c0 20.57-119.07 49.74-119.07 49.74zm-66.941 210.18s63.568 104.82 49.023 119.37c-14.545 14.545-119.37-49.025-119.37-49.025z" stroke-width="8.3487"/><path d="m408 726.76a34.691 34.691 0 0 0-34.691 34.691 34.691 34.691 0 0 0 34.691 34.69 34.691 34.691 0 0 0 34.69-34.69 34.691 34.691 0 0 0-34.69-34.691z" stroke-width="9.812"/></g></svg>
