<?xml version="1.0" encoding="UTF-8"?>
<svg width="112pc" height="112pc" version="1.1" viewBox="0 0 1792 1792" xmlns="http://www.w3.org/2000/svg"><g transform="matrix(7.3488 0 0 -7.3488 839.19 788.88)" stroke-width="2.0548"><path d="m0 0c-5.436 5.189-10.655 10.292-14.424 16.118 10.821 17.852 35.603 29.491 42.766 32.567 3.799-3.851 13.994-12.784 28.251-14.54-5.911-2.066-42.886-15.562-56.593-34.145m16.23-40.668c-1.516-17.504-12.45-32.341-27.264-44.599 3.551 5.637 6.22 12.108 6.838 19.25 1.45 16.732-9.908 28.213-20.893 39.316-11.174 11.296-21.729 21.965-20.347 37.925 1.61 18.58 12.841 35.372 26.615 49.286-3.815-6.819-6.935-14.427-7.573-21.788-1.79-20.662 11.366-33.204 22.973-44.27 10.781-10.278 20.963-19.985 19.651-35.12m-75.392-72.687c15.585 11.429 27.804 25.866 34.681 41.551 4.45 10.149 6.28 20.036 5.471 29.174 5.498-6.816 9.224-14.045 8.462-22.836-1.929-22.273-28.501-38.167-28.882-38.392l0.016-0.026c-6.583-3.515-13.264-6.671-19.748-9.471m76.105 163.72c-10.345-5.332-25.504-14.743-34.753-27.782-1.847 4.586-2.743 9.682-2.232 15.587 1.5 17.306 19.64 37.524 22.497 40.61 10.631 7.899 20.769 13.98 27.665 17.816-4.986-10.403-12.16-28.227-13.177-46.231m109.34 5.306c-0.613 1.629-2.419 2.467-4.055 1.881l-23.258-8.298c-9.765-3.199-21.12-6.536-30.934-8.413-21.14-4.037-36.274 13.51-36.421 13.683-0.873 1.041-2.311 1.414-3.581 0.928-0.29-0.111-1.926-0.749-4.436-1.876 2.578 24.597 16.668 48.7 16.822 48.96 0.712 1.205 0.555 2.734-0.387 3.769s-2.448 1.334-3.715 0.739c-0.846-0.399-20.961-9.946-41.985-26.362-28.574-22.312-44.091-45.497-46.119-68.91-1.637-18.897 10.464-31.129 22.167-42.959 0.671-0.678 1.339-1.353 2.002-2.027 3.96-10.504 3.038-22.943-2.701-36.032-10.274-23.434-33.415-43.963-61.901-54.916-9.022-3.468-16.591-6.117-16.666-6.144-1.583-0.552-2.466-2.236-2.023-3.852 0.386-1.407 1.663-2.345 3.071-2.345 0.21 0 0.421 0.021 0.633 0.064 4.785 0.964 35.342 9.014 65.062 23.984 2.029 1.022 3.998 2.056 5.933 3.095l1e-3 -2e-3c8e-3 5e-3 0.031 0.018 0.041 0.025 36.781 19.767 56.547 42.661 58.752 68.117 1.407 16.237-7.837 26.931-17.944 36.769 12.754 18.446 54.308 32.665 54.785 32.827l41.015 14.633c13.022 4.246 23.293 8.285 24.029 8.576 1.618 0.639 2.425 2.457 1.813 4.086"/></g></svg>
