<?xml version="1.0" encoding="UTF-8"?>
<svg width="96pc" height="96pc" enable-background="new 0 0 150.5 91.1" version="1.1" viewBox="0 0 1536 1536" xml:space="preserve" xmlns="http://www.w3.org/2000/svg">
<g transform="translate(0,1444.9)">
	
	<g transform="matrix(16.879 0 0 16.879 -592.38 -1444.9)"><g id="layer3_20_" transform="translate(-92 -64)">
			<g id="layer5_20_">
				<g id="path2554_21_">
					<path d="m176.9 70.8-2.4 9.6c3.4-6.8 8.9-11.9 15.2-16.4-4.6 5.3-8.8 10.6-11.3 16 4.3-6.1 10.1-9.4 16.6-11.7-8.7 7.7-15.6 16.1-20.8 24.4l-4.2-1.8c0.7-6.7 3.2-13.5 6.9-20.1z" fill="#010101"/>
				</g>
				<g id="path2536_21_">
					<path d="m173.7 92.3 2.9 1.5c-0.3 1.9 0.1 6.1 2 7.1 8.4 5.2 16.2 10.8 19.3 16.5 11 19.9-7.7 38.4-24 36.6 8.8-6.5 11.4-19.9 8.1-34.6-1.3-5.7-3.4-10.9-7.1-16.8-1.6-2.7-1-6.3-1.2-10.3z" fill="#010101"/>
				</g>
			</g>
			<g id="layer4_20_">
				<g id="path2540_21_">
					<path d="m170.5 101.8c-0.6 3.1-1.3 8.7-4 10.8-1.1 0.8-2.3 1.6-3.5 2.4-4.9 3.3-9.7 6.4-11.9 14.3-0.5 1.7-0.1 3.5 0.3 5.2 1.2 4.9 4.6 10.1 7.3 13.2 0 0.1 0.5 0.5 0.5 0.6 2.2 2.6 2.9 3.4 11.3 5.3l-0.2 0.9c-5.1-1.3-9.2-2.6-11.9-5.6 0-0.1-0.5-0.5-0.5-0.5-2.8-3.2-6.3-8.6-7.5-13.7-0.5-2-0.9-3.6-0.3-5.7 2.3-8.2 7.3-11.5 12.3-14.9 1.1-0.7 2.5-1.4 3.6-2.3 2.3-1.5 3.4-6.2 4.5-10z" fill="#010101"/>
				</g>
				<g id="path2542_21_">
					<path d="m172.7 114.8c0.1 3.5-0.3 5.3 0.6 7.8 0.5 1.5 2.4 3.5 2.9 5.5 0.7 2.6 1.5 5.5 1.5 7.3 0 2-0.1 5.8-1 9.8-0.7 3.3-2.2 6.2-4.8 7.8-2.7-0.5-5.8-1.5-7.6-3.1-3.6-3.1-6.7-8.3-7.1-12.8-0.3-3.7 3.1-9.2 7.9-11.9 4-2.4 5-5 5.9-9.4-1.2 3.8-2.4 6.9-6.3 9-5.7 3-8.6 7.9-8.3 12.7 0.4 6.1 2.8 10.2 7.6 13.5 2 1.4 5.8 2.9 8.2 3.3v-0.3c1.8-0.3 4.1-3.3 5.3-7.2 1-3.6 1.4-8.1 1.3-11-0.1-1.7-0.8-5.3-2.2-8.6-0.7-1.8-1.9-3.6-2.6-4.9-0.9-1.5-0.9-4.3-1.3-7.5z" fill="#010101"/>
				</g>
				<g id="path2544_21_">
					<path d="m172.1 128.5c0.1 2.4 1 5.4 1.4 8.5 0.3 2.3 0.2 4.6 0.1 6.6-0.1 2.3-0.8 6.5-1.9 8.6-1-0.5-1.4-1-2.1-1.8-0.8-1.1-1.4-2.3-1.9-3.6-0.4-1-0.9-2.2-1.1-3.5-0.3-2-0.2-5.2 2.1-8.4 1.8-2.6 2.2-2.8 2.8-5.7-0.8 2.6-1.4 2.9-3.3 5.1-2.1 2.4-2.4 6-2.4 8.9 0 1.2 0.5 2.6 1 3.8 0.5 1.3 1 2.7 1.7 3.7 1.1 1.6 2.5 2.6 3.2 2.7v-0.1c1.3-1.5 2.1-2.9 2.4-4.4 0.3-1.8 0.4-3.5 0.6-5.6 0.2-1.8 0.1-4.1-0.4-6.5-0.6-3-1.7-6.1-2.2-8.3z" fill="#010101"/>
				</g>
				<g id="path2550_21_">
					<path d="m172.5 99c0.1 3.5 0.3 10 1.3 12.6 0.3 0.9 2.8 4.7 4.5 9.4 1.2 3.2 1.5 6.2 1.7 7.1 0.8 3.8-0.2 10.3-1.5 16.4-0.7 3.3-3 7.4-5.6 9l-0.5 0.9c1.5-0.1 5.1-3.6 6.4-8.1 2.2-7.5 3-11 2-19.4-0.1-0.8-0.5-3.6-1.8-6.5-1.9-4.5-4.6-8.8-4.9-9.7-0.7-1.4-1.5-7.6-1.6-11.7z" fill="#010101"/>
				</g>
				<g id="path2552_21_">
					<path d="m173.7 92.6c-0.2 3.6-0.2 6.4 0.4 9.1 0.7 2.9 4.5 7.1 6.1 11.9 3 9.2 2.2 21.2 0.1 30.5-0.8 3.3-4.6 8.1-8.5 9.6l2.8 0.7c1.5-0.1 5.5-3.8 7.1-8 2.5-6.7 3-14.6 2-23-0.1-0.8-1.4-8-2.7-11-1.8-4.5-4.7-7.7-5.7-10.5-0.8-2.1-1.1-7.7-0.6-8.8z" fill="#010101"/>
				</g>
			</g>
		</g>
		<path d="m101.7 46.3c-2.9-2.6-6.5-4.8-10.3-6.9-1.7-0.9-6.9-5-5.1-10.8l-13.1-5.4-0.9 0.7c4.4 7.9 2.1 12.1-0.1 13.5-4.4 3-10.8 6.8-13.9 10.1-6.1 6.3-7.9 12.3-7.3 20.1 0.6 10.1 7.9 18.5 17.8 21.8 4.3 1.4 8.3 1.6 12.7 1.6 7.1 0 14.5-1.9 19.8-6.3 5.7-4.7 9-11.8 9-19.1s-3.1-14.3-8.6-19.3zm-1.9 36.9c-4.9 4-13.7 6.8-18.4 6.6-5.2-0.3-10.3-1.1-14.8-3.3-7.9-3.8-13.1-12.1-13.5-18.8-0.7-13.7 5.9-17.6 12-22.6 3.4-2.8 8.2-4.2 10.9-9.2 0.5-1.1 0.8-3.5 0.2-6-0.3-0.9-1.5-3.9-2-4.6l9.8 4.3c-1.2 4.5 2.5 9.2 5.5 10.9s7.7 4.9 10.6 7.5c5.1 4.5 7.7 10.9 7.7 17.6s-2.8 13.3-8 17.6z" fill="#010101"/>
	</g>
</g>
</svg>
