<?xml version="1.0" encoding="UTF-8"?>
<svg version="1.1" viewBox="0 0 512 512" xmlns="http://www.w3.org/2000/svg"><g transform="matrix(.87897 0 0 .87897 -5.196 483.74)"><rect transform="scale(-1,1)" x="-588.41144" y="-550.34869" width="582.5" height="582.5" ry="0" fill="#966bab" stroke-width="15.61100006"/><g transform="matrix(9.8600256,0,0,9.8681904,1.607183,-428.03719)"><g fill="#fff" stroke-width=".99958003"><path d="m21.975 29.955c-2.58 0-5.631 2.4639-6.586 3.4111-0.571 0.57152-1.433 0.74237-2.179 0.43264-0.748-0.30874-1.235-1.0371-1.235-1.8454 0-3.4561 1.672-9.9916 8-9.9916 0.757 0 1.45 0.42764 1.789 1.1051l2 3.9966c0.31 0.61948 0.277 1.3549-0.088 1.9444-0.364 0.5885-1.008 0.9472-1.701 0.9472zm24.766 3.8438c-0.75 0.31074-1.607 0.13888-2.18-0.43364-0.886-0.88425-3.997-3.4101-6.586-3.4101-0.693 0-1.337-0.3587-1.701-0.9482-0.364-0.5885-0.397-1.3249-0.088-1.9444l2-3.9966c0.339-0.67643 1.031-1.1041 1.789-1.1041 6.328 0 8 6.5355 8 9.9916 0 0.80832-0.487 1.5367-1.234 1.8454z"/><path d="m29.975-2.0185c-9.941 0-18 8.0522-18 17.985 0 9.9327 8.059 17.985 18 17.985s18-8.0522 18-17.985c0-9.9327-8.059-17.985-18-17.985zm0 6.9942c6.212 0 9.3 5.0248 9.429 5.2386 0.123 0.20383 0.08296 0.46754-0.09405 0.6274-0.178 0.15887-0.4439 0.17088-0.6349 0.029-0.038-0.02897-3.9341-2.8976-8.7001-2.8976-4.778 0-8.6611 2.8686-8.7001 2.8976-0.191 0.14188-0.4569 0.13187-0.6349-0.029-0.178-0.15986-0.21704-0.42257-0.09405-0.6274 0.128-0.21482 3.217-5.2386 9.429-5.2386zm-6.5 10.991a2.5 3.4971 0 0 1 2.5 3.4971 2.5 3.4971 0 0 1-2.5 3.4971 2.5 3.4971 0 0 1-2.5-3.4971 2.5 3.4971 0 0 1 2.5-3.4971zm13 0a2.5 3.4971 0 0 1 2.5 3.4971 2.5 3.4971 0 0 1-2.5 3.4971 2.5 3.4971 0 0 1-2.5-3.4971 2.5 3.4971 0 0 1 2.5-3.4971z"/></g></g></g></svg>