<?xml version="1.0" encoding="UTF-8"?>
<svg width="1920" height="380" version="1.1" viewBox="0 0 508 100.54" xmlns="http://www.w3.org/2000/svg"><g transform="translate(0 -196.46)"><path d="m45.813 196.46c-4.9486 0.2404-30.479 8.5091-42.251 14.888-1.6938 0.91832-3.5528 4.0713-3.5615 5.4544 0 12.656 3.047 31.326 11.656 47.913l16.845-16.837c-3.2563-8.2276-1.3156-17.604 4.9387-23.863 3.8052-3.6202 10.973-6.2916 17.201-6.4017 2.8306-0.05 5.4665 0.42947 7.5039 1.5896 1.1926 0.68857 0.63289 1.5773 0.27698 1.9332l-12.901 12.374c-1.6303 1.7514-0.21689 6.2431 0.83509 9.0976 2.8546 1.0521 7.3468 2.4644 9.0982 0.83406l12.374-12.899c0.35591-0.35591 1.2446-0.91564 1.9332 0.27698 3.7123 6.52 0.45205 19.17-4.8137 24.704-6.2595 6.2543-15.634 8.195-23.862 4.9387l-19.329 19.325c6.2847 7.281 14.195 13.367 24.054 17.213 35.648-13.908 45.813-57.085 45.813-80.199-0.01-1.3832-1.8677-4.5366-3.5615-5.4544-11.772-6.3788-37.301-14.647-42.25-14.888z" fill="#3498db" stroke-width=".86794"/><g transform="matrix(1.542 -1.542 1.542 1.542 -206.27 74.459)" fill="#fff"><g transform="rotate(90 84.232 171.06)" fill="#fff"><g transform="translate(3.5487 90.195)" fill="#fff"><path transform="matrix(.24077 -.24077 .24077 .24077 -195.37 -625.87)" d="m-1131 2116.8c0.3194 0.6158 0.6375 1.2141 0.9684 1.8254 1.3704 2.5314 2.8391 5.0227 4.4121 7.457 1.5731 2.4344 3.2495 4.8124 5.0352 7.1172 1.0233 1.3208 2.092 2.6283 3.1878 3.8981l26.029-26.025c11.08 4.3852 23.705 1.7722 32.135-6.6504 7.0913-7.4538 11.482-24.489 6.4824-33.27-0.9273-1.6061-2.1242-0.8523-2.6035-0.373l-16.664 17.371c-2.3586 2.1955-8.4077 0.2937-12.252-1.1231-1.4167-3.8442-3.3205-9.8933-1.125-12.252l17.373-16.664c0.4793-0.4793 1.233-1.6762-0.3731-2.6035-2.7438-1.5623-6.2935-2.208-10.105-2.1406-8.3861 0.1483-18.04 3.7458-23.164 8.6211-8.4226 8.4296-11.036 21.057-6.6504 32.137z" fill="#fff" stroke-width=".67821"/></g></g></g><g fill="#3498db"><path d="m115.46 273.28v-52.215h24.168q7.6085 0 12.308 4.401 4.774 4.3264 4.774 11.264 0 6.8626-4.774 11.189-4.774 4.3264-12.308 4.3264h-16.336v21.035zm23.348-45.353h-15.515v17.679h15.515q4.5502 0 7.2356-2.387 2.76-2.4616 2.76-6.4896 0-4.0281-2.76-6.415-2.6854-2.387-7.2356-2.387z" style="font-variant-caps:normal;font-variant-ligatures:normal;font-variant-numeric:normal"/><path d="m160.91 273.28v-37.968h7.4594v4.8486q1.7157-2.76 4.401-4.1772 2.6854-1.4919 6.0421-1.4919 1.1935 0 2.0886 0.14919 0.89512 0.14918 1.7156 0.44756v6.7134q-1.0443-0.37297-2.1632-0.59675t-2.2378-0.22378q-3.2821 0-5.8929 1.7902-2.5362 1.7156-3.9535 5.147v25.362z" style="font-variant-caps:normal;font-variant-ligatures:normal;font-variant-numeric:normal"/><path d="m189.41 229.2q-1.8648 0-3.2075-1.3427-1.3427-1.4173-1.3427-3.2821t1.3427-3.2075q1.3427-1.4173 3.2075-1.4173 1.8648 0 3.2075 1.4173 1.4173 1.3427 1.4173 3.2075t-1.4173 3.2821q-1.3427 1.3427-3.2075 1.3427zm3.7297 6.1167v37.968h-7.4594v-37.968z" style="font-variant-caps:normal;font-variant-ligatures:normal;font-variant-numeric:normal"/><path d="m211.33 273.28-16.411-37.968h8.2053l11.86 28.42 11.86-28.42h7.9815l-16.411 37.968z" style="font-variant-caps:normal;font-variant-ligatures:normal;font-variant-numeric:normal"/><path d="m248.56 273.96q-6.1913 0-10.07-3.2075t-3.8789-8.3545q0-5.3707 4.1026-8.4291 4.1026-3.1329 11.264-3.1329 2.76 0 5.3707 0.59675 2.6108 0.52215 4.9978 1.4919v-4.0281q0-4.028-2.387-6.0421-2.387-2.014-6.8626-2.014-2.6108 0-5.4453 0.82053-2.8346 0.74594-6.3404 2.387l-2.76-5.5945q4.2518-2.014 8.0561-2.9092 3.8043-0.96972 7.534-0.96972 7.3848 0 11.413 3.5805 4.1027 3.5059 4.1027 9.9955v25.138h-7.3102v-3.2821q-2.5362 2.014-5.4453 2.9837-2.9092 0.96971-6.3404 0.96971zm-6.788-11.711q0 2.76 2.3124 4.4756 2.387 1.7156 6.1913 1.7156 2.9837 0 5.5199-0.89512t4.5502-2.6854v-6.5642q-2.1632-1.1935-4.5502-1.7156-2.387-0.59675-5.2216-0.59675-4.028 0-6.415 1.7156t-2.387 4.5502z" style="font-variant-caps:normal;font-variant-ligatures:normal;font-variant-numeric:normal"/><path d="m291.4 267.39q2.8346 0 5.3707-1.1189 2.5362-1.1935 4.8486-3.5059l4.4756 4.8486q-2.9837 2.9837-6.8626 4.6994-3.8789 1.641-8.1307 1.641-4.1026 0-7.6831-1.4919-3.5805-1.5665-6.1913-4.1772-2.6108-2.6108-4.1772-6.1913-1.4918-3.6551-1.4918-7.8323 0-4.1026 1.4918-7.6831 1.5665-3.6551 4.1772-6.2658 2.6108-2.6854 6.1913-4.1772 3.5805-1.5665 7.6831-1.5665 4.2518 0 8.2799 1.7156 4.0281 1.6411 7.0118 4.6248l-4.6994 5.0724q-2.1632-2.3124-4.8486-3.5059-2.6854-1.2681-5.5945-1.2681-5.1469 0-8.7274 3.8043-3.5805 3.8043-3.5805 9.2496 0 5.5945 3.5805 9.3988 3.6551 3.7297 8.8766 3.7297z" style="font-variant-caps:normal;font-variant-ligatures:normal;font-variant-numeric:normal"/><path d="m318.75 276.86 1.4919-3.4313-15.142-38.117h8.2053l11.114 29.017 12.233-29.017h8.0561l-18.35 42.518q-2.6107 6.0421-5.9675 8.6528-3.3567 2.6854-8.5783 2.6854-1.1935 0-2.2378-0.14919-0.9697-0.0746-1.7156-0.29837v-6.5642q0.74594 0.14919 1.4919 0.22379 0.82053 0.0746 1.8648 0.0746 2.5362 0 4.401-1.4173 1.9394-1.3427 3.1329-4.1772z" style="font-variant-caps:normal;font-variant-ligatures:normal;font-variant-numeric:normal"/></g><g fill="#8a9595"><path d="m343.3 228.01v-6.9372h44.532v6.9372h-18.35v45.278h-7.8323v-45.278z" style="font-variant-caps:normal;font-variant-ligatures:normal;font-variant-numeric:normal"/><path d="m379.84 254.26q0-4.1026 1.4919-7.6831 1.5665-3.6551 4.2518-6.2658 2.6854-2.6854 6.2659-4.1772 3.6551-1.5665 7.7577-1.5665 4.1027 0 7.6832 1.5665 3.6551 1.4919 6.2658 4.1772 2.6854 2.6108 4.1772 6.2658 1.5665 3.5805 1.5665 7.6831 0 4.1772-1.5665 7.8323-1.4918 3.5805-4.1772 6.2659-2.6108 2.6108-6.2658 4.1772-3.5805 1.4919-7.6832 1.4919-4.1026 0-7.7577-1.4919-3.5805-1.5665-6.2659-4.1772-2.6854-2.6854-4.2518-6.2659-1.4919-3.6551-1.4919-7.8323zm19.767 13.203q5.147 0 8.7274-3.8043 3.6551-3.8789 3.6551-9.3988t-3.6551-9.3242q-3.5805-3.8043-8.7274-3.8043-5.1469 0-8.802 3.8043-3.6551 3.8043-3.6551 9.3242t3.5805 9.3988q3.6551 3.8043 8.8766 3.8043z" style="font-variant-caps:normal;font-variant-ligatures:normal;font-variant-numeric:normal"/><path d="m421.96 254.26q0-4.1026 1.4918-7.6831 1.5665-3.6551 4.2518-6.2658 2.6854-2.6854 6.2659-4.1772 3.6551-1.5665 7.7577-1.5665 4.1026 0 7.6831 1.5665 3.6551 1.4919 6.2659 4.1772 2.6854 2.6108 4.1772 6.2658 1.5664 3.5805 1.5664 7.6831 0 4.1772-1.5664 7.8323-1.4919 3.5805-4.1772 6.2659-2.6108 2.6108-6.2659 4.1772-3.5805 1.4919-7.6831 1.4919-4.1026 0-7.7577-1.4919-3.5805-1.5665-6.2659-4.1772-2.6854-2.6854-4.2518-6.2659-1.4918-3.6551-1.4918-7.8323zm19.767 13.203q5.1469 0 8.7274-3.8043 3.6551-3.8789 3.6551-9.3988t-3.6551-9.3242q-3.5805-3.8043-8.7274-3.8043-5.147 0-8.802 3.8043-3.6551 3.8043-3.6551 9.3242t3.5805 9.3988q3.6551 3.8043 8.8766 3.8043z" style="font-variant-caps:normal;font-variant-ligatures:normal;font-variant-numeric:normal"/><path d="m473.1 219.43v53.857h-7.4594v-52.215z" style="font-variant-caps:normal;font-variant-ligatures:normal;font-variant-numeric:normal"/><path d="m475.48 268.36 4.0281-4.9232q2.9837 2.3124 6.0421 3.5805 3.1329 1.1935 6.3405 1.1935 4.028 0 6.5642-1.5665 2.5362-1.5665 2.5362-4.1026 0-2.014-1.4919-3.2075-1.4919-1.1935-4.6248-1.6411l-6.8626-0.96971q-5.5945-0.82053-8.5037-3.4313-2.8346-2.6854-2.8346-7.0864 0-5.147 4.1026-8.2799 4.1027-3.2075 10.741-3.2075 4.1772 0 7.9069 1.1935 3.8043 1.1935 7.3848 3.6551l-3.8043 4.9232q-3.1329-2.0886-6.1167-2.9837-2.9091-0.96971-5.8929-0.96971-3.4313 0-5.5199 1.4173-2.0886 1.4173-2.0886 3.7297 0 2.0886 1.4173 3.2075 1.4919 1.0443 4.8486 1.5665l6.8626 0.96972q5.5945 0.82052 8.5037 3.5059 2.9837 2.6854 2.9837 7.0864 0 2.5362-1.2681 4.774-1.1935 2.1632-3.3567 3.7297-2.0886 1.5665-4.9978 2.5362-2.9092 0.89512-6.2658 0.89512-4.9232 0-9.2496-1.4173-4.2518-1.4173-7.3848-4.1772z" style="font-variant-caps:normal;font-variant-ligatures:normal;font-variant-numeric:normal"/></g></g></svg>
