<?xml version="1.0" encoding="UTF-8"?>
<svg width="512" height="512" version="1.1" viewBox="0 0 135.47 135.46" xmlns="http://www.w3.org/2000/svg"><path d="m67.735 18.519c-4.9487 0.2404-30.48 8.5093-42.252 14.888-1.6938 0.91834-3.5529 4.0714-3.5616 5.4545 0 12.656 3.0471 31.327 11.656 47.914l16.845-16.837c-3.2564-8.2278-1.3156-17.604 4.9388-23.863 3.8053-3.6203 10.973-6.2917 17.201-6.4018 2.8307-0.05 5.4666 0.42948 7.504 1.5896 1.1926 0.68859 0.6329 1.5773 0.27699 1.9332l-12.901 12.374c-1.6303 1.7514-0.2169 6.2432 0.8351 9.0978 2.8547 1.0521 7.3469 2.4644 9.0984 0.83407l12.374-12.899c0.35592-0.35592 1.2446-0.91566 1.9332 0.27698 3.7124 6.5201 0.45206 19.17-4.8138 24.704-6.2596 6.2544-15.634 8.1951-23.862 4.9388l-19.329 19.325c6.2848 7.2811 14.195 13.367 24.054 17.213 35.649-13.908 45.814-57.086 45.814-80.2-0.01-1.3832-1.8677-4.5367-3.5616-5.4545-11.772-6.3789-37.302-14.647-42.251-14.888z" fill="#3498db" stroke-width=".86796"/><g transform="matrix(1.542 -1.542 1.542 1.542 -184.39 -103.45)" fill="#fff"><g transform="rotate(90,84.232,171.06)" fill="#fff"><g transform="translate(3.5487,90.195)" fill="#fff"><path transform="matrix(.24077 -.24077 .24077 .24077 -195.37 -625.87)" d="m-1131 2116.8c0.3194 0.6158 0.6375 1.2141 0.9684 1.8254 1.3704 2.5314 2.8391 5.0227 4.4121 7.457 1.5731 2.4344 3.2495 4.8124 5.0352 7.1172 1.0233 1.3208 2.092 2.6283 3.1878 3.8981l26.029-26.025c11.08 4.3852 23.705 1.7722 32.135-6.6504 7.0913-7.4538 11.482-24.489 6.4824-33.27-0.9273-1.6061-2.1242-0.8523-2.6035-0.373l-16.664 17.371c-2.3586 2.1955-8.4077 0.2937-12.252-1.1231-1.4167-3.8442-3.3205-9.8933-1.125-12.252l17.373-16.664c0.4793-0.4793 1.233-1.6762-0.3731-2.6035-2.7438-1.5623-6.2935-2.208-10.105-2.1406-8.3861 0.1483-18.04 3.7458-23.164 8.6211-8.4226 8.4296-11.036 21.057-6.6504 32.137z" fill="#fff" stroke-width=".67821"/></g></g></g></svg>
