<?xml version="1.0" standalone="no"?>
<!DOCTYPE svg PUBLIC "-//W3C//DTD SVG 20010904//EN"
 "http://www.w3.org/TR/2001/REC-SVG-20010904/DTD/svg10.dtd">
<svg version="1.0" xmlns="http://www.w3.org/2000/svg"
 width="700.000000pt" height="700.000000pt" viewBox="0 0 700.000000 700.000000"
 preserveAspectRatio="xMidYMid meet">
<g transform="translate(0.000000,700.000000) scale(0.100000,-0.100000)"
fill="#000000" stroke="none">
<path d="M3340 6975 c-63 -14 -124 -27 -135 -29 -34 -8 -310 -84 -362 -100
-26 -8 -115 -36 -198 -61 -708 -219 -1467 -512 -1954 -753 -128 -64 -164 -87
-210 -134 -64 -64 -112 -139 -148 -230 -25 -61 -25 -65 -19 -252 4 -105 9
-216 11 -246 3 -30 7 -82 9 -115 6 -77 16 -182 21 -220 2 -16 7 -52 10 -80 3
-27 10 -81 16 -120 6 -38 12 -81 14 -95 7 -44 26 -164 31 -195 6 -35 45 -229
74 -365 106 -495 310 -1087 542 -1570 l79 -164 586 586 586 586 -26 79 c-30
90 -53 189 -62 259 -4 27 -9 57 -12 68 -6 22 -6 323 0 334 3 4 8 32 12 62 15
128 69 299 140 445 188 389 461 612 940 768 325 106 732 122 954 37 85 -33
145 -67 159 -90 30 -50 16 -67 -403 -465 -530 -504 -541 -515 -555 -577 -16
-64 -7 -197 18 -298 28 -109 74 -244 86 -253 6 -4 60 -23 120 -42 216 -69 378
-85 458 -44 24 12 72 52 108 89 36 37 112 117 169 176 57 60 193 201 301 314
109 113 230 240 270 282 76 81 123 108 158 89 23 -12 76 -111 101 -188 33
-104 45 -203 44 -368 0 -143 -7 -208 -38 -370 -14 -75 -70 -256 -109 -353
-141 -349 -312 -551 -631 -739 -112 -66 -338 -149 -465 -169 -19 -3 -37 -7
-40 -9 -3 -2 -44 -7 -90 -11 -209 -20 -418 2 -619 62 l-114 35 -668 -668
c-368 -367 -669 -671 -669 -675 0 -25 351 -375 503 -501 210 -175 431 -330
597 -420 30 -16 62 -35 70 -42 16 -12 276 -141 345 -170 22 -10 66 -28 99 -41
l58 -23 112 46 c297 124 661 337 896 523 24 19 53 42 64 50 146 113 412 365
561 533 480 542 880 1258 1148 2057 96 284 185 609 233 845 2 11 15 74 29 140
26 126 64 359 81 490 2 22 7 51 9 65 2 14 7 57 11 95 4 39 8 84 10 100 2 17 6
71 9 120 4 50 9 101 11 115 2 14 7 115 10 225 6 187 5 204 -15 256 -43 114
-135 240 -211 289 -196 125 -864 409 -1465 622 -425 151 -1046 343 -1200 372
-11 2 -38 9 -61 15 -157 42 -252 46 -394 16z"/>
</g>
</svg>
