<?xml version="1.0" encoding="UTF-8"?>
<svg width="512" height="512" preserveAspectRatio="none" version="1.1" viewBox="0 0 127.98 127.98" xmlns="http://www.w3.org/2000/svg"><g id="QRcode" transform="scale(3.1214)"><rect width="41" height="41" fill="#fff"/><g id="Pattern" transform="translate(4,4)"><rect width="1" height="1"/><rect x="1" width="1" height="1"/><rect x="2" width="1" height="1"/><rect x="3" width="1" height="1"/><rect x="4" width="1" height="1"/><rect x="5" width="1" height="1"/><rect x="6" width="1" height="1"/><rect x="8" width="1" height="1"/><rect x="9" width="1" height="1"/><rect x="10" width="1" height="1"/><rect x="11" width="1" height="1"/><rect x="13" width="1" height="1"/><rect x="14" width="1" height="1"/><rect x="15" width="1" height="1"/><rect x="17" width="1" height="1"/><rect x="18" width="1" height="1"/><rect x="21" width="1" height="1"/><rect x="22" width="1" height="1"/><rect x="26" width="1" height="1"/><rect x="27" width="1" height="1"/><rect x="28" width="1" height="1"/><rect x="29" width="1" height="1"/><rect x="30" width="1" height="1"/><rect x="31" width="1" height="1"/><rect x="32" width="1" height="1"/><rect y="1" width="1" height="1"/><rect x="6" y="1" width="1" height="1"/><rect x="11" y="1" width="1" height="1"/><rect x="12" y="1" width="1" height="1"/><rect x="13" y="1" width="1" height="1"/><rect x="14" y="1" width="1" height="1"/><rect x="15" y="1" width="1" height="1"/><rect x="17" y="1" width="1" height="1"/><rect x="18" y="1" width="1" height="1"/><rect x="19" y="1" width="1" height="1"/><rect x="21" y="1" width="1" height="1"/><rect x="22" y="1" width="1" height="1"/><rect x="24" y="1" width="1" height="1"/><rect x="26" y="1" width="1" height="1"/><rect x="32" y="1" width="1" height="1"/><rect y="2" width="1" height="1"/><rect x="2" y="2" width="1" height="1"/><rect x="3" y="2" width="1" height="1"/><rect x="4" y="2" width="1" height="1"/><rect x="6" y="2" width="1" height="1"/><rect x="9" y="2" width="1" height="1"/><rect x="11" y="2" width="1" height="1"/><rect x="13" y="2" width="1" height="1"/><rect x="14" y="2" width="1" height="1"/><rect x="19" y="2" width="1" height="1"/><rect x="20" y="2" width="1" height="1"/><rect x="21" y="2" width="1" height="1"/><rect x="22" y="2" width="1" height="1"/><rect x="23" y="2" width="1" height="1"/><rect x="24" y="2" width="1" height="1"/><rect x="26" y="2" width="1" height="1"/><rect x="28" y="2" width="1" height="1"/><rect x="29" y="2" width="1" height="1"/><rect x="30" y="2" width="1" height="1"/><rect x="32" y="2" width="1" height="1"/><rect y="3" width="1" height="1"/><rect x="2" y="3" width="1" height="1"/><rect x="3" y="3" width="1" height="1"/><rect x="4" y="3" width="1" height="1"/><rect x="6" y="3" width="1" height="1"/><rect x="10" y="3" width="1" height="1"/><rect x="11" y="3" width="1" height="1"/><rect x="14" y="3" width="1" height="1"/><rect x="15" y="3" width="1" height="1"/><rect x="17" y="3" width="1" height="1"/><rect x="21" y="3" width="1" height="1"/><rect x="26" y="3" width="1" height="1"/><rect x="28" y="3" width="1" height="1"/><rect x="29" y="3" width="1" height="1"/><rect x="30" y="3" width="1" height="1"/><rect x="32" y="3" width="1" height="1"/><rect y="4" width="1" height="1"/><rect x="2" y="4" width="1" height="1"/><rect x="3" y="4" width="1" height="1"/><rect x="4" y="4" width="1" height="1"/><rect x="6" y="4" width="1" height="1"/><rect x="10" y="4" width="1" height="1"/><rect x="11" y="4" width="1" height="1"/><rect x="12" y="4" width="1" height="1"/><rect x="13" y="4" width="1" height="1"/><rect x="15" y="4" width="1" height="1"/><rect x="17" y="4" width="1" height="1"/><rect x="19" y="4" width="1" height="1"/><rect x="21" y="4" width="1" height="1"/><rect x="22" y="4" width="1" height="1"/><rect x="24" y="4" width="1" height="1"/><rect x="26" y="4" width="1" height="1"/><rect x="28" y="4" width="1" height="1"/><rect x="29" y="4" width="1" height="1"/><rect x="30" y="4" width="1" height="1"/><rect x="32" y="4" width="1" height="1"/><rect y="5" width="1" height="1"/><rect x="6" y="5" width="1" height="1"/><rect x="9" y="5" width="1" height="1"/><rect x="11" y="5" width="1" height="1"/><rect x="13" y="5" width="1" height="1"/><rect x="14" y="5" width="1" height="1"/><rect x="18" y="5" width="1" height="1"/><rect x="21" y="5" width="1" height="1"/><rect x="22" y="5" width="1" height="1"/><rect x="23" y="5" width="1" height="1"/><rect x="26" y="5" width="1" height="1"/><rect x="32" y="5" width="1" height="1"/><rect y="6" width="1" height="1"/><rect x="1" y="6" width="1" height="1"/><rect x="2" y="6" width="1" height="1"/><rect x="3" y="6" width="1" height="1"/><rect x="4" y="6" width="1" height="1"/><rect x="5" y="6" width="1" height="1"/><rect x="6" y="6" width="1" height="1"/><rect x="8" y="6" width="1" height="1"/><rect x="10" y="6" width="1" height="1"/><rect x="12" y="6" width="1" height="1"/><rect x="14" y="6" width="1" height="1"/><rect x="16" y="6" width="1" height="1"/><rect x="18" y="6" width="1" height="1"/><rect x="20" y="6" width="1" height="1"/><rect x="22" y="6" width="1" height="1"/><rect x="24" y="6" width="1" height="1"/><rect x="26" y="6" width="1" height="1"/><rect x="27" y="6" width="1" height="1"/><rect x="28" y="6" width="1" height="1"/><rect x="29" y="6" width="1" height="1"/><rect x="30" y="6" width="1" height="1"/><rect x="31" y="6" width="1" height="1"/><rect x="32" y="6" width="1" height="1"/><rect x="8" y="7" width="1" height="1"/><rect x="9" y="7" width="1" height="1"/><rect x="12" y="7" width="1" height="1"/><rect x="14" y="7" width="1" height="1"/><rect x="18" y="7" width="1" height="1"/><rect x="24" y="7" width="1" height="1"/><rect y="8" width="1" height="1"/><rect x="1" y="8" width="1" height="1"/><rect x="3" y="8" width="1" height="1"/><rect x="4" y="8" width="1" height="1"/><rect x="6" y="8" width="1" height="1"/><rect x="9" y="8" width="1" height="1"/><rect x="12" y="8" width="1" height="1"/><rect x="13" y="8" width="1" height="1"/><rect x="14" y="8" width="1" height="1"/><rect x="15" y="8" width="1" height="1"/><rect x="16" y="8" width="1" height="1"/><rect x="17" y="8" width="1" height="1"/><rect x="19" y="8" width="1" height="1"/><rect x="20" y="8" width="1" height="1"/><rect x="26" y="8" width="1" height="1"/><rect x="32" y="8" width="1" height="1"/><rect x="1" y="9" width="1" height="1"/><rect x="2" y="9" width="1" height="1"/><rect x="3" y="9" width="1" height="1"/><rect x="7" y="9" width="1" height="1"/><rect x="8" y="9" width="1" height="1"/><rect x="10" y="9" width="1" height="1"/><rect x="14" y="9" width="1" height="1"/><rect x="19" y="9" width="1" height="1"/><rect x="20" y="9" width="1" height="1"/><rect x="23" y="9" width="1" height="1"/><rect x="25" y="9" width="1" height="1"/><rect x="28" y="9" width="1" height="1"/><rect x="29" y="9" width="1" height="1"/><rect y="10" width="1" height="1"/><rect x="1" y="10" width="1" height="1"/><rect x="2" y="10" width="1" height="1"/><rect x="3" y="10" width="1" height="1"/><rect x="5" y="10" width="1" height="1"/><rect x="6" y="10" width="1" height="1"/><rect x="9" y="10" width="1" height="1"/><rect x="12" y="10" width="1" height="1"/><rect x="14" y="10" width="1" height="1"/><rect x="17" y="10" width="1" height="1"/><rect x="18" y="10" width="1" height="1"/><rect x="20" y="10" width="1" height="1"/><rect x="22" y="10" width="1" height="1"/><rect x="23" y="10" width="1" height="1"/><rect x="25" y="10" width="1" height="1"/><rect x="26" y="10" width="1" height="1"/><rect x="28" y="10" width="1" height="1"/><rect x="31" y="10" width="1" height="1"/><rect x="32" y="10" width="1" height="1"/><rect x="1" y="11" width="1" height="1"/><rect x="4" y="11" width="1" height="1"/><rect x="8" y="11" width="1" height="1"/><rect x="14" y="11" width="1" height="1"/><rect x="15" y="11" width="1" height="1"/><rect x="17" y="11" width="1" height="1"/><rect x="19" y="11" width="1" height="1"/><rect x="20" y="11" width="1" height="1"/><rect x="25" y="11" width="1" height="1"/><rect x="28" y="11" width="1" height="1"/><rect x="30" y="11" width="1" height="1"/><rect x="31" y="11" width="1" height="1"/><rect x="32" y="11" width="1" height="1"/><rect x="3" y="12" width="1" height="1"/><rect x="4" y="12" width="1" height="1"/><rect x="5" y="12" width="1" height="1"/><rect x="6" y="12" width="1" height="1"/><rect x="7" y="12" width="1" height="1"/><rect x="8" y="12" width="1" height="1"/><rect x="9" y="12" width="1" height="1"/><rect x="10" y="12" width="1" height="1"/><rect x="13" y="12" width="1" height="1"/><rect x="14" y="12" width="1" height="1"/><rect x="18" y="12" width="1" height="1"/><rect x="19" y="12" width="1" height="1"/><rect x="22" y="12" width="1" height="1"/><rect x="23" y="12" width="1" height="1"/><rect x="24" y="12" width="1" height="1"/><rect x="26" y="12" width="1" height="1"/><rect x="29" y="12" width="1" height="1"/><rect x="31" y="12" width="1" height="1"/><rect x="32" y="12" width="1" height="1"/><rect y="13" width="1" height="1"/><rect x="2" y="13" width="1" height="1"/><rect x="3" y="13" width="1" height="1"/><rect x="5" y="13" width="1" height="1"/><rect x="7" y="13" width="1" height="1"/><rect x="10" y="13" width="1" height="1"/><rect x="12" y="13" width="1" height="1"/><rect x="22" y="13" width="1" height="1"/><rect x="23" y="13" width="1" height="1"/><rect x="25" y="13" width="1" height="1"/><rect x="27" y="13" width="1" height="1"/><rect x="31" y="13" width="1" height="1"/><rect y="14" width="1" height="1"/><rect x="3" y="14" width="1" height="1"/><rect x="6" y="14" width="1" height="1"/><rect x="8" y="14" width="1" height="1"/><rect x="9" y="14" width="1" height="1"/><rect x="10" y="14" width="1" height="1"/><rect x="14" y="14" width="1" height="1"/><rect x="15" y="14" width="1" height="1"/><rect x="19" y="14" width="1" height="1"/><rect x="20" y="14" width="1" height="1"/><rect x="21" y="14" width="1" height="1"/><rect x="27" y="14" width="1" height="1"/><rect x="29" y="14" width="1" height="1"/><rect x="30" y="14" width="1" height="1"/><rect y="15" width="1" height="1"/><rect x="2" y="15" width="1" height="1"/><rect x="3" y="15" width="1" height="1"/><rect x="4" y="15" width="1" height="1"/><rect x="5" y="15" width="1" height="1"/><rect x="7" y="15" width="1" height="1"/><rect x="8" y="15" width="1" height="1"/><rect x="9" y="15" width="1" height="1"/><rect x="12" y="15" width="1" height="1"/><rect x="13" y="15" width="1" height="1"/><rect x="14" y="15" width="1" height="1"/><rect x="16" y="15" width="1" height="1"/><rect x="18" y="15" width="1" height="1"/><rect x="22" y="15" width="1" height="1"/><rect x="23" y="15" width="1" height="1"/><rect x="25" y="15" width="1" height="1"/><rect x="26" y="15" width="1" height="1"/><rect x="29" y="15" width="1" height="1"/><rect x="30" y="15" width="1" height="1"/><rect x="32" y="15" width="1" height="1"/><rect x="2" y="16" width="1" height="1"/><rect x="3" y="16" width="1" height="1"/><rect x="4" y="16" width="1" height="1"/><rect x="6" y="16" width="1" height="1"/><rect x="9" y="16" width="1" height="1"/><rect x="10" y="16" width="1" height="1"/><rect x="11" y="16" width="1" height="1"/><rect x="12" y="16" width="1" height="1"/><rect x="15" y="16" width="1" height="1"/><rect x="18" y="16" width="1" height="1"/><rect x="22" y="16" width="1" height="1"/><rect x="23" y="16" width="1" height="1"/><rect x="25" y="16" width="1" height="1"/><rect x="26" y="16" width="1" height="1"/><rect x="28" y="16" width="1" height="1"/><rect x="29" y="16" width="1" height="1"/><rect x="31" y="16" width="1" height="1"/><rect x="32" y="16" width="1" height="1"/><rect y="17" width="1" height="1"/><rect x="1" y="17" width="1" height="1"/><rect x="4" y="17" width="1" height="1"/><rect x="7" y="17" width="1" height="1"/><rect x="8" y="17" width="1" height="1"/><rect x="9" y="17" width="1" height="1"/><rect x="10" y="17" width="1" height="1"/><rect x="11" y="17" width="1" height="1"/><rect x="19" y="17" width="1" height="1"/><rect x="20" y="17" width="1" height="1"/><rect x="21" y="17" width="1" height="1"/><rect x="24" y="17" width="1" height="1"/><rect x="26" y="17" width="1" height="1"/><rect x="27" y="17" width="1" height="1"/><rect x="28" y="17" width="1" height="1"/><rect x="31" y="17" width="1" height="1"/><rect x="32" y="17" width="1" height="1"/><rect x="1" y="18" width="1" height="1"/><rect x="2" y="18" width="1" height="1"/><rect x="3" y="18" width="1" height="1"/><rect x="5" y="18" width="1" height="1"/><rect x="6" y="18" width="1" height="1"/><rect x="8" y="18" width="1" height="1"/><rect x="12" y="18" width="1" height="1"/><rect x="13" y="18" width="1" height="1"/><rect x="14" y="18" width="1" height="1"/><rect x="16" y="18" width="1" height="1"/><rect x="17" y="18" width="1" height="1"/><rect x="18" y="18" width="1" height="1"/><rect x="19" y="18" width="1" height="1"/><rect x="21" y="18" width="1" height="1"/><rect x="22" y="18" width="1" height="1"/><rect x="23" y="18" width="1" height="1"/><rect x="25" y="18" width="1" height="1"/><rect x="28" y="18" width="1" height="1"/><rect x="29" y="18" width="1" height="1"/><rect x="32" y="18" width="1" height="1"/><rect y="19" width="1" height="1"/><rect x="1" y="19" width="1" height="1"/><rect x="7" y="19" width="1" height="1"/><rect x="8" y="19" width="1" height="1"/><rect x="9" y="19" width="1" height="1"/><rect x="10" y="19" width="1" height="1"/><rect x="11" y="19" width="1" height="1"/><rect x="13" y="19" width="1" height="1"/><rect x="15" y="19" width="1" height="1"/><rect x="16" y="19" width="1" height="1"/><rect x="18" y="19" width="1" height="1"/><rect x="20" y="19" width="1" height="1"/><rect x="22" y="19" width="1" height="1"/><rect x="23" y="19" width="1" height="1"/><rect x="24" y="19" width="1" height="1"/><rect x="25" y="19" width="1" height="1"/><rect x="26" y="19" width="1" height="1"/><rect x="29" y="19" width="1" height="1"/><rect x="30" y="19" width="1" height="1"/><rect x="32" y="19" width="1" height="1"/><rect x="3" y="20" width="1" height="1"/><rect x="5" y="20" width="1" height="1"/><rect x="6" y="20" width="1" height="1"/><rect x="7" y="20" width="1" height="1"/><rect x="8" y="20" width="1" height="1"/><rect x="11" y="20" width="1" height="1"/><rect x="13" y="20" width="1" height="1"/><rect x="16" y="20" width="1" height="1"/><rect x="17" y="20" width="1" height="1"/><rect x="19" y="20" width="1" height="1"/><rect x="20" y="20" width="1" height="1"/><rect x="22" y="20" width="1" height="1"/><rect x="24" y="20" width="1" height="1"/><rect x="25" y="20" width="1" height="1"/><rect x="31" y="20" width="1" height="1"/><rect x="32" y="20" width="1" height="1"/><rect y="21" width="1" height="1"/><rect x="2" y="21" width="1" height="1"/><rect x="3" y="21" width="1" height="1"/><rect x="4" y="21" width="1" height="1"/><rect x="5" y="21" width="1" height="1"/><rect x="8" y="21" width="1" height="1"/><rect x="12" y="21" width="1" height="1"/><rect x="13" y="21" width="1" height="1"/><rect x="16" y="21" width="1" height="1"/><rect x="18" y="21" width="1" height="1"/><rect x="19" y="21" width="1" height="1"/><rect x="20" y="21" width="1" height="1"/><rect x="23" y="21" width="1" height="1"/><rect x="25" y="21" width="1" height="1"/><rect x="27" y="21" width="1" height="1"/><rect x="28" y="21" width="1" height="1"/><rect x="30" y="21" width="1" height="1"/><rect y="22" width="1" height="1"/><rect x="5" y="22" width="1" height="1"/><rect x="6" y="22" width="1" height="1"/><rect x="7" y="22" width="1" height="1"/><rect x="9" y="22" width="1" height="1"/><rect x="10" y="22" width="1" height="1"/><rect x="11" y="22" width="1" height="1"/><rect x="13" y="22" width="1" height="1"/><rect x="15" y="22" width="1" height="1"/><rect x="17" y="22" width="1" height="1"/><rect x="21" y="22" width="1" height="1"/><rect x="23" y="22" width="1" height="1"/><rect x="25" y="22" width="1" height="1"/><rect x="26" y="22" width="1" height="1"/><rect x="27" y="22" width="1" height="1"/><rect x="28" y="22" width="1" height="1"/><rect x="31" y="22" width="1" height="1"/><rect x="32" y="22" width="1" height="1"/><rect y="23" width="1" height="1"/><rect x="4" y="23" width="1" height="1"/><rect x="8" y="23" width="1" height="1"/><rect x="10" y="23" width="1" height="1"/><rect x="11" y="23" width="1" height="1"/><rect x="12" y="23" width="1" height="1"/><rect x="13" y="23" width="1" height="1"/><rect x="15" y="23" width="1" height="1"/><rect x="17" y="23" width="1" height="1"/><rect x="19" y="23" width="1" height="1"/><rect x="22" y="23" width="1" height="1"/><rect x="24" y="23" width="1" height="1"/><rect x="30" y="23" width="1" height="1"/><rect x="32" y="23" width="1" height="1"/><rect y="24" width="1" height="1"/><rect x="1" y="24" width="1" height="1"/><rect x="4" y="24" width="1" height="1"/><rect x="5" y="24" width="1" height="1"/><rect x="6" y="24" width="1" height="1"/><rect x="7" y="24" width="1" height="1"/><rect x="8" y="24" width="1" height="1"/><rect x="11" y="24" width="1" height="1"/><rect x="12" y="24" width="1" height="1"/><rect x="13" y="24" width="1" height="1"/><rect x="15" y="24" width="1" height="1"/><rect x="16" y="24" width="1" height="1"/><rect x="19" y="24" width="1" height="1"/><rect x="23" y="24" width="1" height="1"/><rect x="24" y="24" width="1" height="1"/><rect x="25" y="24" width="1" height="1"/><rect x="26" y="24" width="1" height="1"/><rect x="27" y="24" width="1" height="1"/><rect x="28" y="24" width="1" height="1"/><rect x="29" y="24" width="1" height="1"/><rect x="31" y="24" width="1" height="1"/><rect x="32" y="24" width="1" height="1"/><rect x="8" y="25" width="1" height="1"/><rect x="9" y="25" width="1" height="1"/><rect x="13" y="25" width="1" height="1"/><rect x="14" y="25" width="1" height="1"/><rect x="15" y="25" width="1" height="1"/><rect x="16" y="25" width="1" height="1"/><rect x="20" y="25" width="1" height="1"/><rect x="21" y="25" width="1" height="1"/><rect x="22" y="25" width="1" height="1"/><rect x="24" y="25" width="1" height="1"/><rect x="28" y="25" width="1" height="1"/><rect x="30" y="25" width="1" height="1"/><rect x="31" y="25" width="1" height="1"/><rect y="26" width="1" height="1"/><rect x="1" y="26" width="1" height="1"/><rect x="2" y="26" width="1" height="1"/><rect x="3" y="26" width="1" height="1"/><rect x="4" y="26" width="1" height="1"/><rect x="5" y="26" width="1" height="1"/><rect x="6" y="26" width="1" height="1"/><rect x="10" y="26" width="1" height="1"/><rect x="11" y="26" width="1" height="1"/><rect x="12" y="26" width="1" height="1"/><rect x="13" y="26" width="1" height="1"/><rect x="15" y="26" width="1" height="1"/><rect x="17" y="26" width="1" height="1"/><rect x="19" y="26" width="1" height="1"/><rect x="20" y="26" width="1" height="1"/><rect x="21" y="26" width="1" height="1"/><rect x="22" y="26" width="1" height="1"/><rect x="23" y="26" width="1" height="1"/><rect x="24" y="26" width="1" height="1"/><rect x="26" y="26" width="1" height="1"/><rect x="28" y="26" width="1" height="1"/><rect x="29" y="26" width="1" height="1"/><rect x="30" y="26" width="1" height="1"/><rect y="27" width="1" height="1"/><rect x="6" y="27" width="1" height="1"/><rect x="9" y="27" width="1" height="1"/><rect x="10" y="27" width="1" height="1"/><rect x="11" y="27" width="1" height="1"/><rect x="16" y="27" width="1" height="1"/><rect x="19" y="27" width="1" height="1"/><rect x="23" y="27" width="1" height="1"/><rect x="24" y="27" width="1" height="1"/><rect x="28" y="27" width="1" height="1"/><rect x="29" y="27" width="1" height="1"/><rect x="30" y="27" width="1" height="1"/><rect y="28" width="1" height="1"/><rect x="2" y="28" width="1" height="1"/><rect x="3" y="28" width="1" height="1"/><rect x="4" y="28" width="1" height="1"/><rect x="6" y="28" width="1" height="1"/><rect x="8" y="28" width="1" height="1"/><rect x="10" y="28" width="1" height="1"/><rect x="14" y="28" width="1" height="1"/><rect x="15" y="28" width="1" height="1"/><rect x="16" y="28" width="1" height="1"/><rect x="20" y="28" width="1" height="1"/><rect x="22" y="28" width="1" height="1"/><rect x="23" y="28" width="1" height="1"/><rect x="24" y="28" width="1" height="1"/><rect x="25" y="28" width="1" height="1"/><rect x="26" y="28" width="1" height="1"/><rect x="27" y="28" width="1" height="1"/><rect x="28" y="28" width="1" height="1"/><rect x="31" y="28" width="1" height="1"/><rect x="32" y="28" width="1" height="1"/><rect y="29" width="1" height="1"/><rect x="2" y="29" width="1" height="1"/><rect x="3" y="29" width="1" height="1"/><rect x="4" y="29" width="1" height="1"/><rect x="6" y="29" width="1" height="1"/><rect x="8" y="29" width="1" height="1"/><rect x="11" y="29" width="1" height="1"/><rect x="12" y="29" width="1" height="1"/><rect x="13" y="29" width="1" height="1"/><rect x="14" y="29" width="1" height="1"/><rect x="15" y="29" width="1" height="1"/><rect x="17" y="29" width="1" height="1"/><rect x="18" y="29" width="1" height="1"/><rect x="19" y="29" width="1" height="1"/><rect x="20" y="29" width="1" height="1"/><rect x="22" y="29" width="1" height="1"/><rect x="23" y="29" width="1" height="1"/><rect x="24" y="29" width="1" height="1"/><rect x="27" y="29" width="1" height="1"/><rect x="29" y="29" width="1" height="1"/><rect x="30" y="29" width="1" height="1"/><rect x="31" y="29" width="1" height="1"/><rect x="32" y="29" width="1" height="1"/><rect y="30" width="1" height="1"/><rect x="2" y="30" width="1" height="1"/><rect x="3" y="30" width="1" height="1"/><rect x="4" y="30" width="1" height="1"/><rect x="6" y="30" width="1" height="1"/><rect x="9" y="30" width="1" height="1"/><rect x="11" y="30" width="1" height="1"/><rect x="15" y="30" width="1" height="1"/><rect x="19" y="30" width="1" height="1"/><rect x="20" y="30" width="1" height="1"/><rect x="24" y="30" width="1" height="1"/><rect x="27" y="30" width="1" height="1"/><rect x="28" y="30" width="1" height="1"/><rect x="31" y="30" width="1" height="1"/><rect x="32" y="30" width="1" height="1"/><rect y="31" width="1" height="1"/><rect x="6" y="31" width="1" height="1"/><rect x="8" y="31" width="1" height="1"/><rect x="12" y="31" width="1" height="1"/><rect x="14" y="31" width="1" height="1"/><rect x="19" y="31" width="1" height="1"/><rect x="22" y="31" width="1" height="1"/><rect x="23" y="31" width="1" height="1"/><rect x="25" y="31" width="1" height="1"/><rect x="29" y="31" width="1" height="1"/><rect x="30" y="31" width="1" height="1"/><rect x="31" y="31" width="1" height="1"/><rect x="32" y="31" width="1" height="1"/><rect y="32" width="1" height="1"/><rect x="1" y="32" width="1" height="1"/><rect x="2" y="32" width="1" height="1"/><rect x="3" y="32" width="1" height="1"/><rect x="4" y="32" width="1" height="1"/><rect x="5" y="32" width="1" height="1"/><rect x="6" y="32" width="1" height="1"/><rect x="8" y="32" width="1" height="1"/><rect x="12" y="32" width="1" height="1"/><rect x="13" y="32" width="1" height="1"/><rect x="14" y="32" width="1" height="1"/><rect x="15" y="32" width="1" height="1"/><rect x="17" y="32" width="1" height="1"/><rect x="19" y="32" width="1" height="1"/><rect x="24" y="32" width="1" height="1"/><rect x="25" y="32" width="1" height="1"/><rect x="27" y="32" width="1" height="1"/></g></g></svg>
