<?xml version="1.0" encoding="UTF-8"?>
<svg width="512" height="512" preserveAspectRatio="none" version="1.1" viewBox="0 0 127.86 127.86" xmlns="http://www.w3.org/2000/svg"><g id="QRcode" transform="scale(3.4558)"><rect width="37" height="37" fill="#fff"/><g id="Pattern" transform="translate(4,4)"><rect width="1" height="1"/><rect x="1" width="1" height="1"/><rect x="2" width="1" height="1"/><rect x="3" width="1" height="1"/><rect x="4" width="1" height="1"/><rect x="5" width="1" height="1"/><rect x="6" width="1" height="1"/><rect x="10" width="1" height="1"/><rect x="12" width="1" height="1"/><rect x="14" width="1" height="1"/><rect x="18" width="1" height="1"/><rect x="20" width="1" height="1"/><rect x="22" width="1" height="1"/><rect x="23" width="1" height="1"/><rect x="24" width="1" height="1"/><rect x="25" width="1" height="1"/><rect x="26" width="1" height="1"/><rect x="27" width="1" height="1"/><rect x="28" width="1" height="1"/><rect y="1" width="1" height="1"/><rect x="6" y="1" width="1" height="1"/><rect x="8" y="1" width="1" height="1"/><rect x="10" y="1" width="1" height="1"/><rect x="14" y="1" width="1" height="1"/><rect x="15" y="1" width="1" height="1"/><rect x="16" y="1" width="1" height="1"/><rect x="17" y="1" width="1" height="1"/><rect x="18" y="1" width="1" height="1"/><rect x="22" y="1" width="1" height="1"/><rect x="28" y="1" width="1" height="1"/><rect y="2" width="1" height="1"/><rect x="2" y="2" width="1" height="1"/><rect x="3" y="2" width="1" height="1"/><rect x="4" y="2" width="1" height="1"/><rect x="6" y="2" width="1" height="1"/><rect x="12" y="2" width="1" height="1"/><rect x="14" y="2" width="1" height="1"/><rect x="16" y="2" width="1" height="1"/><rect x="20" y="2" width="1" height="1"/><rect x="22" y="2" width="1" height="1"/><rect x="24" y="2" width="1" height="1"/><rect x="25" y="2" width="1" height="1"/><rect x="26" y="2" width="1" height="1"/><rect x="28" y="2" width="1" height="1"/><rect y="3" width="1" height="1"/><rect x="2" y="3" width="1" height="1"/><rect x="3" y="3" width="1" height="1"/><rect x="4" y="3" width="1" height="1"/><rect x="6" y="3" width="1" height="1"/><rect x="8" y="3" width="1" height="1"/><rect x="9" y="3" width="1" height="1"/><rect x="10" y="3" width="1" height="1"/><rect x="12" y="3" width="1" height="1"/><rect x="14" y="3" width="1" height="1"/><rect x="15" y="3" width="1" height="1"/><rect x="16" y="3" width="1" height="1"/><rect x="17" y="3" width="1" height="1"/><rect x="20" y="3" width="1" height="1"/><rect x="22" y="3" width="1" height="1"/><rect x="24" y="3" width="1" height="1"/><rect x="25" y="3" width="1" height="1"/><rect x="26" y="3" width="1" height="1"/><rect x="28" y="3" width="1" height="1"/><rect y="4" width="1" height="1"/><rect x="2" y="4" width="1" height="1"/><rect x="3" y="4" width="1" height="1"/><rect x="4" y="4" width="1" height="1"/><rect x="6" y="4" width="1" height="1"/><rect x="9" y="4" width="1" height="1"/><rect x="18" y="4" width="1" height="1"/><rect x="19" y="4" width="1" height="1"/><rect x="22" y="4" width="1" height="1"/><rect x="24" y="4" width="1" height="1"/><rect x="25" y="4" width="1" height="1"/><rect x="26" y="4" width="1" height="1"/><rect x="28" y="4" width="1" height="1"/><rect y="5" width="1" height="1"/><rect x="6" y="5" width="1" height="1"/><rect x="8" y="5" width="1" height="1"/><rect x="9" y="5" width="1" height="1"/><rect x="11" y="5" width="1" height="1"/><rect x="12" y="5" width="1" height="1"/><rect x="13" y="5" width="1" height="1"/><rect x="14" y="5" width="1" height="1"/><rect x="15" y="5" width="1" height="1"/><rect x="16" y="5" width="1" height="1"/><rect x="22" y="5" width="1" height="1"/><rect x="28" y="5" width="1" height="1"/><rect y="6" width="1" height="1"/><rect x="1" y="6" width="1" height="1"/><rect x="2" y="6" width="1" height="1"/><rect x="3" y="6" width="1" height="1"/><rect x="4" y="6" width="1" height="1"/><rect x="5" y="6" width="1" height="1"/><rect x="6" y="6" width="1" height="1"/><rect x="8" y="6" width="1" height="1"/><rect x="10" y="6" width="1" height="1"/><rect x="12" y="6" width="1" height="1"/><rect x="14" y="6" width="1" height="1"/><rect x="16" y="6" width="1" height="1"/><rect x="18" y="6" width="1" height="1"/><rect x="20" y="6" width="1" height="1"/><rect x="22" y="6" width="1" height="1"/><rect x="23" y="6" width="1" height="1"/><rect x="24" y="6" width="1" height="1"/><rect x="25" y="6" width="1" height="1"/><rect x="26" y="6" width="1" height="1"/><rect x="27" y="6" width="1" height="1"/><rect x="28" y="6" width="1" height="1"/><rect x="9" y="7" width="1" height="1"/><rect x="10" y="7" width="1" height="1"/><rect x="11" y="7" width="1" height="1"/><rect x="15" y="7" width="1" height="1"/><rect x="16" y="7" width="1" height="1"/><rect x="19" y="7" width="1" height="1"/><rect x="20" y="7" width="1" height="1"/><rect y="8" width="1" height="1"/><rect x="1" y="8" width="1" height="1"/><rect x="2" y="8" width="1" height="1"/><rect x="3" y="8" width="1" height="1"/><rect x="4" y="8" width="1" height="1"/><rect x="6" y="8" width="1" height="1"/><rect x="7" y="8" width="1" height="1"/><rect x="8" y="8" width="1" height="1"/><rect x="9" y="8" width="1" height="1"/><rect x="11" y="8" width="1" height="1"/><rect x="13" y="8" width="1" height="1"/><rect x="14" y="8" width="1" height="1"/><rect x="15" y="8" width="1" height="1"/><rect x="20" y="8" width="1" height="1"/><rect x="21" y="8" width="1" height="1"/><rect x="23" y="8" width="1" height="1"/><rect x="25" y="8" width="1" height="1"/><rect x="27" y="8" width="1" height="1"/><rect y="9" width="1" height="1"/><rect x="1" y="9" width="1" height="1"/><rect x="3" y="9" width="1" height="1"/><rect x="7" y="9" width="1" height="1"/><rect x="10" y="9" width="1" height="1"/><rect x="12" y="9" width="1" height="1"/><rect x="15" y="9" width="1" height="1"/><rect x="16" y="9" width="1" height="1"/><rect x="18" y="9" width="1" height="1"/><rect x="19" y="9" width="1" height="1"/><rect x="21" y="9" width="1" height="1"/><rect x="22" y="9" width="1" height="1"/><rect x="23" y="9" width="1" height="1"/><rect x="24" y="9" width="1" height="1"/><rect x="25" y="9" width="1" height="1"/><rect x="27" y="9" width="1" height="1"/><rect y="10" width="1" height="1"/><rect x="2" y="10" width="1" height="1"/><rect x="6" y="10" width="1" height="1"/><rect x="7" y="10" width="1" height="1"/><rect x="10" y="10" width="1" height="1"/><rect x="14" y="10" width="1" height="1"/><rect x="15" y="10" width="1" height="1"/><rect x="16" y="10" width="1" height="1"/><rect x="17" y="10" width="1" height="1"/><rect x="18" y="10" width="1" height="1"/><rect x="21" y="10" width="1" height="1"/><rect x="23" y="10" width="1" height="1"/><rect x="24" y="10" width="1" height="1"/><rect x="2" y="11" width="1" height="1"/><rect x="4" y="11" width="1" height="1"/><rect x="5" y="11" width="1" height="1"/><rect x="8" y="11" width="1" height="1"/><rect x="12" y="11" width="1" height="1"/><rect x="18" y="11" width="1" height="1"/><rect x="19" y="11" width="1" height="1"/><rect x="20" y="11" width="1" height="1"/><rect x="24" y="11" width="1" height="1"/><rect x="25" y="11" width="1" height="1"/><rect x="3" y="12" width="1" height="1"/><rect x="4" y="12" width="1" height="1"/><rect x="5" y="12" width="1" height="1"/><rect x="6" y="12" width="1" height="1"/><rect x="7" y="12" width="1" height="1"/><rect x="9" y="12" width="1" height="1"/><rect x="10" y="12" width="1" height="1"/><rect x="12" y="12" width="1" height="1"/><rect x="14" y="12" width="1" height="1"/><rect x="15" y="12" width="1" height="1"/><rect x="16" y="12" width="1" height="1"/><rect x="17" y="12" width="1" height="1"/><rect x="20" y="12" width="1" height="1"/><rect x="26" y="12" width="1" height="1"/><rect x="27" y="12" width="1" height="1"/><rect y="13" width="1" height="1"/><rect x="1" y="13" width="1" height="1"/><rect x="4" y="13" width="1" height="1"/><rect x="5" y="13" width="1" height="1"/><rect x="7" y="13" width="1" height="1"/><rect x="8" y="13" width="1" height="1"/><rect x="18" y="13" width="1" height="1"/><rect x="19" y="13" width="1" height="1"/><rect x="21" y="13" width="1" height="1"/><rect x="22" y="13" width="1" height="1"/><rect x="23" y="13" width="1" height="1"/><rect x="24" y="13" width="1" height="1"/><rect x="25" y="13" width="1" height="1"/><rect x="28" y="13" width="1" height="1"/><rect y="14" width="1" height="1"/><rect x="3" y="14" width="1" height="1"/><rect x="6" y="14" width="1" height="1"/><rect x="7" y="14" width="1" height="1"/><rect x="8" y="14" width="1" height="1"/><rect x="9" y="14" width="1" height="1"/><rect x="10" y="14" width="1" height="1"/><rect x="11" y="14" width="1" height="1"/><rect x="12" y="14" width="1" height="1"/><rect x="14" y="14" width="1" height="1"/><rect x="15" y="14" width="1" height="1"/><rect x="17" y="14" width="1" height="1"/><rect x="18" y="14" width="1" height="1"/><rect x="24" y="14" width="1" height="1"/><rect x="27" y="14" width="1" height="1"/><rect x="2" y="15" width="1" height="1"/><rect x="3" y="15" width="1" height="1"/><rect x="5" y="15" width="1" height="1"/><rect x="7" y="15" width="1" height="1"/><rect x="9" y="15" width="1" height="1"/><rect x="10" y="15" width="1" height="1"/><rect x="11" y="15" width="1" height="1"/><rect x="15" y="15" width="1" height="1"/><rect x="19" y="15" width="1" height="1"/><rect x="21" y="15" width="1" height="1"/><rect x="22" y="15" width="1" height="1"/><rect x="25" y="15" width="1" height="1"/><rect x="27" y="15" width="1" height="1"/><rect y="16" width="1" height="1"/><rect x="6" y="16" width="1" height="1"/><rect x="7" y="16" width="1" height="1"/><rect x="8" y="16" width="1" height="1"/><rect x="10" y="16" width="1" height="1"/><rect x="11" y="16" width="1" height="1"/><rect x="13" y="16" width="1" height="1"/><rect x="15" y="16" width="1" height="1"/><rect x="16" y="16" width="1" height="1"/><rect x="17" y="16" width="1" height="1"/><rect x="21" y="16" width="1" height="1"/><rect x="23" y="16" width="1" height="1"/><rect x="27" y="16" width="1" height="1"/><rect x="28" y="16" width="1" height="1"/><rect y="17" width="1" height="1"/><rect x="1" y="17" width="1" height="1"/><rect x="3" y="17" width="1" height="1"/><rect x="5" y="17" width="1" height="1"/><rect x="8" y="17" width="1" height="1"/><rect x="9" y="17" width="1" height="1"/><rect x="12" y="17" width="1" height="1"/><rect x="14" y="17" width="1" height="1"/><rect x="18" y="17" width="1" height="1"/><rect x="19" y="17" width="1" height="1"/><rect x="20" y="17" width="1" height="1"/><rect x="22" y="17" width="1" height="1"/><rect x="24" y="17" width="1" height="1"/><rect x="25" y="17" width="1" height="1"/><rect x="28" y="17" width="1" height="1"/><rect y="18" width="1" height="1"/><rect x="2" y="18" width="1" height="1"/><rect x="5" y="18" width="1" height="1"/><rect x="6" y="18" width="1" height="1"/><rect x="8" y="18" width="1" height="1"/><rect x="9" y="18" width="1" height="1"/><rect x="14" y="18" width="1" height="1"/><rect x="15" y="18" width="1" height="1"/><rect x="21" y="18" width="1" height="1"/><rect x="22" y="18" width="1" height="1"/><rect x="24" y="18" width="1" height="1"/><rect y="19" width="1" height="1"/><rect x="5" y="19" width="1" height="1"/><rect x="12" y="19" width="1" height="1"/><rect x="15" y="19" width="1" height="1"/><rect x="16" y="19" width="1" height="1"/><rect x="27" y="19" width="1" height="1"/><rect y="20" width="1" height="1"/><rect x="3" y="20" width="1" height="1"/><rect x="5" y="20" width="1" height="1"/><rect x="6" y="20" width="1" height="1"/><rect x="7" y="20" width="1" height="1"/><rect x="10" y="20" width="1" height="1"/><rect x="12" y="20" width="1" height="1"/><rect x="13" y="20" width="1" height="1"/><rect x="15" y="20" width="1" height="1"/><rect x="17" y="20" width="1" height="1"/><rect x="18" y="20" width="1" height="1"/><rect x="19" y="20" width="1" height="1"/><rect x="20" y="20" width="1" height="1"/><rect x="21" y="20" width="1" height="1"/><rect x="22" y="20" width="1" height="1"/><rect x="23" y="20" width="1" height="1"/><rect x="24" y="20" width="1" height="1"/><rect x="25" y="20" width="1" height="1"/><rect x="26" y="20" width="1" height="1"/><rect x="27" y="20" width="1" height="1"/><rect x="8" y="21" width="1" height="1"/><rect x="9" y="21" width="1" height="1"/><rect x="10" y="21" width="1" height="1"/><rect x="13" y="21" width="1" height="1"/><rect x="14" y="21" width="1" height="1"/><rect x="15" y="21" width="1" height="1"/><rect x="16" y="21" width="1" height="1"/><rect x="17" y="21" width="1" height="1"/><rect x="19" y="21" width="1" height="1"/><rect x="20" y="21" width="1" height="1"/><rect x="24" y="21" width="1" height="1"/><rect x="26" y="21" width="1" height="1"/><rect x="28" y="21" width="1" height="1"/><rect y="22" width="1" height="1"/><rect x="1" y="22" width="1" height="1"/><rect x="2" y="22" width="1" height="1"/><rect x="3" y="22" width="1" height="1"/><rect x="4" y="22" width="1" height="1"/><rect x="5" y="22" width="1" height="1"/><rect x="6" y="22" width="1" height="1"/><rect x="8" y="22" width="1" height="1"/><rect x="9" y="22" width="1" height="1"/><rect x="11" y="22" width="1" height="1"/><rect x="12" y="22" width="1" height="1"/><rect x="15" y="22" width="1" height="1"/><rect x="16" y="22" width="1" height="1"/><rect x="18" y="22" width="1" height="1"/><rect x="19" y="22" width="1" height="1"/><rect x="20" y="22" width="1" height="1"/><rect x="22" y="22" width="1" height="1"/><rect x="24" y="22" width="1" height="1"/><rect x="25" y="22" width="1" height="1"/><rect x="27" y="22" width="1" height="1"/><rect y="23" width="1" height="1"/><rect x="6" y="23" width="1" height="1"/><rect x="11" y="23" width="1" height="1"/><rect x="14" y="23" width="1" height="1"/><rect x="20" y="23" width="1" height="1"/><rect x="24" y="23" width="1" height="1"/><rect x="25" y="23" width="1" height="1"/><rect x="27" y="23" width="1" height="1"/><rect x="28" y="23" width="1" height="1"/><rect y="24" width="1" height="1"/><rect x="2" y="24" width="1" height="1"/><rect x="3" y="24" width="1" height="1"/><rect x="4" y="24" width="1" height="1"/><rect x="6" y="24" width="1" height="1"/><rect x="8" y="24" width="1" height="1"/><rect x="11" y="24" width="1" height="1"/><rect x="15" y="24" width="1" height="1"/><rect x="17" y="24" width="1" height="1"/><rect x="20" y="24" width="1" height="1"/><rect x="21" y="24" width="1" height="1"/><rect x="22" y="24" width="1" height="1"/><rect x="23" y="24" width="1" height="1"/><rect x="24" y="24" width="1" height="1"/><rect x="26" y="24" width="1" height="1"/><rect x="27" y="24" width="1" height="1"/><rect x="28" y="24" width="1" height="1"/><rect y="25" width="1" height="1"/><rect x="2" y="25" width="1" height="1"/><rect x="3" y="25" width="1" height="1"/><rect x="4" y="25" width="1" height="1"/><rect x="6" y="25" width="1" height="1"/><rect x="8" y="25" width="1" height="1"/><rect x="9" y="25" width="1" height="1"/><rect x="10" y="25" width="1" height="1"/><rect x="12" y="25" width="1" height="1"/><rect x="13" y="25" width="1" height="1"/><rect x="16" y="25" width="1" height="1"/><rect x="18" y="25" width="1" height="1"/><rect x="19" y="25" width="1" height="1"/><rect x="21" y="25" width="1" height="1"/><rect x="23" y="25" width="1" height="1"/><rect x="27" y="25" width="1" height="1"/><rect x="28" y="25" width="1" height="1"/><rect y="26" width="1" height="1"/><rect x="2" y="26" width="1" height="1"/><rect x="3" y="26" width="1" height="1"/><rect x="4" y="26" width="1" height="1"/><rect x="6" y="26" width="1" height="1"/><rect x="8" y="26" width="1" height="1"/><rect x="9" y="26" width="1" height="1"/><rect x="10" y="26" width="1" height="1"/><rect x="13" y="26" width="1" height="1"/><rect x="14" y="26" width="1" height="1"/><rect x="15" y="26" width="1" height="1"/><rect x="16" y="26" width="1" height="1"/><rect x="18" y="26" width="1" height="1"/><rect x="20" y="26" width="1" height="1"/><rect x="22" y="26" width="1" height="1"/><rect x="24" y="26" width="1" height="1"/><rect x="25" y="26" width="1" height="1"/><rect x="26" y="26" width="1" height="1"/><rect x="27" y="26" width="1" height="1"/><rect y="27" width="1" height="1"/><rect x="6" y="27" width="1" height="1"/><rect x="8" y="27" width="1" height="1"/><rect x="10" y="27" width="1" height="1"/><rect x="12" y="27" width="1" height="1"/><rect x="13" y="27" width="1" height="1"/><rect x="15" y="27" width="1" height="1"/><rect x="19" y="27" width="1" height="1"/><rect x="20" y="27" width="1" height="1"/><rect x="21" y="27" width="1" height="1"/><rect x="23" y="27" width="1" height="1"/><rect x="24" y="27" width="1" height="1"/><rect x="27" y="27" width="1" height="1"/><rect y="28" width="1" height="1"/><rect x="1" y="28" width="1" height="1"/><rect x="2" y="28" width="1" height="1"/><rect x="3" y="28" width="1" height="1"/><rect x="4" y="28" width="1" height="1"/><rect x="5" y="28" width="1" height="1"/><rect x="6" y="28" width="1" height="1"/><rect x="8" y="28" width="1" height="1"/><rect x="9" y="28" width="1" height="1"/><rect x="12" y="28" width="1" height="1"/><rect x="14" y="28" width="1" height="1"/><rect x="16" y="28" width="1" height="1"/><rect x="17" y="28" width="1" height="1"/><rect x="18" y="28" width="1" height="1"/><rect x="24" y="28" width="1" height="1"/><rect x="25" y="28" width="1" height="1"/><rect x="26" y="28" width="1" height="1"/></g></g></svg>
