<?xml version="1.0" encoding="UTF-8"?>
<svg width="512" height="512" preserveAspectRatio="none" version="1.1" viewBox="0 0 128.07 128.07" xmlns="http://www.w3.org/2000/svg"><g id="QRcode" transform="matrix(2.846 0 0 2.846 0 -4e-4)"><rect width="45" height="45" fill="#fff"/><g id="Pattern" transform="translate(4,4)"><rect width="1" height="1"/><rect x="1" width="1" height="1"/><rect x="2" width="1" height="1"/><rect x="3" width="1" height="1"/><rect x="4" width="1" height="1"/><rect x="5" width="1" height="1"/><rect x="6" width="1" height="1"/><rect x="9" width="1" height="1"/><rect x="15" width="1" height="1"/><rect x="16" width="1" height="1"/><rect x="18" width="1" height="1"/><rect x="20" width="1" height="1"/><rect x="21" width="1" height="1"/><rect x="26" width="1" height="1"/><rect x="28" width="1" height="1"/><rect x="30" width="1" height="1"/><rect x="31" width="1" height="1"/><rect x="32" width="1" height="1"/><rect x="33" width="1" height="1"/><rect x="34" width="1" height="1"/><rect x="35" width="1" height="1"/><rect x="36" width="1" height="1"/><rect y="1" width="1" height="1"/><rect x="6" y="1" width="1" height="1"/><rect x="8" y="1" width="1" height="1"/><rect x="9" y="1" width="1" height="1"/><rect x="11" y="1" width="1" height="1"/><rect x="12" y="1" width="1" height="1"/><rect x="13" y="1" width="1" height="1"/><rect x="14" y="1" width="1" height="1"/><rect x="15" y="1" width="1" height="1"/><rect x="16" y="1" width="1" height="1"/><rect x="17" y="1" width="1" height="1"/><rect x="18" y="1" width="1" height="1"/><rect x="24" y="1" width="1" height="1"/><rect x="25" y="1" width="1" height="1"/><rect x="26" y="1" width="1" height="1"/><rect x="27" y="1" width="1" height="1"/><rect x="30" y="1" width="1" height="1"/><rect x="36" y="1" width="1" height="1"/><rect y="2" width="1" height="1"/><rect x="2" y="2" width="1" height="1"/><rect x="3" y="2" width="1" height="1"/><rect x="4" y="2" width="1" height="1"/><rect x="6" y="2" width="1" height="1"/><rect x="9" y="2" width="1" height="1"/><rect x="10" y="2" width="1" height="1"/><rect x="11" y="2" width="1" height="1"/><rect x="14" y="2" width="1" height="1"/><rect x="15" y="2" width="1" height="1"/><rect x="16" y="2" width="1" height="1"/><rect x="18" y="2" width="1" height="1"/><rect x="21" y="2" width="1" height="1"/><rect x="23" y="2" width="1" height="1"/><rect x="30" y="2" width="1" height="1"/><rect x="32" y="2" width="1" height="1"/><rect x="33" y="2" width="1" height="1"/><rect x="34" y="2" width="1" height="1"/><rect x="36" y="2" width="1" height="1"/><rect y="3" width="1" height="1"/><rect x="2" y="3" width="1" height="1"/><rect x="3" y="3" width="1" height="1"/><rect x="4" y="3" width="1" height="1"/><rect x="6" y="3" width="1" height="1"/><rect x="8" y="3" width="1" height="1"/><rect x="9" y="3" width="1" height="1"/><rect x="11" y="3" width="1" height="1"/><rect x="13" y="3" width="1" height="1"/><rect x="14" y="3" width="1" height="1"/><rect x="15" y="3" width="1" height="1"/><rect x="16" y="3" width="1" height="1"/><rect x="17" y="3" width="1" height="1"/><rect x="20" y="3" width="1" height="1"/><rect x="23" y="3" width="1" height="1"/><rect x="24" y="3" width="1" height="1"/><rect x="26" y="3" width="1" height="1"/><rect x="27" y="3" width="1" height="1"/><rect x="28" y="3" width="1" height="1"/><rect x="30" y="3" width="1" height="1"/><rect x="32" y="3" width="1" height="1"/><rect x="33" y="3" width="1" height="1"/><rect x="34" y="3" width="1" height="1"/><rect x="36" y="3" width="1" height="1"/><rect y="4" width="1" height="1"/><rect x="2" y="4" width="1" height="1"/><rect x="3" y="4" width="1" height="1"/><rect x="4" y="4" width="1" height="1"/><rect x="6" y="4" width="1" height="1"/><rect x="10" y="4" width="1" height="1"/><rect x="12" y="4" width="1" height="1"/><rect x="13" y="4" width="1" height="1"/><rect x="14" y="4" width="1" height="1"/><rect x="16" y="4" width="1" height="1"/><rect x="18" y="4" width="1" height="1"/><rect x="19" y="4" width="1" height="1"/><rect x="20" y="4" width="1" height="1"/><rect x="21" y="4" width="1" height="1"/><rect x="22" y="4" width="1" height="1"/><rect x="23" y="4" width="1" height="1"/><rect x="25" y="4" width="1" height="1"/><rect x="26" y="4" width="1" height="1"/><rect x="30" y="4" width="1" height="1"/><rect x="32" y="4" width="1" height="1"/><rect x="33" y="4" width="1" height="1"/><rect x="34" y="4" width="1" height="1"/><rect x="36" y="4" width="1" height="1"/><rect y="5" width="1" height="1"/><rect x="6" y="5" width="1" height="1"/><rect x="8" y="5" width="1" height="1"/><rect x="10" y="5" width="1" height="1"/><rect x="15" y="5" width="1" height="1"/><rect x="16" y="5" width="1" height="1"/><rect x="17" y="5" width="1" height="1"/><rect x="18" y="5" width="1" height="1"/><rect x="20" y="5" width="1" height="1"/><rect x="24" y="5" width="1" height="1"/><rect x="25" y="5" width="1" height="1"/><rect x="27" y="5" width="1" height="1"/><rect x="30" y="5" width="1" height="1"/><rect x="36" y="5" width="1" height="1"/><rect y="6" width="1" height="1"/><rect x="1" y="6" width="1" height="1"/><rect x="2" y="6" width="1" height="1"/><rect x="3" y="6" width="1" height="1"/><rect x="4" y="6" width="1" height="1"/><rect x="5" y="6" width="1" height="1"/><rect x="6" y="6" width="1" height="1"/><rect x="8" y="6" width="1" height="1"/><rect x="10" y="6" width="1" height="1"/><rect x="12" y="6" width="1" height="1"/><rect x="14" y="6" width="1" height="1"/><rect x="16" y="6" width="1" height="1"/><rect x="18" y="6" width="1" height="1"/><rect x="20" y="6" width="1" height="1"/><rect x="22" y="6" width="1" height="1"/><rect x="24" y="6" width="1" height="1"/><rect x="26" y="6" width="1" height="1"/><rect x="28" y="6" width="1" height="1"/><rect x="30" y="6" width="1" height="1"/><rect x="31" y="6" width="1" height="1"/><rect x="32" y="6" width="1" height="1"/><rect x="33" y="6" width="1" height="1"/><rect x="34" y="6" width="1" height="1"/><rect x="35" y="6" width="1" height="1"/><rect x="36" y="6" width="1" height="1"/><rect x="12" y="7" width="1" height="1"/><rect x="16" y="7" width="1" height="1"/><rect x="18" y="7" width="1" height="1"/><rect x="19" y="7" width="1" height="1"/><rect x="20" y="7" width="1" height="1"/><rect x="21" y="7" width="1" height="1"/><rect x="22" y="7" width="1" height="1"/><rect x="23" y="7" width="1" height="1"/><rect x="24" y="7" width="1" height="1"/><rect x="27" y="7" width="1" height="1"/><rect x="28" y="7" width="1" height="1"/><rect y="8" width="1" height="1"/><rect x="1" y="8" width="1" height="1"/><rect x="2" y="8" width="1" height="1"/><rect x="3" y="8" width="1" height="1"/><rect x="4" y="8" width="1" height="1"/><rect x="6" y="8" width="1" height="1"/><rect x="7" y="8" width="1" height="1"/><rect x="8" y="8" width="1" height="1"/><rect x="9" y="8" width="1" height="1"/><rect x="10" y="8" width="1" height="1"/><rect x="12" y="8" width="1" height="1"/><rect x="14" y="8" width="1" height="1"/><rect x="15" y="8" width="1" height="1"/><rect x="16" y="8" width="1" height="1"/><rect x="17" y="8" width="1" height="1"/><rect x="21" y="8" width="1" height="1"/><rect x="22" y="8" width="1" height="1"/><rect x="23" y="8" width="1" height="1"/><rect x="25" y="8" width="1" height="1"/><rect x="27" y="8" width="1" height="1"/><rect x="29" y="8" width="1" height="1"/><rect x="31" y="8" width="1" height="1"/><rect x="33" y="8" width="1" height="1"/><rect x="35" y="8" width="1" height="1"/><rect x="2" y="9" width="1" height="1"/><rect x="5" y="9" width="1" height="1"/><rect x="8" y="9" width="1" height="1"/><rect x="9" y="9" width="1" height="1"/><rect x="16" y="9" width="1" height="1"/><rect x="18" y="9" width="1" height="1"/><rect x="19" y="9" width="1" height="1"/><rect x="20" y="9" width="1" height="1"/><rect x="21" y="9" width="1" height="1"/><rect x="22" y="9" width="1" height="1"/><rect x="23" y="9" width="1" height="1"/><rect x="25" y="9" width="1" height="1"/><rect x="26" y="9" width="1" height="1"/><rect x="27" y="9" width="1" height="1"/><rect x="28" y="9" width="1" height="1"/><rect x="30" y="9" width="1" height="1"/><rect x="31" y="9" width="1" height="1"/><rect x="34" y="9" width="1" height="1"/><rect x="36" y="9" width="1" height="1"/><rect y="10" width="1" height="1"/><rect x="2" y="10" width="1" height="1"/><rect x="3" y="10" width="1" height="1"/><rect x="6" y="10" width="1" height="1"/><rect x="8" y="10" width="1" height="1"/><rect x="11" y="10" width="1" height="1"/><rect x="12" y="10" width="1" height="1"/><rect x="14" y="10" width="1" height="1"/><rect x="15" y="10" width="1" height="1"/><rect x="16" y="10" width="1" height="1"/><rect x="17" y="10" width="1" height="1"/><rect x="18" y="10" width="1" height="1"/><rect x="20" y="10" width="1" height="1"/><rect x="21" y="10" width="1" height="1"/><rect x="22" y="10" width="1" height="1"/><rect x="24" y="10" width="1" height="1"/><rect x="27" y="10" width="1" height="1"/><rect x="30" y="10" width="1" height="1"/><rect x="32" y="10" width="1" height="1"/><rect x="33" y="10" width="1" height="1"/><rect x="35" y="10" width="1" height="1"/><rect x="36" y="10" width="1" height="1"/><rect y="11" width="1" height="1"/><rect x="2" y="11" width="1" height="1"/><rect x="7" y="11" width="1" height="1"/><rect x="9" y="11" width="1" height="1"/><rect x="10" y="11" width="1" height="1"/><rect x="11" y="11" width="1" height="1"/><rect x="15" y="11" width="1" height="1"/><rect x="18" y="11" width="1" height="1"/><rect x="20" y="11" width="1" height="1"/><rect x="21" y="11" width="1" height="1"/><rect x="22" y="11" width="1" height="1"/><rect x="23" y="11" width="1" height="1"/><rect x="24" y="11" width="1" height="1"/><rect x="27" y="11" width="1" height="1"/><rect x="36" y="11" width="1" height="1"/><rect y="12" width="1" height="1"/><rect x="1" y="12" width="1" height="1"/><rect x="2" y="12" width="1" height="1"/><rect x="4" y="12" width="1" height="1"/><rect x="6" y="12" width="1" height="1"/><rect x="7" y="12" width="1" height="1"/><rect x="8" y="12" width="1" height="1"/><rect x="9" y="12" width="1" height="1"/><rect x="10" y="12" width="1" height="1"/><rect x="11" y="12" width="1" height="1"/><rect x="13" y="12" width="1" height="1"/><rect x="14" y="12" width="1" height="1"/><rect x="16" y="12" width="1" height="1"/><rect x="20" y="12" width="1" height="1"/><rect x="21" y="12" width="1" height="1"/><rect x="22" y="12" width="1" height="1"/><rect x="25" y="12" width="1" height="1"/><rect x="26" y="12" width="1" height="1"/><rect x="28" y="12" width="1" height="1"/><rect x="29" y="12" width="1" height="1"/><rect x="30" y="12" width="1" height="1"/><rect x="32" y="12" width="1" height="1"/><rect x="33" y="12" width="1" height="1"/><rect x="34" y="12" width="1" height="1"/><rect y="13" width="1" height="1"/><rect x="1" y="13" width="1" height="1"/><rect x="2" y="13" width="1" height="1"/><rect x="4" y="13" width="1" height="1"/><rect x="5" y="13" width="1" height="1"/><rect x="12" y="13" width="1" height="1"/><rect x="17" y="13" width="1" height="1"/><rect x="18" y="13" width="1" height="1"/><rect x="19" y="13" width="1" height="1"/><rect x="20" y="13" width="1" height="1"/><rect x="21" y="13" width="1" height="1"/><rect x="23" y="13" width="1" height="1"/><rect x="25" y="13" width="1" height="1"/><rect x="28" y="13" width="1" height="1"/><rect x="29" y="13" width="1" height="1"/><rect x="30" y="13" width="1" height="1"/><rect x="31" y="13" width="1" height="1"/><rect x="33" y="13" width="1" height="1"/><rect x="34" y="13" width="1" height="1"/><rect x="35" y="13" width="1" height="1"/><rect x="5" y="14" width="1" height="1"/><rect x="6" y="14" width="1" height="1"/><rect x="7" y="14" width="1" height="1"/><rect x="8" y="14" width="1" height="1"/><rect x="13" y="14" width="1" height="1"/><rect x="15" y="14" width="1" height="1"/><rect x="16" y="14" width="1" height="1"/><rect x="17" y="14" width="1" height="1"/><rect x="18" y="14" width="1" height="1"/><rect x="21" y="14" width="1" height="1"/><rect x="27" y="14" width="1" height="1"/><rect x="30" y="14" width="1" height="1"/><rect x="31" y="14" width="1" height="1"/><rect x="34" y="14" width="1" height="1"/><rect x="36" y="14" width="1" height="1"/><rect y="15" width="1" height="1"/><rect x="2" y="15" width="1" height="1"/><rect x="4" y="15" width="1" height="1"/><rect x="8" y="15" width="1" height="1"/><rect x="12" y="15" width="1" height="1"/><rect x="14" y="15" width="1" height="1"/><rect x="15" y="15" width="1" height="1"/><rect x="18" y="15" width="1" height="1"/><rect x="19" y="15" width="1" height="1"/><rect x="21" y="15" width="1" height="1"/><rect x="22" y="15" width="1" height="1"/><rect x="27" y="15" width="1" height="1"/><rect x="29" y="15" width="1" height="1"/><rect x="30" y="15" width="1" height="1"/><rect y="16" width="1" height="1"/><rect x="2" y="16" width="1" height="1"/><rect x="3" y="16" width="1" height="1"/><rect x="4" y="16" width="1" height="1"/><rect x="6" y="16" width="1" height="1"/><rect x="7" y="16" width="1" height="1"/><rect x="8" y="16" width="1" height="1"/><rect x="9" y="16" width="1" height="1"/><rect x="12" y="16" width="1" height="1"/><rect x="13" y="16" width="1" height="1"/><rect x="14" y="16" width="1" height="1"/><rect x="16" y="16" width="1" height="1"/><rect x="19" y="16" width="1" height="1"/><rect x="21" y="16" width="1" height="1"/><rect x="22" y="16" width="1" height="1"/><rect x="23" y="16" width="1" height="1"/><rect x="24" y="16" width="1" height="1"/><rect x="25" y="16" width="1" height="1"/><rect x="28" y="16" width="1" height="1"/><rect x="29" y="16" width="1" height="1"/><rect x="30" y="16" width="1" height="1"/><rect x="31" y="16" width="1" height="1"/><rect x="32" y="16" width="1" height="1"/><rect y="17" width="1" height="1"/><rect x="3" y="17" width="1" height="1"/><rect x="7" y="17" width="1" height="1"/><rect x="9" y="17" width="1" height="1"/><rect x="10" y="17" width="1" height="1"/><rect x="18" y="17" width="1" height="1"/><rect x="19" y="17" width="1" height="1"/><rect x="20" y="17" width="1" height="1"/><rect x="26" y="17" width="1" height="1"/><rect x="27" y="17" width="1" height="1"/><rect x="28" y="17" width="1" height="1"/><rect x="29" y="17" width="1" height="1"/><rect x="30" y="17" width="1" height="1"/><rect x="31" y="17" width="1" height="1"/><rect x="33" y="17" width="1" height="1"/><rect x="36" y="17" width="1" height="1"/><rect x="3" y="18" width="1" height="1"/><rect x="6" y="18" width="1" height="1"/><rect x="10" y="18" width="1" height="1"/><rect x="11" y="18" width="1" height="1"/><rect x="12" y="18" width="1" height="1"/><rect x="13" y="18" width="1" height="1"/><rect x="15" y="18" width="1" height="1"/><rect x="17" y="18" width="1" height="1"/><rect x="20" y="18" width="1" height="1"/><rect x="21" y="18" width="1" height="1"/><rect x="25" y="18" width="1" height="1"/><rect x="27" y="18" width="1" height="1"/><rect x="28" y="18" width="1" height="1"/><rect x="29" y="18" width="1" height="1"/><rect x="30" y="18" width="1" height="1"/><rect x="31" y="18" width="1" height="1"/><rect x="32" y="18" width="1" height="1"/><rect x="34" y="18" width="1" height="1"/><rect x="35" y="18" width="1" height="1"/><rect x="36" y="18" width="1" height="1"/><rect y="19" width="1" height="1"/><rect x="1" y="19" width="1" height="1"/><rect x="3" y="19" width="1" height="1"/><rect x="5" y="19" width="1" height="1"/><rect x="7" y="19" width="1" height="1"/><rect x="8" y="19" width="1" height="1"/><rect x="11" y="19" width="1" height="1"/><rect x="18" y="19" width="1" height="1"/><rect x="19" y="19" width="1" height="1"/><rect x="21" y="19" width="1" height="1"/><rect x="23" y="19" width="1" height="1"/><rect x="24" y="19" width="1" height="1"/><rect x="27" y="19" width="1" height="1"/><rect x="29" y="19" width="1" height="1"/><rect x="30" y="19" width="1" height="1"/><rect x="35" y="19" width="1" height="1"/><rect x="36" y="19" width="1" height="1"/><rect x="1" y="20" width="1" height="1"/><rect x="3" y="20" width="1" height="1"/><rect x="4" y="20" width="1" height="1"/><rect x="6" y="20" width="1" height="1"/><rect x="7" y="20" width="1" height="1"/><rect x="11" y="20" width="1" height="1"/><rect x="14" y="20" width="1" height="1"/><rect x="19" y="20" width="1" height="1"/><rect x="21" y="20" width="1" height="1"/><rect x="22" y="20" width="1" height="1"/><rect x="23" y="20" width="1" height="1"/><rect x="24" y="20" width="1" height="1"/><rect x="26" y="20" width="1" height="1"/><rect x="28" y="20" width="1" height="1"/><rect x="29" y="20" width="1" height="1"/><rect x="30" y="20" width="1" height="1"/><rect x="33" y="20" width="1" height="1"/><rect x="34" y="20" width="1" height="1"/><rect y="21" width="1" height="1"/><rect x="3" y="21" width="1" height="1"/><rect x="7" y="21" width="1" height="1"/><rect x="9" y="21" width="1" height="1"/><rect x="12" y="21" width="1" height="1"/><rect x="13" y="21" width="1" height="1"/><rect x="14" y="21" width="1" height="1"/><rect x="16" y="21" width="1" height="1"/><rect x="18" y="21" width="1" height="1"/><rect x="20" y="21" width="1" height="1"/><rect x="21" y="21" width="1" height="1"/><rect x="23" y="21" width="1" height="1"/><rect x="26" y="21" width="1" height="1"/><rect x="31" y="21" width="1" height="1"/><rect x="33" y="21" width="1" height="1"/><rect x="34" y="21" width="1" height="1"/><rect x="35" y="21" width="1" height="1"/><rect y="22" width="1" height="1"/><rect x="6" y="22" width="1" height="1"/><rect x="7" y="22" width="1" height="1"/><rect x="8" y="22" width="1" height="1"/><rect x="10" y="22" width="1" height="1"/><rect x="15" y="22" width="1" height="1"/><rect x="16" y="22" width="1" height="1"/><rect x="17" y="22" width="1" height="1"/><rect x="20" y="22" width="1" height="1"/><rect x="25" y="22" width="1" height="1"/><rect x="27" y="22" width="1" height="1"/><rect x="28" y="22" width="1" height="1"/><rect x="30" y="22" width="1" height="1"/><rect x="31" y="22" width="1" height="1"/><rect x="32" y="22" width="1" height="1"/><rect x="33" y="22" width="1" height="1"/><rect x="35" y="22" width="1" height="1"/><rect x="36" y="22" width="1" height="1"/><rect y="23" width="1" height="1"/><rect x="2" y="23" width="1" height="1"/><rect x="3" y="23" width="1" height="1"/><rect x="5" y="23" width="1" height="1"/><rect x="12" y="23" width="1" height="1"/><rect x="14" y="23" width="1" height="1"/><rect x="15" y="23" width="1" height="1"/><rect x="16" y="23" width="1" height="1"/><rect x="21" y="23" width="1" height="1"/><rect x="24" y="23" width="1" height="1"/><rect x="27" y="23" width="1" height="1"/><rect x="28" y="23" width="1" height="1"/><rect x="29" y="23" width="1" height="1"/><rect x="31" y="23" width="1" height="1"/><rect x="35" y="23" width="1" height="1"/><rect x="36" y="23" width="1" height="1"/><rect y="24" width="1" height="1"/><rect x="1" y="24" width="1" height="1"/><rect x="6" y="24" width="1" height="1"/><rect x="8" y="24" width="1" height="1"/><rect x="10" y="24" width="1" height="1"/><rect x="12" y="24" width="1" height="1"/><rect x="14" y="24" width="1" height="1"/><rect x="15" y="24" width="1" height="1"/><rect x="16" y="24" width="1" height="1"/><rect x="17" y="24" width="1" height="1"/><rect x="19" y="24" width="1" height="1"/><rect x="20" y="24" width="1" height="1"/><rect x="21" y="24" width="1" height="1"/><rect x="22" y="24" width="1" height="1"/><rect x="23" y="24" width="1" height="1"/><rect x="25" y="24" width="1" height="1"/><rect x="26" y="24" width="1" height="1"/><rect x="29" y="24" width="1" height="1"/><rect x="30" y="24" width="1" height="1"/><rect x="32" y="24" width="1" height="1"/><rect x="33" y="24" width="1" height="1"/><rect x="35" y="24" width="1" height="1"/><rect x="36" y="24" width="1" height="1"/><rect y="25" width="1" height="1"/><rect x="7" y="25" width="1" height="1"/><rect x="8" y="25" width="1" height="1"/><rect x="10" y="25" width="1" height="1"/><rect x="14" y="25" width="1" height="1"/><rect x="19" y="25" width="1" height="1"/><rect x="21" y="25" width="1" height="1"/><rect x="22" y="25" width="1" height="1"/><rect x="23" y="25" width="1" height="1"/><rect x="24" y="25" width="1" height="1"/><rect x="26" y="25" width="1" height="1"/><rect x="28" y="25" width="1" height="1"/><rect x="30" y="25" width="1" height="1"/><rect x="31" y="25" width="1" height="1"/><rect x="34" y="25" width="1" height="1"/><rect x="35" y="25" width="1" height="1"/><rect y="26" width="1" height="1"/><rect x="3" y="26" width="1" height="1"/><rect x="4" y="26" width="1" height="1"/><rect x="5" y="26" width="1" height="1"/><rect x="6" y="26" width="1" height="1"/><rect x="8" y="26" width="1" height="1"/><rect x="11" y="26" width="1" height="1"/><rect x="12" y="26" width="1" height="1"/><rect x="14" y="26" width="1" height="1"/><rect x="15" y="26" width="1" height="1"/><rect x="16" y="26" width="1" height="1"/><rect x="20" y="26" width="1" height="1"/><rect x="26" y="26" width="1" height="1"/><rect x="27" y="26" width="1" height="1"/><rect x="28" y="26" width="1" height="1"/><rect x="29" y="26" width="1" height="1"/><rect x="30" y="26" width="1" height="1"/><rect x="31" y="26" width="1" height="1"/><rect x="33" y="26" width="1" height="1"/><rect x="36" y="26" width="1" height="1"/><rect y="27" width="1" height="1"/><rect x="3" y="27" width="1" height="1"/><rect x="5" y="27" width="1" height="1"/><rect x="7" y="27" width="1" height="1"/><rect x="8" y="27" width="1" height="1"/><rect x="9" y="27" width="1" height="1"/><rect x="10" y="27" width="1" height="1"/><rect x="11" y="27" width="1" height="1"/><rect x="14" y="27" width="1" height="1"/><rect x="15" y="27" width="1" height="1"/><rect x="16" y="27" width="1" height="1"/><rect x="18" y="27" width="1" height="1"/><rect x="19" y="27" width="1" height="1"/><rect x="21" y="27" width="1" height="1"/><rect x="22" y="27" width="1" height="1"/><rect x="24" y="27" width="1" height="1"/><rect x="27" y="27" width="1" height="1"/><rect x="28" y="27" width="1" height="1"/><rect x="30" y="27" width="1" height="1"/><rect x="32" y="27" width="1" height="1"/><rect x="36" y="27" width="1" height="1"/><rect y="28" width="1" height="1"/><rect x="2" y="28" width="1" height="1"/><rect x="6" y="28" width="1" height="1"/><rect x="8" y="28" width="1" height="1"/><rect x="9" y="28" width="1" height="1"/><rect x="10" y="28" width="1" height="1"/><rect x="11" y="28" width="1" height="1"/><rect x="13" y="28" width="1" height="1"/><rect x="14" y="28" width="1" height="1"/><rect x="15" y="28" width="1" height="1"/><rect x="17" y="28" width="1" height="1"/><rect x="19" y="28" width="1" height="1"/><rect x="25" y="28" width="1" height="1"/><rect x="27" y="28" width="1" height="1"/><rect x="28" y="28" width="1" height="1"/><rect x="29" y="28" width="1" height="1"/><rect x="30" y="28" width="1" height="1"/><rect x="31" y="28" width="1" height="1"/><rect x="32" y="28" width="1" height="1"/><rect x="34" y="28" width="1" height="1"/><rect x="35" y="28" width="1" height="1"/><rect x="36" y="28" width="1" height="1"/><rect x="8" y="29" width="1" height="1"/><rect x="12" y="29" width="1" height="1"/><rect x="14" y="29" width="1" height="1"/><rect x="15" y="29" width="1" height="1"/><rect x="16" y="29" width="1" height="1"/><rect x="18" y="29" width="1" height="1"/><rect x="19" y="29" width="1" height="1"/><rect x="20" y="29" width="1" height="1"/><rect x="21" y="29" width="1" height="1"/><rect x="22" y="29" width="1" height="1"/><rect x="23" y="29" width="1" height="1"/><rect x="26" y="29" width="1" height="1"/><rect x="28" y="29" width="1" height="1"/><rect x="32" y="29" width="1" height="1"/><rect x="35" y="29" width="1" height="1"/><rect y="30" width="1" height="1"/><rect x="1" y="30" width="1" height="1"/><rect x="2" y="30" width="1" height="1"/><rect x="3" y="30" width="1" height="1"/><rect x="4" y="30" width="1" height="1"/><rect x="5" y="30" width="1" height="1"/><rect x="6" y="30" width="1" height="1"/><rect x="8" y="30" width="1" height="1"/><rect x="9" y="30" width="1" height="1"/><rect x="10" y="30" width="1" height="1"/><rect x="13" y="30" width="1" height="1"/><rect x="15" y="30" width="1" height="1"/><rect x="21" y="30" width="1" height="1"/><rect x="24" y="30" width="1" height="1"/><rect x="25" y="30" width="1" height="1"/><rect x="28" y="30" width="1" height="1"/><rect x="30" y="30" width="1" height="1"/><rect x="32" y="30" width="1" height="1"/><rect x="33" y="30" width="1" height="1"/><rect x="36" y="30" width="1" height="1"/><rect y="31" width="1" height="1"/><rect x="6" y="31" width="1" height="1"/><rect x="9" y="31" width="1" height="1"/><rect x="10" y="31" width="1" height="1"/><rect x="12" y="31" width="1" height="1"/><rect x="15" y="31" width="1" height="1"/><rect x="18" y="31" width="1" height="1"/><rect x="19" y="31" width="1" height="1"/><rect x="21" y="31" width="1" height="1"/><rect x="22" y="31" width="1" height="1"/><rect x="26" y="31" width="1" height="1"/><rect x="28" y="31" width="1" height="1"/><rect x="32" y="31" width="1" height="1"/><rect x="33" y="31" width="1" height="1"/><rect x="35" y="31" width="1" height="1"/><rect y="32" width="1" height="1"/><rect x="2" y="32" width="1" height="1"/><rect x="3" y="32" width="1" height="1"/><rect x="4" y="32" width="1" height="1"/><rect x="6" y="32" width="1" height="1"/><rect x="8" y="32" width="1" height="1"/><rect x="12" y="32" width="1" height="1"/><rect x="13" y="32" width="1" height="1"/><rect x="14" y="32" width="1" height="1"/><rect x="16" y="32" width="1" height="1"/><rect x="19" y="32" width="1" height="1"/><rect x="22" y="32" width="1" height="1"/><rect x="23" y="32" width="1" height="1"/><rect x="24" y="32" width="1" height="1"/><rect x="26" y="32" width="1" height="1"/><rect x="27" y="32" width="1" height="1"/><rect x="28" y="32" width="1" height="1"/><rect x="29" y="32" width="1" height="1"/><rect x="30" y="32" width="1" height="1"/><rect x="31" y="32" width="1" height="1"/><rect x="32" y="32" width="1" height="1"/><rect x="34" y="32" width="1" height="1"/><rect x="35" y="32" width="1" height="1"/><rect y="33" width="1" height="1"/><rect x="2" y="33" width="1" height="1"/><rect x="3" y="33" width="1" height="1"/><rect x="4" y="33" width="1" height="1"/><rect x="6" y="33" width="1" height="1"/><rect x="8" y="33" width="1" height="1"/><rect x="10" y="33" width="1" height="1"/><rect x="13" y="33" width="1" height="1"/><rect x="15" y="33" width="1" height="1"/><rect x="16" y="33" width="1" height="1"/><rect x="18" y="33" width="1" height="1"/><rect x="20" y="33" width="1" height="1"/><rect x="21" y="33" width="1" height="1"/><rect x="28" y="33" width="1" height="1"/><rect x="29" y="33" width="1" height="1"/><rect x="30" y="33" width="1" height="1"/><rect x="31" y="33" width="1" height="1"/><rect x="32" y="33" width="1" height="1"/><rect x="33" y="33" width="1" height="1"/><rect x="35" y="33" width="1" height="1"/><rect x="36" y="33" width="1" height="1"/><rect y="34" width="1" height="1"/><rect x="2" y="34" width="1" height="1"/><rect x="3" y="34" width="1" height="1"/><rect x="4" y="34" width="1" height="1"/><rect x="6" y="34" width="1" height="1"/><rect x="8" y="34" width="1" height="1"/><rect x="11" y="34" width="1" height="1"/><rect x="12" y="34" width="1" height="1"/><rect x="15" y="34" width="1" height="1"/><rect x="16" y="34" width="1" height="1"/><rect x="18" y="34" width="1" height="1"/><rect x="25" y="34" width="1" height="1"/><rect x="26" y="34" width="1" height="1"/><rect x="29" y="34" width="1" height="1"/><rect x="33" y="34" width="1" height="1"/><rect x="34" y="34" width="1" height="1"/><rect x="35" y="34" width="1" height="1"/><rect x="36" y="34" width="1" height="1"/><rect y="35" width="1" height="1"/><rect x="6" y="35" width="1" height="1"/><rect x="8" y="35" width="1" height="1"/><rect x="10" y="35" width="1" height="1"/><rect x="11" y="35" width="1" height="1"/><rect x="14" y="35" width="1" height="1"/><rect x="15" y="35" width="1" height="1"/><rect x="16" y="35" width="1" height="1"/><rect x="21" y="35" width="1" height="1"/><rect x="22" y="35" width="1" height="1"/><rect x="23" y="35" width="1" height="1"/><rect x="26" y="35" width="1" height="1"/><rect x="28" y="35" width="1" height="1"/><rect x="29" y="35" width="1" height="1"/><rect x="30" y="35" width="1" height="1"/><rect x="32" y="35" width="1" height="1"/><rect x="36" y="35" width="1" height="1"/><rect y="36" width="1" height="1"/><rect x="1" y="36" width="1" height="1"/><rect x="2" y="36" width="1" height="1"/><rect x="3" y="36" width="1" height="1"/><rect x="4" y="36" width="1" height="1"/><rect x="5" y="36" width="1" height="1"/><rect x="6" y="36" width="1" height="1"/><rect x="8" y="36" width="1" height="1"/><rect x="9" y="36" width="1" height="1"/><rect x="10" y="36" width="1" height="1"/><rect x="11" y="36" width="1" height="1"/><rect x="12" y="36" width="1" height="1"/><rect x="15" y="36" width="1" height="1"/><rect x="17" y="36" width="1" height="1"/><rect x="19" y="36" width="1" height="1"/><rect x="22" y="36" width="1" height="1"/><rect x="23" y="36" width="1" height="1"/><rect x="24" y="36" width="1" height="1"/><rect x="25" y="36" width="1" height="1"/><rect x="26" y="36" width="1" height="1"/><rect x="27" y="36" width="1" height="1"/><rect x="29" y="36" width="1" height="1"/><rect x="31" y="36" width="1" height="1"/><rect x="33" y="36" width="1" height="1"/><rect x="34" y="36" width="1" height="1"/><rect x="35" y="36" width="1" height="1"/><rect x="36" y="36" width="1" height="1"/></g></g></svg>
