<?xml version="1.0" encoding="UTF-8" standalone="no"?>
<!-- Created with Inkscape (http://www.inkscape.org/) -->

<svg
   xmlns:dc="http://purl.org/dc/elements/1.1/"
   xmlns:cc="http://creativecommons.org/ns#"
   xmlns:rdf="http://www.w3.org/1999/02/22-rdf-syntax-ns#"
   xmlns:svg="http://www.w3.org/2000/svg"
   xmlns="http://www.w3.org/2000/svg"
   xmlns:sodipodi="http://sodipodi.sourceforge.net/DTD/sodipodi-0.dtd"
   xmlns:inkscape="http://www.inkscape.org/namespaces/inkscape"
   width="554"
   height="101.99998"
   id="svg2"
   version="1.1"
   inkscape:version="0.48.2 r9819"
   sodipodi:docname="mediagoblin.svg"
   inkscape:export-filename="mediagoblin.png"
   inkscape:export-xdpi="90"
   inkscape:export-ydpi="90">
  <defs
     id="defs4" />
  <sodipodi:namedview
     id="base"
     pagecolor="#ffffff"
     bordercolor="#666666"
     borderopacity="1.0"
     inkscape:pageopacity="0"
     inkscape:pageshadow="2"
     inkscape:zoom="1"
     inkscape:cx="279.13053"
     inkscape:cy="65.605728"
     inkscape:document-units="px"
     inkscape:current-layer="layer1"
     showgrid="false"
     borderlayer="true"
     inkscape:showpageshadow="false"
     inkscape:window-width="1280"
     inkscape:window-height="1000"
     inkscape:window-x="0"
     inkscape:window-y="24"
     inkscape:window-maximized="1"
     inkscape:snap-bbox="true"
     inkscape:bbox-paths="true"
     inkscape:bbox-nodes="true"
     inkscape:snap-bbox-midpoints="true"
     inkscape:snap-bbox-edge-midpoints="true"
     inkscape:object-paths="true"
     inkscape:object-nodes="true"
     inkscape:snap-midpoints="true"
     inkscape:snap-smooth-nodes="true"
     inkscape:snap-intersection-paths="true"
     inkscape:snap-object-midpoints="true"
     inkscape:snap-center="true"
     inkscape:snap-page="true"
     showguides="false"
     inkscape:guide-bbox="true"
     inkscape:snap-global="true"
     fit-margin-top="0"
     fit-margin-left="0"
     fit-margin-right="0"
     fit-margin-bottom="0"
     showborder="false">
    <sodipodi:guide
       orientation="1,0"
       position="1062.0155,252.54874"
       id="guide3002" />
    <inkscape:grid
       type="xygrid"
       id="grid4021"
       empspacing="5"
       visible="true"
       enabled="true"
       snapvisiblegridlinesonly="true" />
    <sodipodi:guide
       orientation="0,1"
       position="62.322892,118.88571"
       id="guide3814" />
    <sodipodi:guide
       orientation="0,1"
       position="154.25003,65.249969"
       id="guide3816" />
  </sodipodi:namedview>
  <metadata
     id="metadata7">
    <rdf:RDF>
      <cc:Work
         rdf:about="">
        <dc:format>image/svg+xml</dc:format>
        <dc:type
           rdf:resource="http://purl.org/dc/dcmitype/StillImage" />
        <dc:title></dc:title>
      </cc:Work>
    </rdf:RDF>
  </metadata>
  <g
     inkscape:label="main"
     inkscape:groupmode="layer"
     id="layer1"
     transform="translate(865.93433,-886.66071)">
    <g
       id="g3010"
       transform="matrix(0.68692139,0,0,0.52224846,-26.609327,197.42947)" />
    <g
       id="g3951"
       transform="matrix(0.75599155,0,0,0.75599155,-269.59547,339.3242)" />
    <g
       transform="matrix(0.75599155,0,0,0.75599155,5.8142558,339.3242)"
       id="g3969" />
    <path
       id="path3051"
       style="font-size:medium;font-style:normal;font-variant:normal;font-weight:normal;font-stretch:normal;text-indent:0;text-align:start;text-decoration:none;line-height:normal;letter-spacing:normal;word-spacing:normal;text-transform:none;direction:ltr;block-progression:tb;writing-mode:lr-tb;text-anchor:start;baseline-shift:baseline;color:#000000;fill:#000000;fill-opacity:1;stroke:none;stroke-width:11;marker:none;visibility:visible;display:inline;overflow:visible;enable-background:accumulate;font-family:Sans;-inkscape-font-specification:Sans"
       d="m -498.47812,909.8741 c -14.29997,-0.25966 -24.30551,9.34241 -26.50888,22.91161 -2.4313,14.97291 6.8419,28.27685 20.6875,30.5 13.84559,2.22316 27.00531,-7.50109 29.46875,-22.46875 2.41774,-14.68996 -7.14681,-30.64325 -23.64737,-30.94286 z m -1.10263,8.03661 c 11.82552,0.0748 16.8356,12.60864 15.5625,21.78125 -1.4685,10.58046 -9.88714,17.25696 -18.65625,15.6875 -8.7691,-1.56946 -14.66487,-10.77344 -13.125,-21.34375 1.3955,-9.57934 8.39284,-16.17451 16.21875,-16.125 z m 130.09735,-24.04343 c 0,3.62036 -2.93488,6.55525 -6.55524,6.55525 -3.62036,0 -6.55524,-2.93489 -6.55524,-6.55525 0,-3.62036 2.93488,-6.55524 6.55524,-6.55524 3.62036,0 6.55524,2.93488 6.55524,6.55524 z m -11.15801,16.87173 0,51.92717 9.20553,0 0,-51.92717 z m -280.41892,6e-5 0,51.92717 9.20553,0 0,-51.92717 z m 11.15802,-16.87173 c 0,3.62036 -2.93488,6.55525 -6.55524,6.55525 -3.62037,0 -6.55525,-2.93489 -6.55525,-6.55525 0,-3.62036 2.93488,-6.55524 6.55525,-6.55524 3.62036,0 6.55524,2.93488 6.55524,6.55524 z m 91.82766,15.94962 c -17.68301,0 -26.96853,15.66588 -26.96875,26.8125 -3.2e-4,16.07708 10.57093,26.13091 23.6875,26.875 4.79063,0.27178 11.67595,-0.19435 17.96875,-6.34375 0.25,15.44904 -3.39617,22.87085 -13.875,23.25 -7.92125,0.28661 -13.39214,-3.93545 -15.75595,-10.70298 l -7.46875,0 c 1.52404,7.39528 6.81992,18.97887 23.75595,18.64048 16.96269,-0.33892 22.5625,-13.84938 22.5625,-30.6875 l 0,-29.5625 c -0.0225,-6.25597 0.90001,-12.00727 2.71875,-17.34375 l -7.4375,0 c -0.95827,2.12785 -1.63064,4.94081 -2.27681,7.63925 -3.53047,-5.63263 -9.91399,-8.57675 -16.91069,-8.57675 z m 15.09375,27.75 c 0,9.35634 -7.1389,18.15625 -17.21875,18.15625 -10.36378,0 -15.59375,-9.243 -15.59375,-18.28125 0,-7.95083 4.08876,-18.88021 16.15625,-19.65625 7.84943,-0.50479 16.39174,7.25265 16.65625,19.78125 z m -143.1507,-50.84375 0,29.03125 c -3.26199,-4.21342 -10.81819,-6.62398 -16.34375,-6.3125 -17.88151,1.00802 -25.3123,17.2168 -25.3125,27.25 -3.2e-4,16.07708 10.47719,26.7559 23.59375,27.5 5.19493,0.29471 13.81969,-1.57948 19.625,-9.1875 0.60295,2.26134 1.86305,5.37114 3.15625,7.65625 l 7.4375,0 c -2.12044,-5.15404 -2.9375,-10.37795 -2.9375,-18.53125 l 0,-57.40625 z m -16.34375,30.875 c 12.02937,-0.0869 16.24638,9.43483 16.65625,19.59375 0,11.03464 -8.39635,19.0625 -17.21875,19.0625 -9.45765,0 -15.76506,-9.58978 -15.53125,-18.625 0.20843,-8.0541 4.61687,-19.94837 16.09375,-20.03125 z m -54.5723,-7.71875 c -14.69916,0 -25.74033,13.03618 -25.75,27.4375 -0.01,14.78695 10.244,26.125 23.65625,26.125 13.17686,0 17.98713,-4.04194 21.40625,-7.1875 l -4.3125,-5.0625 c -3.0707,2.07296 -7.16015,4.5625 -15.96875,4.5625 -7.45652,0 -14.61337,-5.22342 -15.5625,-14.375 12.17349,2.42928 34.34076,3.97324 38.34375,-8.3125 4.15154,-12.74162 -9.23233,-23.1875 -21.8125,-23.1875 z m -0.1875,7.875 c 7.44103,-0.28295 15.86681,7.08099 13.34375,12.5625 -1.07884,2.34384 -4.36121,3.84759 -11.0625,4.1875 -4.72973,0.2399 -11.67545,0.0602 -18.53125,-1.53125 1.38994,-7.13675 6.98538,-14.86646 16.25,-15.21875 z m 138.94915,-7.84375 c -6.22358,0 -12.35769,2.10385 -17.4375,5.78125 l 3.75,5.65625 c 4.03537,-2.17319 9.28716,-3.79268 14.34375,-3.46875 6.55828,0.42013 14.7598,2.73287 14.7598,14.233 -1.85084,-1.38482 -9.08908,-2.44485 -13.54105,-2.57675 -13.63282,-0.40393 -22.07092,5.70413 -22.86428,15.3125 -1.14325,13.84598 10.26769,18.625 20.33303,18.625 7.39807,5.2e-4 15.35814,-5.72151 17,-8.4375 0.43984,2.49906 2.01961,5.57335 3.125,7.625 l 7.46875,0 c -2.12043,-5.15404 -2.96875,-10.37795 -2.96875,-18.53125 l 0,-9.84375 c 0,-24.39387 -18.81089,-24.375 -23.96875,-24.375 z m 0.78125,27.4375 c 8.05656,-0.0156 14.8125,1.66674 14.8125,4.01961 0,6.72106 -7.55371,13.8524 -16.4375,14.23039 -4.54841,0.19353 -11.57496,-2.09719 -11.48928,-9.59375 0.0808,-7.06964 7.87645,-8.64609 13.11428,-8.65625 z m -223.80458,-27.53125 c -7.78959,0 -12.57316,3.37364 -14.53125,6.625 -0.75834,-1.89688 -1.49654,-3.84633 -2.375,-5.6875 l -7.4375,0 c 2.20887,5.93379 2.73712,12.19296 2.71875,17.3125 l 0,34.59375 9.21875,0 0,-34.78125 c 0,-6.65558 6.44423,-10.26976 12.4375,-10.40625 6.57556,-0.14975 9.05752,3.56709 9.125,8.90625 l 0,36.28125 9.1875,0 0,-34.78125 c 0,-6.65558 6.44424,-10.26976 12.4375,-10.40625 6.57556,-0.14975 9.18251,3.56709 9.25,8.90625 l 0,36.28125 9.21875,0 0,-36.28125 c 0,-11.16352 -8.04836,-16.5625 -18.5,-16.5625 -7.68395,0 -13.41885,3.49982 -15.34375,6.53125 -3.21828,-4.38545 -8.81153,-6.53125 -15.40625,-6.53125 z m 435.58675,-23.11502 0,60.98954 c 0,4.50655 1.82444,11.36243 4.13429,14.95446 l 7.46542,0 c -1.71595,-4.95183 -2.38614,-11.95254 -2.38614,-18.52179 l 0,-57.42221 z m -59.85447,0.0213 0,57.40625 c 0,8.48573 -0.72207,13.98198 -2.5625,18.53125 l 7.46875,0 c 0.49268,-1.18272 1.50645,-4.57275 2.125,-6.375 3.2358,3.63861 9.91843,7.15293 16.6875,7.28125 17.0179,0 26.83165,-13.62855 27.09375,-25.84375 0.32424,-15.11836 -9.23098,-28.09919 -25.40625,-27.96875 -7.10965,0.0573 -12.81683,3.2018 -16.1875,7.1875 l 0,-30.21875 -9.21875,0 z m 25.125,30.96875 c 0.34959,-0.0146 0.70152,-0.008 1.0625,0 6.22899,0.13299 15.65387,5.56214 15.4375,19.65625 -0.16934,11.02718 -8.18402,18.37679 -16.84375,18.34375 -11.39711,-0.0435 -15.84382,-8.59471 -15.84375,-18.8125 0,-7.75719 5.35029,-18.73358 16.1875,-19.1875 z m 107.7562,-7.80926 c -7.78958,0 -13.83625,3.29749 -15.79433,6.54885 -0.67753,-1.63171 -1.5038,-3.80006 -2.38135,-5.68127 l -7.4404,0 c 2.20887,5.93379 2.75814,12.20005 2.73977,17.31959 l 0,34.58661 9.20554,0 0,-34.77561 c 0,-6.65558 7.70716,-9.7658 13.70041,-9.90229 6.57556,-0.14975 10.98867,3.05115 11.05615,8.39031 l 0,36.28759 9.20552,0 0,-36.28759 c 0,-11.16352 -9.83967,-16.48619 -20.29131,-16.48619 z"
       inkscape:connector-curvature="0" />
  </g>
</svg>
