<svg xmlns="http://www.w3.org/2000/svg" width="266.7" height="33.4" viewBox="0 0 250 31.3"><g fill="#50162d"><path style="line-height:125%;" d="M20.1 8.2v.3h-.2l-.1-.2-.4-.1v-.3q0-.1.2 0 .3 0 .5.3zm4.8 4.5v.2l-.1.2v-.4h.1zm-5.7-4.9l.1.3-.2.3-.1.1-.1-.3H18q-.2-.2 0-.4t.5-.1l.6.1zm-1.3.7h-.1l.1-.2v.2zm-2.6-1.7l-.2.3-.2-.3h-.2l.6-.1v.1zm4 12.6zm6.3-7.6v.5l-.2.5-.2.2v-.4-.2-.2l-.5.2v.1l.1.2h-.5v.1l.2.1-.2.4q0 .3-.2.3v-.2l-.5.1-.1-.2-.1-.1.2-.2-.2-.2-.1.1-.2.4h-.3l.2.3.7.4v.2l.2.1.1.1v.2l-.2.1-.2.2v.3q-.3 0-.5.3v.4h-.5v.5h-.1q-.1-.2-.3-.1l.2.4h-.2V17l.1.2-.4.2q-.2 0-.3.3v.7H21l-.2.4h-.1q-.2-.1-.2 0l-.2.2-.4.1-.3.2.1-.2v-.3h-.2v.2l-.4.2v.4h-.6l-.2.2q0 .2-.3.3l-1 .1h-.7q-.2 0-.3.2l-.3.3-.5.1-.2.3-.2.2h-.5l-.3.2-.5.2H12l-.2-.2h-.4l-.2.3-.3-.2-.3-.2h-.5l-.2-.2.3-.4.4-.5v-.4l.5-.5V19v-.5l.4.1.2-.2-.4-.4-.3-.5-.4-.4-.3-.5-.3-.5-.2-.5-.5-.6-1.8-2.5-.3-.6-.4-.6-.2-.2-.5-.8L6 10l-.3-.2-1 .2-.8.2-.7.2-.8.1-.5.2h-.5l-.2-.4-.3.2-.3-.1-.1-.4-.3-.4-.3-.2v-.1h.4v-.3-.1l.3.1.2-.2v-.2h.3l.2-.6v-.2h.2l.1.2.2-.1.3-.4h.3v-.2L2.1 7 2 6.9q.2-.3.9-.4l1-.1.4-.3.9-.1h1.3l.4-.2H8q.5-.2.7-.1h1.1l.8.2h.8l.6-.2q.2 0 .4.3l.3.2h.7l.3.3v.2l.1.5h.2l.3-.4.3.5-.4-.1q-.2 0-.3.3h.4v.2h.6l.3.2.2.3h.4v-.1l.1-.1v.3h.4v-.2h.6v-.2l-.2-.2.3-.1.4.1h.3l.2.2h.1l-.4.1v.2l.2.2q0 .3.2.5l.2-.1v-.3l.1.2h.6q.2 0 .3.4v.3h.9l.2-.1.2-.2V8.8l.4.1.2-.2-.2-.2h-.3v-.2l.1-.2.1-.2.2.1.2.3h.4l.8.6h.3l.2.3h.2q-.1.2 0 .4l.2-.1h.3l.2.3.1.3h.4l.2.7.3.2h.3v.7l.1.2v.2h.1l.2-.3h.2zm-8.3-4.9v.3H17q-.1 0 0-.2l.2-.1zM24 13v.3h-.2v-.2-.1h.2zm-1.4-1.6l.1.3h-.3q-.1 0 0-.2 0-.2.2-.1zM13.3 7l-.2.4.1-.3h.1zM18 19.7l-.2-.2h.2l.1.1-.1.1zm5.5-4.9l-.3-.2h.2v.2zm-13.2 5.9l.2-.2.1-.1-.3.3zm14.1-8.5v.2l-.1-.2h.1zm.2 1.6v.3-.3zm-2.3-3.6v.1H22l.2-.1zm-6 7.7zm-.6-11.1V7v-.2zm7 3.6v.2-.2zm-.1 5.4v.1-.1zM16.2 7l-.1.1V7zm1.7 12v.1-.1zm-7.4-7zm-.2 9.4v.1-.1zm10-12.9v.1h-.1.1zm-5.4 9v.1-.1zm7.6-6.7v.1zm-.2 1.6zm.4 4zM1.8 8.2v.2-.2zm22 5.5h-.1.1zm-.4-.2h-.2.2zm-7 7v.1-.1zm6.7-6.3V14v.2zm1.6-2.2zm-1.3 3.5zm-21.8-8v.2-.1zm19 12zm-.3-9h-.1.1zm-.5-2zm-8.1-1.9h-.1zm3.2 1.3V8zm-.4 0zm-4.3 13.3zm12.3-9zm0 0zm0 0zm0 0zm0 0zm0 0zm0 0zm0 0zm-5.7 5.5zm7.4-3.6zm-2-1.2H22h.1zM13 16zm10.5-1.3zm-9.9-7.2zm-.7.2zm0-.3zm4.2.5zm-3-.1H14zM21 11zm3 0zm-5.2 8zM24 12zm-11.7 9.8zM14 6.5zm-.2 0zm8.4 4zm2.5 1.4l-.1-.5-.3-.3v.5h.2v.2h.2zM22 11V11zm1.3 1.4h-.1l-.2-.3V12l-.3.2.2.2-.4.2h.3l.1.1h.2l.2-.2zm-.6-.5l-.2-.1-.2-.1v-.2l-.2.2-.1.2h.2q.2 0 .3.2l.2-.2zm-5.8-3.6h-.1l-.2-.2h-.1v.3l.2.1.2-.2zm4 7V15q0-.5-.4-1.1-.3-.6-.8-1-.4-.4-1.2-.7l-1.3-.5-.5-.3-.7-.3-.8-.2-1.2-.3H13v.2l.3.8.6.7.3.2v.2l.3.4v.3h.2l.5.6.3.4.6.8.5.8.2.7v.8q-.1.1 0 .2h.2l.4-.2.5-.2.8-.3 1-.4.9-.6v-.3q0-.2.2-.3zM36.2 18l-.2.4h-.4l-.4-.1-.4.3h-.3l-.2.3-.1.2v.4l-.2.2-.2.2v.8l-.5-.3q-.1 0 0 .2l.1.2v.2l.3.2q.3.1 0 .3h-.3l-.1.2-.4-.2h-.4l-.4-1-.1-.7-.4-1.2q0-.8-.2-1.2L30 13.1l-.7-2-.4-1-.2-1.1-.2-.3-.4-1q-.2-.7-.5-1l-.3-.8-.3-.6L27 5v-.5l-.1-.3-.2-.5h.2q0-.2.3 0h.3l.3-.1v-.3l.2.1.2.1v-.4V3l.1-.1.2.3.1.3h.2v-.3l.4-.3v-.2l.2.2q.2-.4.4-.4l.2.3q0 .1.2 0v-.1q-.2-.2 0-.2l.1.3h.3q-.1.3 0 .4l.3.4.4.6V5.6l.2.1q.2 0 .2.2l-.2.1.1.3h.2l.1-.2v.6l.2.3v.3l.7.8.4.8.2.5-.2.3-.1-.2-.1-.1q-.2 0-.2.2l.1.4q.1.2.4 0v-.2l.1.2.2.1h.2l.2-.2.1.3v.3l-.2.2.1.3v.3l.3.1v.2H34l.2.4.3.3v.2l-.2.4.2.2.2.2v1l.2.4.3.8.2.2.2.2-.1.2v.3l.1.1.1.3v.3l.4.1V18.1zM27.4 4q.2.2 0 .3h-.1q-.2 0-.1-.2h.2zm6.7 8.2v.3l-.2.2v-.2l.2-.3zm-.2-.2v-.3-.1-.1.4zm1.4 3v-.3.2zM26.9 3.6v.1zm5 2.9h-.2.2zm2 14.3h-.1zM32.5 7.1zm-2.3-2.6v.1-.1zm-1.8-.4v.1zm5.1 5.3zm0 0zm-2.7-6.5zm-1.1 1.3zm-2-.8zm7 11zm-3.4-8.6zm.4-.7zm-2-.6v-.3l-.1-.7h-.3l-.1-.2-.1.1v.3l-.3.3.1.2h.2v.2h.2v.4l.2-.3h.2zm.8.6h-.2v.6h.3l.1-.3q0-.2-.2-.3zm2 2.8zM50.9 1.9zm2.8 3.6l-.1.1V6l-.2.1q-.2 0 0-.3t.3-.2zm-.7.7l-.2-.4v-.2l.2.4v.2zm-3.8-3.5v.5l-.5-.4v-.4l.1-.1q0 .3.2.4h.2zm7 14.8l-.2.4v.3l-.2.2v.5h-.2-.2.2v.4l-.6.4v.2q-.3 0-.3-.2l-.2.1v.2l-.3-.1H54l-.3.5-.2.1-.1.2h-.2l-.2.3h-.2v.2h-.3l-.3.4-.6.8-.4.2-.1.5h-.9l-.2.3-.1.2-.2-.1-.2-.1-.2.3-.5-.1-.2.2q-.2 0-.5-.3L48 23q-.2 0-.2.3v.3h-.1l-.4-.1-.2.2h-.2l-.3-.4h-.3l-.5.4v.1h-.4l-.4-.2-.4.1-.6-.1q-.5 0-.6-.2l-.1-.3v-.5l.2.1.2.2v-.7l-.2-.2.2-.3v-.4l.4-.1v-.1l.5-.1-.2-.3-.4-.2h-.2v-.2l.2-.1v-.1l.1-.3.3.1.3-.2v-.2l-.1-.1h.2v-.9l.1-.4.3-.4h.4l.6-.4.8-.2q.4 0 .7.4v.3l-.2.4.2.3-.3.3q-.3.1-.3.3 0 .2.2.2h.8l.6.1h2.7l.6-.2.3-.4.1-.1v-.3l-.6-.7-.4-.5-.3-.3-.3-.3-.1-.5.1-.3-.3-.2q-.2 0-.2-.3v-.3L50 15h-.5l-.1-.2H48.8l-1-1-.4-.4-.2-.3H47l-.5-.3-.3-.2-.2-.4V12h-.4l-.5-.5-.6-.4-.6-.3-.6-.7-.8-.5-.4-.4-1-.5-.1-.3-.8-.3q-.4-.2-.5-.6-.1-.4-.3-.5l-.9-.7-.6-.7-.4-.5v-.3h-.3v-.2-.5l-.2-.4-.2.1v-.3H37.6l.2-.2h.3l.2.1h.4l.5-.1h1.5l.3-.1q.1-.2.5-.2h.5v.3l.2.1h.3v-.5q0-.2.2-.3v.7h.5l.4.1.2-.1-.2-.3.3-.2v-.2h.3l.3-.2v.1l-.2.1v.2l.3-.1v.1l.4-.2h.3v-1h.4v-.2h.1l-.1.3q-.2.1-.2.3h.4l.1-.1.2.4h.2V2l-.2-.2q0-.2.3-.2.2 0 .3.2h.1-.2l-.1.5-.3.2v.2l.3-.1h.2l.1-.3h.3l.2-.1V2l.2.3v.3h.2-.2V3h.1l.2.1v.4l.2.1.2-.2.3-.1.3.2h.2v.2h.5v-.4l.2.1h.2l.2-.2v-.3l-.2-.1v-.2h-.3v-.4l.3-.3.2.2h.3v.3q0 .3.4.3l.2-.2v-.2h.2v-.3l.3.2h.7l.3.3h.3l.3.2h.5q.2 0 .5.3l.4.5.6.3.4.6v1.1l-.3.2h-.2l-.1.2-.4-.3-.3.4v-.2l-.3-.3-.1.1-.4-.3-.5.2-.3.2-.2.4v.4l.1.1-.1.3v.1l-.1.3h.1l.2.2.1-.1.1.2-.3.2h-.2v-.2l-.1-.1-.4.1h-.1-.1l-.1.3v.4l-.1.3H51l-.2-.4.2-.3.1-.5L51 7l-.3-.3v-.3l-.4-.1h-.3l-.7-.2-.5-.3h-.3l-.6-.2-.1-.2-.3.2-.2-.1-.3-.2h-.6l-.2-.2h-.5l-.5-.2-.4-.1h-.3l.1.4.5.3L46 6l.7.5.2.3.7.3.3.3.5.5 1.1.6.5.5 1.5 1 .5.5 1 .8.6.5.3.4.2.3.4.3.2.3.5.6-.3.3v.2l.4-.1q.2 0 .2.2v.2h.2v1.3l.1.2.2.2v.8l.1.5zm-7.5 7.2v-.1zM51.1 4v.2l-.3.2V4l.3-.1zm-2.7-1.4V2.3l.1.2zm-2.6 1v.1l-.1.2v-.3h.1zM49 22.4v.2-.2zm7.5-5.6v.1h-.2v-.1h.2zM47 2.8l-.1.3.1-.2zm5.5 18v-.2.2zm-2 2l.1.1h-.1l-.1-.1h.1zm-1.4-11.5l.1.1h-.1zm-1.2-.8l-.1.3.1-.3zM43 6.1v.2-.2zm5.6 5.5v.1zm.9 2.8h-.1v.2-.2zM52 3.9v.4-.4zM41.5 6.6v.2l-.2-.2h.2zm8-4v-.2.3zm-4.6 21v-.1.2zM43 7.4v-.2.2zm6 15.9zm1.5-18.8h-.1.1zm-1.3 18.1v.1-.1zM45.5 2.4h-.1.1zm-.4-.5v-.2.2zm2.6 1.3zm2.8 0v.2-.2zm1.1-1.3v-.2.2zm1.5 5.7v-.1zm-3.6-4.3V3v.2zm-5.2 18h-.1.1zM43.1 8.2H43zM47.8 2zm-2.3 1.4v.1zm2-1.2v.1-.1zm-.1 10.2zm2.3-1v.2-.2zm-2.9-1.8zm-5.2-3.3h-.1zm1.8.2v.1-.1zm12.8 8.8v.1zM43.1 6v0zm5-3.5v.1-.1zm1.5 1.2v.2-.2zM42.8 7v.1V7zm3.8-3.7zM42 2.7zm1.7-.1zm6.8 1.1h-.1.1zm-6.8 3.5zm-.4.2v.1zm5.8-5H49h.1zm3.4 18.7zm0 0zm0 0zm0 0zm0 0zm0 0zm0 0zm0 0zm0 0zm0 0zm0 0zm0 0zm0 0zm-7.2 0zM40.5 5.2zm8 0zm-.6 0zm-1.1.1zm5-3.4zm-1 2.7zM41 5zM51.3 3zm-8-.1zm.9-.9zm6.4.6zm1.3-.3zm-4.6.2zM56.1 16zm-14-13.3zm-1.7 0zm10.2 1zM43 7.3zm10.3 13.4zM49 11.2zm-6.6-4zm-.8 0V7zm3.5 1zm3.7-6.6zm-7.5 4.1zM41 6zm1.6 1zm.6 15.2zm3.3-19.3h-.4l.1-.1-.1-.2h-.3v-.2l-.2.3v.1h-.3H45v.2l-.2.4q0 .2.2.2l.4-.1h.3L46 3l.3.2h.3v-.5zm3 9l-.2-.2-.3-.2-.1-.1h-.2v.5h-.3l.1.4.5-.3h.4zm-1.1-.8H48l-.2.1.1.3.3.2.2-.3-.1-.3zm-2.6-1.9h-.4v.2h.2l-.1.2.2-.1v-.2l.1-.1zm-.9-.4l-.2-.4.2-.2h-.1v-.2l-.2-.2-.3.3H44l.1.1.4.1v.3l.5.2zm-1 0l-.2-.3-.1-.2V8h.2l-.2-.2V7l-.4-.3.1-.1v-.2l-.2.2h-.4l-.1-.3-.3-.1-.3.1v-.1l-.1-.2-.1.1v.6h.7v.6h.5l-.1.3q-.1 0 0 .2h.3l.1-.1h.1V8.7l.2.1.3-.1zm6.1 5.9l-.3-.2-.2.1h.3l.1.3h.2v-.2zm-.4 8.4l.1-.1-.1-.2h-.1V23zm-4-3.7h-.3.2v.3l.1-.1q.1-.2 0-.2zM95.4 20.6l-.1.1-.3.2-.2.6-.3.1v.1l-.3-.1-.3-.2q0 .4-.3.5v-.1l-.2-.1-.4.1v.2h-.2l-.2.6-.1.2.1.5.1.2q0 .2-.2.1v-.1l-.1-.2h-.2l-.2.2-.2.3-.5-.3H91l-1-.6-.2-.3-.4-.3-.5-.3q-.1-.2-.6-.2h-.6l-.4-.4q-.1-.3-.4-.3l-.1.4v.5l-.4-.1-.3-.2v-.4h-.6l-.2-.1L84 21l-1-.4-1-.4h-.3q-.1.2-.3 0l-.2-.1-.1-.1-.1.4h-.5l-.2.1h-.7l-.6-.3-.2-.1-.2-.2v.3h-.3l-.3.1-.2-.2h-.4l-.1-.1-.1-.1h-.5l-.2-.1h-.8l-.6-.2h-.4l-1-.2-.5-.2h-1l-.6-.1-.9-.2q-.3 0-.4.2v.5l-.2.4.2.2v.4l.1.7q0 .2-.3.3-.2 0-.2.3l.3.3.1.3.3.4-.1.5.2.2v.2h-.1V24.4l-.1.3.2.1v.2l.2.4v.8l-.1.4.1.4v.2-.2l-.3-.1h-.2l-.1.3H70l-.3.3h-.4v-.2q-.4 0-.4.5l-.1.3-.2.3v.5h-.1l-.2.4-.2.2-.4-.2V29.9h-.4l-.2-.4-.1-.5-.3-.8q-.2-.4-.1-.8l.1-.3v-1.6q.2-.3.2-.7l-.1-.1-.1-.2v-.3-.9l.3-.7-.3-1.6.2-.4V18.2l-.3-.4-.4-.4H66l-.2-.2v-.3l-.3-.1q-.3-.1-.4-.4l.2-.7.9-1.4-.2-.4q-.3-.3-.3-.5l.5-.6h.2v-.3q0-.2.2-.2v1.1l.1.1h.3q.4-.5.4-1.1v-.7l-.2.1-.1.2v-.3l.1-.4.1.1.2-.2.3-.4q.2-.2.3 0l.1.4q.2 0 .2.3v.2l.2-.1v-.4l.1.2h.2V11q.1.3.4.5v.3l.3.1h.2l.2.5.6-.1.5-.2H71.8l.3.1h.2l.2-.3.3-.2.5-.2h.5l.6-.4q.5-.1.8 0l.2.2q0-.3.2-.4l.6-.3.6-.3 1-.3.5-.2h.5l.3-.1.3-.2q.2-.1.2-.4 0-.2-.4-.3l-.5-.1-.4-.3-.7.2-.2-.1-.2-.2h-.7v-.5q-.3.3-.5.3l-.2-.2-.7-.2h-.8v-.2l-.6.1h-.1v-.1H73l-.7-.1-.6-.4-.7.1h-.3l-.3-.2h-.6l-.5.1h-1q0-.2-.2-.2l-.4.2h-.9L66 7h-1.3l-.4.2-.5.2h-.4l-.6.2-.3.3-.3-.1-.2.1v-.3l-.2-.2-.1.2-.2.2-.2-.1v-.2H61v-.2l-.1-.1h-.2V7l.4-.4-.1-.2-.2-.4v-.5l.1-.2.1-.5.2-.2.3-.1.2-.5.3-.3.4-.2v-.2l.2-.2.2.1.1.1.2-.2.1-.2.5-.2.4.1.3-.1.1-.2.5-.2.8-.2.3.1.4.2.2-.4h.1L67 2h.4v.2h.4l.4-.4h2l.4.1h.5l.6.3 1.2.1 1.3.4h.4v.1l.5.2.5.3h.9l.2-.1q.2 0 .3.2l.2.2.2-.1q.1-.2.3-.2l.3.3h.4l.4.2.2-.2.2-.1.1.1v.2l.4-.1h.2l.4.4.6.4h.4l.3.3.3.1v.2h.5l.6-.3.1.1.2.3h.4v.2l.2.3-.2.3.2.3.2.2-.4.5-.6.8-.2.4-.5.3-.1.6v.2l-.1.1-.1.5q0 .3-.2.4l-.5.3v.4q0 .2-.2.3H81q0 .2-.2.3l-.4.3-.7.1-.6.2-.3.3-.1-.1H78l-.3.1v.6q0 .3-.2.4h-.3l-1 .1-.3.3v.3l.5.3.6.1 1.5.4 1.2.4h.5l1 .4.7.1.7.1.6.2.6.3 1 .2.7.1 1.4.4 1.7.5 2 .7 1.9.7.9.4.9.4.5.3.1.1-.1.3h.5zM60.7 6v.4l-.2.1q-.1 0 0-.4l.1-.2h.1zm-.5.1v.4Q60 6.3 60 6h.1zm18.2 6.8v.2l-.2.1V13l.2-.1zm-12 .4v.2q0 .2-.1.1l-.1-.2q0-.2.2-.1zm3.3 9.7q.1.1 0 .4v-.4zm-2.2-10.7v.3-.3zm25.6 10l-.2.3v-.3h.2zm-18-8.4v.3h-.3l.1-.2h.2zm-5 13.6v.2-.2zm-10-19.8v-.1q.1 0 0 .1zm9.9 12h-.1zM60.6 8V8 8zm30.7 13.6v.2-.2zm-4.3-.1h-.1zm-20.3 4zM61.9 8.5v-.1.1zm6.3 4.6v.1-.1zm-.2-1.4zm12.9-5.2zm-20.2.8zM85 19v-.1zm-3.9.7zm-11.1 8zM82.8 8.2V8zm3.7 12.5h-.3v.5h.3l.1-.3-.1-.2zm-10.8-6.6l-.3-.4-.1.3.2.2h.2v-.1zm-6.1 5.1h-.2l-.2.3v.4l.3.3V20l.1-.4v-.5zM192.9 16.3l-.2-.3v-.3l.1.2zm0 .4v.2l-.2-.3.1-.2.2.3zm0 1.6zM182.5 6l-.1.1V6zm4.7 6.1l-.3-.3h-.2l.1-.2.1.2h.2v-.2zm5.2 6.5zm-.7-.6V18zm-5.4-6l.1-.2v-.2l.1-.2c.1 0 .1.2 0 .4l-.2.2zm-.4 0v0zm.1.4v.1-.2.1zm-6-6.8v.1l-.1.2v-.3h.2zm6.3 7.7v.1h-.2.2zm3.8 3.3v-1.1-1.2l-.4-1-.5-.6-.1-.3-.2-.3-.3.1-.1.2-.3-.3h-.1l-.1.2c0 .1 0 .2-.2.2l-.2-.2V12l-.2.2h-.3v.3h-.3l-.1.2-.1.2h-.3v.2l.2.2-.2.2-.3.3c-.1 0-.2 0-.3-.2-.1.2-.3.2-.5 0l-.2-.1c-.2-.3-.2-.5-.1-.6h.2l.2-.2v-.3l-.2-.3c0-.5-.3-1-.6-1.3l-.2-.4-.2-.5-.4-.3-.4-.5-.3-.3-.5-.3h-.5l-.1-.2v-.2l-.3.2h-.2v-.2h-1.8l-.4.3-.5.4h-.5l-.1.5h-.4l-.2.3-.4.3v.2l-.2.5h-.3l-.2-.1c-.2.1-.2.3 0 .4v.5l-.2.4-.3.5v.1h.1v.4l-.3.4v2.3l.4 1 .3.5.4.4.6.5.9.5 1.4.6 1.5.3.3.1h.2c0-.1.1.4 0 .1 1.5 0 2.3.2 4-.3h.6l.6-.2 1.5-.5 1-.7.3-.5.3-.4v-.2zm-10.3 5.5v.3c-.2 0-.3.1-.4 0v-.3l.2-.2.2.2zm-3.3-2.2v.2l-.2-.1.2-.1zm2 3.5l-.3-.2c-.1 0-.1-.2 0-.2l.1.2zm-3-2.8v.1h-.2l-.3-.3v-.2zm17-4.3l-.2.3v-.2zM173.6 18v.3zm6.1-12.9v.1h-.1.1zm13 9.8v.2-.2zm-15.6 6h-.2l.1-.2h.1v.3zm1 1.5v.2h-.1v-.2zm9.2-11v.3-.2zM192 20v.2h-.1v-.2zm-18.6-1.3l.1.1h-.1v-.1zm11.2-8.8v-.3zm-6.8 12.4v.2zm12.4-1.7v.2h-.1v-.1zm-16.6-2.3h.1v.2l-.1.1-.1-.2.1-.1zm6.8 5.4v.2l-.1-.1zm-7.5-8.7v.3-.2zm11.9-7.5zm1.6 5v.2zM192 18v.3-.2zm-5.8-5.2v.2zm.3 0v-.3zm-.3-1.8v.2-.1zm-1-.2l.2.1-.2.2v-.2-.1zm-5.8 10.7v.1zm-7.1-6.6v.1zm8.2 8.7zm12.3-9.5V14zm-19.5 2v.2zm12.8-4.7l-.1-.1zm-1.5-1.3l-.1.1zm8.4 7v.1l.2.1v.4l-.3.2v-.5l-.2-.2-.3-.2v.3l.1.1h-.2v.2l-.1.2v.2l.1.4.2.1-.1.5.2-.2h.2l.2.2v.2h-.2l.2.3V19.8c0 .2 0 .2-.2.2 0 0-.2 0-.3-.2h-.2v-.1l-.2.1v.1h-.1l-.2-.2v.2l-.2.2.3.4H192.2l-.2.4-.5.4-.1.3h-.1v-.1h-.2l-.4-.4H190.1l-.4-.1-.2.4-.2.3-.2-.3v-.2l-.1.2v.2h-.2v.4l-.1.3-.6.5h-.7c-1 .6-1 1.6-3.7 2 0-.1-.1-.2-.3-.2h-.5l-.2-.1-.2.2-.1-.1-.1-.1-.1-.1h.2V24l-.4-.4h-.3l-.2.2-.4.1-.4.1h-.1l-.2-.2v.2H180.1v-.4c-.2 0-.2-.2-.2-.3v-.5l.2-.2v-.2h-.2v.4h-.3v.3l-.1.2v.3l-.2.1-.2-.3-.4-.3-.2-.2-.3-.1h-.2l-.3-.3-.1.2h-.1l-.2-.1-.2-.3-.4-.2v-.4-.4l-.1-.3h.2V21H176.5l-.4.2s-.2 0-.2-.2l.1-.4.2-.3v.3l.3.2.2-.2v-.2h.3V20l-.2.1-.4-.5-.3.1v.1h-.1v-.2l-.3.1v-.2l-.1-.4h-.2v-.4h-.2v.4-.1c0-.1-.2-.1-.2 0v.4a.9.9 0 0 1-.3-.4v-.5h-.2v-.2l-.2-.2v.1l-.2.1v-.2h-.2l-.2-.1-.2-.3h-.2v-.2l.1-.2-.2-.4-.2-.2.1-.1.1-.5V15.8l-.5-.6h-.2v-.4l-.1-.4V13.8l.2-.1.2-.2-.5-.2V13v-.7l.2-.3.3-.6V11l.2-.2v-.7l.3-.5.2-.4v-.5h.2l.1.1.1-.2.5-.6h.2l.1-.4h.2l.1-.3.5-.8h.2l.4-.4h.3l.2-.1.3-.1c.1 0 .2 0 .3-.2l.1-.1h.2l.1-.2.7.3.1-.2.2-.2h.6l.2-.2h.2v-.2l.2-.2h.3l.2-.1V5l.2-.1h.1l.1.1-.3.1-.3.1v.1l.1.1v.2h.5v-.2l.2-.2h.2l.1-.2.2-.2.1-.2.1.3V5l.1.2.1.4v.4l-.3.1v.3l.2.3v-.2l.3.3.3-.1.3-.1.5.2h.8l.2.3-.1.3.1.2h.2v-.4l.1.2h.2l.1.4.2.2-.2.4h.2l.1-.4v-.5l-.2-.3.1-.2-.2-.3h.1v-.2l.5.2.5.3V7l.1-.3.1.1h.7v.1l.1.2V7.4l.4-.2v.2l.2.4.3.2V8l.2.2.2.4.3.8c0 .3.2.5.3.7h.2v.3l.1.2.4.1.1.4.1.3v-.2-.1l.2-.1c.1 0 .2 0 .3.2l.4.4.1.4.2-.1.2-.2.5.5.2-.2h.2l.1.1h.2l.2.6.4.5v.2l.1.2V17zm-15.7 5.1v-.1zM182.6 6V6zm.4 18.4h-.1zm5.5-1.7zm-11.2-.3h-.1zm7.7-9.4v-.1zm-3 11.8zm-4-2.4v.1zm7.2-11zm7.2 8.3zm.7-2.8zm-6.4-3.8zm0 0zm0 0zm0 0zm-4.4-7.3l-.1.1zm-1 .6zm-7.9 3.4zm0 0zm0 0zm8 14.8zm8.3-4v.1zm-3.8-12.1v.1zm.5 0zm0 0zm0 0zm0 0zm0 0zm0 0zm0 0zm0 0zM193 17zm-1.3 1zm0 0zm0 0zm0 0zm0 0zm0 0zm0 0zm0 0zm-12.2 5zm13.6-7.5zm-19.7 3.5zm13.2-12zm-13 10zm18.6 1zm1.2-2v.2zm0-.4v.1zM174.1 19zm.3 0zm11-6l-.2.3V13h.2zm1.2-.9zm-1.3-2.6zm-5.6 13.2zm-.5-.7zm9.5.5zm-2.3-11.5zm-7 11.5zm-2.6-11.7zm-.1 10.2zm10.4-9.3zm-2 2.3zm-8.2 7.5zm9.7-10zM105.9 6.6h-.2l.1-.2v.2zm5.9 10v.6l-.3.4v.4l-.3.7-.5.9h-.3l-.3.3-.2.2-.2.1h-.4l-.1-.3-.2-.1V21q0 .3-.3.4h-.5v.4l-.4.1-.7.2-.2.1-.6.2h-.3v.1l-.1-.3V22h-.9v-.1h-.3v.2l-.2-.1h-.1l.1.3-.3.2h-.4l-.2.1h-.2l-.8-.5v-.4q-.4 0-.5-.2v-.2h-.9l-.2-.3-.2-.3h-.6q-.2 0-.4-.3V20l-.3-.2v-.8h-.2l-.4.2v-.5l-.2-.7-.3-.5-.4-.2-.3-.1-.7-.8-1-.7-.1-.3-.2-.3-.3-.1-.4-.3-.1-.3q0-.2-.2-.2l-.4-.4-.6-.3h-.2l-.2.1-.4-.4-.2-.5V12l-.5-.7v-.7-.5l.4-.8-.1-.5.2-.3V8l.4-.3.1-.3q0-.3.2-.4l1-.6.1-.2.3-.2.2-.2v-.1l.4-.1.5-.5.2-.5h.3l.3-.2.3-.2h1.3l.3-.1.2-.1v-.4h.3V4q-.1 0 0 .2h.3l.3-.2h1l.7.4.5.5.4.5.5-.4.4.2h.8l.2.4v.3h.4l.3.2.3.2h.2l.3.2-.1.3-.2.3.1.8-.2.3q-.1.2 0 .4H105.9l.6.1.2.1.1.2.1.2.5.2.3.5.8.4q0 .4.2.5h.3l.5.5v.3h.3l.1.2v.3l.3.2q.2 0 .3.3l.2.4.4.5.1.8.2.9.2.4-.2.4.2.3.2.4zM102 22h-.2l-.4-.2-.3-.2h.1l.5.1.3.3zm3-14.6l-.3.2.2-.1.1-.1zm-2 14.4l.2.3h-.2l-.1-.3h.2zm5.6-1v.1h-.1v-.1zm-.5.4v.1-.1zM105 7h-.2.2zM104 22zm1.1-14.8zm-.4 14.8zm4.6-1.8zm-5 .7zm-10.9-7.7zm11.6 9zM104.7 7h-.2v.3h-.2l.3.3V7zm3.7 9l-.1-.7-.2-.2v-.4l-.2-.2-.4-.6-.4-.6h-.2l-.1-.2-.2-.3q0-.4-.2-.5l-.3-.2-.2-.3-.1-.4-.3-.2V11l-.3-.1h-.1l-.2-.4.2-.2-.7-.8h-.5l-.6-.4-.4-.5-.7-.3-.7-.3-.2-.5-.3-.1-.6-.3-.2-.4-.5-.3V6l.2-.3-.1-.3-1.1.2-.5.3q-1.3.4-2.6 1.7-1.2 1.3-1.4 2.6v.9l.5 1q.6 1.2 2 2.4.9.7 2.7 1.7l2.7 1.2q1.4.4 2.6.4.9 0 1.7-.2.8-.2 1.2-.5.8-.5.8-1.1zM164.5 7.1l-.2-.1v-.3q.3.1.2.4zm2-1.3h-.3v.3h-.6l-.6.4-.2-.1h-.4l-.4.4.2.6q.2 0 .2.2v.1l-.3.1-.1.3-.1.4h-.3q-.2 0-.3.2l-.1.2h-.2v.3q-.2 0-.3-.2v-.2h-.1l-.3.2-.3.2q-.1-.2-.3-.2h-.7L161 9l-.2-.2-.1.2h-.3l-.3-.1-.2.4q-.2 0-.3-.2 0-.2-.2-.2h-2.1l-.5-.2-.4-.2-.5.2h-.2l-.4-.2-.5.1-.6-.3h-2.7l-.5-.3-.5.1-.2-.1h-.2l.2.3q-.3 0-.3.3l.2.4-.2.1-.2.1.1.4h.1V10q0 .4-.3.7l-.3.2v.3l.1.1.1.4.2.7-.2.2.2.7v1.8l.1.1h.2v1l.3.3v.2l-.1.2v.3l.3.3v.8l-.1.4q.3 0 .3.2V19.9l-.1.4v.6l.2.5.4.7q.4.4.4.7l.2.3-.2.3-.2.7-.2.4h-.4l-.2.3-.3-.2-.5-.3-.8.2h-.4v.3l.1.3h-.3l.1.3.7.4h-.1l-.1.2.1.5v.7h-.5l-.4.2q0-.2-.2-.2l-.3-.1q-.3.1-.4 0l-.2-.2-.1-.2-.3.1-.1-.7-.2-.5-.1-.5v-2.6l-.1-1-.1-.8v-.4l.2-.5-.2-.4q-.2-.7-.2-1.6V16l-.1-.5q-.2-.3-.2-.8l-.1-1.5-.4-1 .1-.3v-.5l.1-.3-.2-.1-.1-.1v-.5l-.2-.3v-.4l-.2-.2v-.4l-.2-1 .2-.3-.2-.1.4-.1.1.2q.5 0 .4-.5h-.1l-.1-.2-.6.1-.4-.1-.3.1h-.2l-.7-.1h-1.3l-3.9-.6h-.4l-.6-.1-.6-.2q-.2 0-.3-.4l-.1-.8h-.3v-.5h.4l.2-.5v-.3h.2v-.5l-.3-1 .1-.4q.1-.2.3 0l1 .3H138.6l.4.2.6-.1h.3l.3-.2.3.2h1l.5-.2.8.2.3-.2 2 .3h.5l.7.2.3-.1.9.2h.3l.5.1h1.1l.2.2H151.4l.8.2.3.2 1-.2.5.2.7.2 1 .1.2.2q0-.2.4-.2l.3.2h.4v.2l.2-.2.4-.1h1l.6.1.6.1.7.2h.7l.2-.1.4.1.3.2h.5l.6-.1.6.2h1.3l.9.1.3.3V5l.2.4v.3zm-14.6 17h-.1zm.1.3v.2l-.1.2.1-.4zm10.5-16.6v.3l-.2.1v-.3q.1-.2.2-.1zm1.7-.4v.3q0 .1-.1 0v-.2zm-3.6.2V6v.3zm-3 2.4v-.2-.1.2zm5-2.7v.2h-.2V6h.2zm-1.7-.1v.2h-.2V6l.2-.1zm-11.4-1.4v.2-.2zm-12.6 0V4v.3zM151.2 24v.1-.1zm11.3-18.8v.1-.1zm1.1 3.9zm-14 1.8V11v.1zm.7 8.1V19v.1zm-3.5 7.9v-.2.2zm17.6-19.6zm-1.7-.1zm2-.5zm-15.4 18.9h-.1zm-.8 0zm0 0zm0 0zm0 0zm0 0zm0 0zm0 0zm-.6-21.4zm-.4 23.1zm1.7-2.5zm0-.2zm13.7-17.3zm1.8-.2zM145.4 9zm21.5-3zm-6.3-.1v-.1zm-1-.1zM145.2 9l-.2-.4h-.2l-.1.2.3.4h.2V9zm.6 2q0-.2-.3-.1l-.1.2.1.3h.3l.1-.2v-.3zm3.3 13.4zM164.3 24.8l-.3-.2-.6-.4-1.5-1.7-.2-.6-.3-.2-.2-.5V21l-.1-.2h1.4l.7.2.4-.1.3-.1.3-.2v-.3l.2-.2.2-.4h.4q.5 0 .8.2l.5.3h.6v.2h-.4l-.2.2h.2l.4.2q.3 0 .4.2v.4l-.2.3v.7l-.4.2v.6l-.3.1h-.2l.2.4-.3.2-.2.5.1.3h-.3l-.1.4-.4.1-.5.2-.4-.6zm1.2-5.3l.2-.3.7.2q.1.2-.1.3h-.3l-.5-.2zm.6 1.7l.2.3-.2-.3zm.4.5v.2-.2zm-1.2-2.1h-.1zM202.4 2.7l-.4.3-.4.2v-.4h-.5l-.1.1-.2.1-.3.4-.3-.2-.4-.1-.8.1-.5.2-.2.2-.3.1-.4-.1a1 1 0 0 0-.5.2l-.2.2-.1.2h-.2l-.1-.2-.2.2v.2l-.5.1a1 1 0 0 0-.3.4l-.3.5-.3.1-.2.2H195.6l.4.3h.8l.7.3 1.3.2h.4l.7.4-.1.1c1.5.4 3 .3 3 .5l.8.1h.4a3 3 0 0 0 1.7.6l.2-.2.5.3h.7l1 .4 1 .4h.8l.6.4.2-.2v.4h.1l.4.2h.3l.2.2h.2l.7-.1.4.3.6.1c.2 0 .4.2.4.4l-.2.4-.4.2-.3.1h-.5l-.5.2-1 .3-.7.2a2 2 0 0 0-.7.3l-.2.4-.2-.2h-.9l-.6.3-.5.1-.5.1-.3.3-.3.2-.2.1-.3-.2h-.7l-.5.2c-.2.1-1.2-.7-1.4-.7l-.2-.6h-.2c-.1.2-.3.2-.5.1v-.4l-.2-.2h-.2v-.2l-.1.4-.2.1v-.2c0-.2-.1-.3-.2-.3v-.5h-.5l-.2.5-.3.1-.3.3v.4l.2-.2v.4s-.3-.7-.8 1.2l.2-.3.2-.4.1-.3c-.2 0-.2.2-.2.5h-.3l-.9.5.3.5.2.4-.3 1.5V18c0 .2.1.3.3.4l.3.2v.2l.2.3h.2l.4.5.3.4v1.9l-.1.6-.1.4.1 1.8-.3.6V26.6l.2.2c0 .3 0 .6-.2.8v1.6l-.3.3.1.9.3.7h.1l.5.1c.2.1.2-.1.4.1l.5-.2.2-.2c0-.3.2 0 .1-.2h.2c0-.2.2-.3.4-.3v.1l.3-.8h.2l.3-.2-.1-2V26l-.4-.8.2-.7v-2l-.1-.2-.3-.2v-.4l.3-.5V20.5l.7-.1c.4-.1.7.6 1.1.7h1.3l.3.2c.1 0 .2-.2.1-.3v-.3c.2 0 .4 0 .5.2l.3.3h.7l.9.1v.3l.5.4h.5l.6.6 1.4.2.3.4h.4v-.3l.4.2.2.1.3.2h.2l.3.1h.1l.4.1s.2 0 .2-.2l.2.1h.3l.1-.5.2.1.1.3h.6l1 .4 1.2.4 1.2.3.2.2h.6v.3l.3.3h.5v-.5l.1-.4c.2 0 .3.2.4.4l.4.3.6.1.6.2.5.4H224l.3-.2.5-.2V25v.2l-.2-.5-.2-.3-.4-.2-.2-.3v-.2l-1.1-.8-.5-.1-.3-.1-1.7-1c-.5-.2-1-1.2-2-1.4l-.7-.3-.7-.3-1.5-.4-1.9-.5-1.4-.3-1-.3-.9-.3v-1.2l-.3-.2.5-.3-.2-.1v-.4l.3-.2h.1l1-.2h.3l.2-.4v.2l.4-.1H213l.3-.2.6-.1c.4 0 .7-.9.9-1l.4-.2.2-.4h.1l.2.1.2-.3v-.5l.5-.3c.2 0 .2-.2.2-.4v-.2l.2-.3h.2V11h-.7v-.6l.3-.2.3.2v-.1h.1l.2-.4.2.2.2-.1.2-.5.6-.7.5-.6-.2-.2-.2-.4.2-.2-.3-.1-.7.1-.6-.3-.7-.2-1.9-1.2-.7-.3-.8-.1-1-.5-.2.2-.3-.3-.3-.2-.2.2-.4-.2h-.5l-.6-.3-.4-.2v-.1h-.5l-.6-.2-1.3-.3h-.7l-.6-.4h-.8l-1.4-.2h-.8zm7.1 12.7l.4.5-.1.1h-.2l-.3-.3.1-.2zm-11.8.6h-.1zm23 8h.2v.5h-.3V24h.1zm.6.8v.1zm4.5.4v.1zM241.3 3.9h-.5-.1l.1-.4h.4v.4zm4-.6l-.1-.3h-.4V3h.2l-.1.3.2-.1V3.6l-.4-.1v-.1-.1H244V3h-.2v.2l-.6-.1-.3.4v-.2h-.6l-.1-.2-.1-.1-.2.2v.3l-.1.1h-.1v-.1H241.3l-.2-.3h-.2c-.2 0-.3 0-.4.2V3.8l-.3.1h-.2v.2l-.6-.2h-.6l-.4-.1h-.3-.3v-.2l-.5-.2v.2c0 .2-.2.3-.3.4l-.4-.1h-.3v-.3l-.1.2c0 .1-.1.2-.2.1H235.8l-.8-.2-.3.1v-.2-.2h-.6l.1-.1.2-.1.4-.1h.3l.5-.1-.3-.2c-.2 0-.3-.2-.2-.4H235.7c0-.1 0-.1.1 0v.1H236.6l.2-.2v.1l.1.1.2-.1.3-.3h.1l.1.2.2-.1V2a.7.7 0 0 0-.2-.2h-.3v-.2h.2l.2.1.3-.1h.2l-.1.2.1.1h.2v.4l.2-.2V2l.4.3.5.5V3l-.2.1h.2l.2-.2.4.2.3-.1h.3v-.2l-.1-.1.3-.2.2.1h.8v-.2l-.1-.2-.6-.1-.1-.2-.2.1v-.3c0-.1 0-.1-.2 0l-.2.3v.7h-.1l-.1-.3v.2h-.2l-.1.2-.4-.3v-.1h-.3l.2-.4h.2l.1.1.1-.1h.2v-.3l.1-.2v-.2h.2v.2l.2-.2c.1.2.3.2.4.3l.2-.2.2-.2h.5l.1-.2v.3l.2.1.1-.2V1l-.2-.1h.2l.1-.2V.6h.2l.1-.5s.1-.1.2 0l.3.1h.4l.6.6.7.7.4 1v.8zM242 8l-.1.2h-.4l-.2-.1V8l.5.1h.2zm-8-3.9l-.3.1h-.2l-.2-.1h-.2v.3l.2.2h-.2l-.1.1h-.4l-.3.2h-.5l-.3.2V5h-.1l-.3-.2h-.2v-.4h.7V4h.2l.2.2h.5v.1h.4v-.4l.4-.2.4-.2.1.2V4l.1.2v.1zm15.3 7.6l-.3.4v.5l-.2.4h-.3-.2l.2.1.1.1-.3.2-.3.2-.1.5-.5.2v.3l-.6.2-.3.3-.2.4h-.4l-.1.3h-.3l-.2.2-.2.3-.5.5h-.1l-.1.1h-.2V17.6l-.2.2-.2.1h-.4c-.2 0-.4.1-.4.3l-.2.3V18.6l-.1.2v.2h-.4v.1h.2v.5l.1.2-.2.2-.1.3-.4.4-.2.2.4-.2.5.4-.2.2c-3.3 7.7-6.5.6-7.4.7l-.4.1-.3-.3c-.1-.2-.3-.3-.4-.2v.1h-.1v.2l-.4.1v-.3h-.3l-.2-.2h-.5-.1v-.2h.3l-.1-.1V21v-.1l-.3.3-.2.2v.4l-.3.1-.3.1h-.5v-.2h-.3l-.2-.4V21l-.6-.4-.5-.3-.1-.2-.3-.2h-.1v.4l-.2.1-.2.2.1.2v.2-.2l-.2.1h-.1l.1-.3V20.3l.3-.1v-.3h-.2v.1h-.2l-.2.3h.1l.1.1h-.2v.3l-.2-.1-.4-.1-.4-.3a.8.8 0 0 0-.3-.2H226.2l-.1-.3-.3-.1V19.3h-.3l-.1-.4-.4-.5.1-.2h-.2v-.1l-.2-.2v-.4l-.2-.3-.2-.3.1-.3v-.2-.2h-.2l.2-.4-.2-.2v-.2l-.2-.2V15v-.5l.2-.2.1-.2-.1-.4.2-.1h-.1l.1-.4v-.7l.3-.2.2-.2v-.2h.2l.2-.2.1-.3V11l.2-.1h.2v-.2l-.2-.1h.1v-.3l.1-.4.2-.6c0-.1.1-.2.3-.2h.2c.1.1.2.1.2 0l-.1-.2h-.2v-.3l.2-.1.1-.1.3-.4.6-.2.2-.3.2.2.2-.2.2-.1h.4l.2-.4v-.3l-.4-.3h.4l.1-.1h.2v-.2l.1-.3h.2v-.3l.3-.1.3-.2.3-.4c0-.1.1-.1.2 0v.4h-.2l-.2.2v.2l.2.3c0 .3-.2.4-.5.6l-.6.5-.4.4-.5.3V8l-.1.2-.2.2-.2.3-.1.2h-.3c0-.2-.2-.3-.2-.2v.2l.1.2.1.2-.3.3-.1.3-.4.6h-.3v.5l-.1.8-.2.6v1c0 .4.2.8.5 1.2.4.4.8.6 1.2.7l.3.2 1 .3 1 .3 1.2.1c.6.2 1.2.2 1.5.2l1.4-.1 1.6-.2a5 5 0 0 0 1.2-.1l1.4-.3h.4c.2 0 .4 0 .4-.2v-.2H239l-.1.1-.5-.3.3-.3-.3-.1-.6-.2-.3.1v.2l-.1.3v-.2l-.2-.2-.1.2h-.1v-.5l-.1-.1-.1-.1h-.2l.2.4v.2h-.2l-.3-.3-.3-.1h-.3v.2h-.2v-.2h-.2V14l-.4.2h-.1l-.1.1-.3-.3h-.4v-.4l-.1.3c0 .1-.1.2-.2.1V14v-.2l.2-.2-.2-.1-.1-.1V13h-.3-.4l-.2-.2c-.2-.1-.3-.2-.4 0v.4h-.2v-.1l-.2-.2h-.5v.1h-.2v-.7l.1-.3v-.7l-.4-.6-.1-.1c0-.2 0-.3.2-.3h1.1V10l-.1-.3.2-.2v-.2l-.1-.1-.1.2h-.1V9l-.2-.1h.6v-.2l.1-.4.3-.1.2-.2v.1l.1.1 1 .3.4.2h.2l.1-.4.3.1v.1l.5-.2h.4V9h.3l.1-.1h.3l.4-.2h.2v.2l-.2.1V9l.1.3h1l.4.1.1-.1.2.1H239.4l.1-.2V9l.5.2.2-.3h.1l.2.1c.2 0 .2-.1.2 0l-.1.1-.3.1h.1l1 .3h.1c.2 0 .2.1.2.3v.2l.3.1h.3v-.2h1.3l.1-.2h-.2l-.4-.2v-.2c-.2-.1-.2-.2-.2-.3l.1-.2h-.2c0 .2-.2.2-.3.2h-.3l-.2-.1-.3-.3h.6l.1-.4.1-.2c.1 0 .2 0 .3.2l.2.2.3-.1.5-.1.2.1h.5v-.2h.4l.1.3.2-.2h.6l.1-.2.1-.2.2.1.5-.4h.5v.2h.2l.2-.2h.3l.2.2.4-.3.5.1v.2l.2-.1.2.2h.3l.3.2v.3l-.2.1V9l-.2.1-.3.4h-.2v.2l-.2.2-.4.4V10.5l-.2.3v.2a.5.5 0 0 0-.2.2l.2.1h.2v.2l-.2.1h.2l.5-.1v-.2h-.2l.1-.1.3-.1v.5l.2.2zm-18.1-6.6v.1c-.2.1-.3.1-.4 0v-.1h.4zm2.2 8.5h-.4v-.3h-.6l-.1-.1h.4l.1-.2.1-.1.2.2.3.1c-.2 0-.3.2-.3.3h.3zm-3.2 7.7l-.2.3v-.2h-.2l-.1.1.2-.3h.2zm-.4-.3v.2l-.2.2-.5-.3.2-.4v.4l.3-.1c0-.1.1-.1.2 0zm14-12.4l-.1.1h-.1l-.2.2h.4v-.3zm-.2.8l-.1-.3h-.2v.3l.2.1h.1zm-3.6 5.5h-.3l-.1.2h-.3v.2l.1.2.4-.1c.2-.1.2-.3.2-.5zm-2.9-1.3l-.3-.2V13l-.2.1v.3h.2v.2H237.3zm-1.4-.2h-.2c-.2 0-.3 0-.4.2l.2.2v.2c.1.1.2 0 .3-.1v-.5zm-10 4.8h-.3V18h-.4l.2.2v.3l.3-.1h.2zM134.6 17.7v.4l-.1.3-.1.3-.2.1-.2 1.2-.3.2-.2.2.1.1V20.8l-.2-.2h.2v.1l.1.1-.3.3-.3.5-.2.3-.2-.1v-.2l-.3-.2.4.5v.2h-.3l.2.3h.1v.1l-.1.2h.1l-.7.3.2.3-.1.3h-.4l-.3-.2v.2h-.4v-.1-.2l.1-.2-.4.2h-.1l.7-.4v.1H130.8l-.2.1-.1.1v.2h-.4s0 .2.2.3H131v.2l-.4.2-.2-.2h-.1l-.3.1h-.2l-2 .5h-.4l-.5.2-.1-.1h-.3l-.5-.2h-.6v-.2l-.2-.2s-.1 0 0-.1v-.3l-.6-.4.2-.1.1-.3h-.4l-.5-.3-.2-.2h-.1V22h.1l.3-.1h-.4l-.4-.1-.1-.3h-.6v-.2a2 2 0 0 0-.8-.2h-.8l-.4-.1-.2-.1h-.2l-.3-.3h-.6l.2-.5v-.1h-.2v.2h-.2l-.1-.1h-.2V20l-.2-.2v-.2l.2-.2V19.1c-.3 0-.5-.1-.5-.3v-.2h-.1v-.1-.2h-.3l-.3-.2-.4-.6.1-.1v-.1h-.2l-.4-.3h-.4l-.6-.6V16.1l-.2-.4v-.4h.3V15c.3-.1.4-.4 0-.8l-.1.3v.3l-.2-.1v-.2h-.3v-.4l.1-.2.2-.2v-1l.1-.2.2-.2c0-.2-.2-.4-.4-.6h.1v-.4c.2-.1.2-.2.2-.3V10c0-.1 0-.3.2-.5v-.1l.6-.7.3-.2v-.2l.3-.2V8l.3-.4v-.2l.2-.3V7h.2l.2-.3.4-.6h.5l.2-.3.6-.3h.4l.5-.2.2-.4h.3l.4-.1h.3l.3.3.1-.2.1-.1.4-.1.2-.2h.8v.2l.7.2H124.7l.5-.1v-.2l.3.1.4.2.2-.2h.2v.2l.4.1.1.1.1.2h.2v.2h-.1l.1.1h.2v.2h.6c.2 0 .3 0 .5.2h-.5v.2h.2-.5l.2.2h.3l.1.1H128.8v.3h.2V7l-.1.2.4.3v.2h.2v-.3h.2c-.3 1.5-.3.2-.4.4v-.2h.4l.2.1.2-.6v.5l.2-.1v-.3h1l.3.2.3.1h.4v.1l-.3.2.5.2v.2l.2.3h.2l.4.5h.4c0 .1 0 .2-.2.3h-.2l-.3.1c.5-.1.3-.4.4.3l.3.1h.3v.1h.2v.2h-.2l.1.2.2.1v.8l-.1.2c-.5 2.8 1 3.5.4 6.3zm.3-6.7h-.1zm-1.7-2.7h-.5v-.1c0-.2.1-.2.2-.1zm1.4 10zm-5-11.2h-.2l-.3-.4v.1l.4.2v.1zm2.8 14.5v.1l.4.5-.4-.6zm-3.1-14.3V7s-.2.1-.1 0v.2zm1.3 7l-.5-1.8h-.1v-.3l-.2-.2-.2-.5-.6-.3-.6-.3v-.3-.2l-1-.4-.1.2h-.4V10l-.2-.2h-.2l-.3-.2h-.4l-.3-.1-.3-.2-.5-.1h-.4V9l-.2-.2-.7-.2-.7-.1-.2-.2-.3.1h-.5l-.3.4-.4.2-.4.1v.3c-.2.4-.5 1-.5 1.4 0 .6-1.8 1.9-1 3 .3.7.7 1.5 1.3 2.3a19.8 19.8 0 0 0 3.1 3.3c.3 0 .6.3.9.6l.3.2c1 .7 2.2 1 3 1.2h.4l1.2-.3v-.1h.2l.3-.4.4-.4.5-1.1.1-1.6.1-.7-.1-.5c0-.9 0-1.5-.2-2.1zm-3-9zm2.5 18.8zm-.6.3h-.1zm-.4 0v.1zm-5.6-20.2l-.1.1z"/></g></svg>
