<?xml version="1.0" ?><svg enable-background="new 0 0 515.91 728.5" height="512" id="Layer_1" version="1.1" viewBox="0 0 512.00003 512" width="512" xml:space="preserve" xmlns="http://www.w3.org/2000/svg" xmlns:cc="http://creativecommons.org/ns#" xmlns:dc="http://purl.org/dc/elements/1.1/" xmlns:inkscape="http://www.inkscape.org/namespaces/inkscape" xmlns:rdf="http://www.w3.org/1999/02/22-rdf-syntax-ns#" xmlns:sodipodi="http://sodipodi.sourceforge.net/DTD/sodipodi-0.dtd" xmlns:svg="http://www.w3.org/2000/svg"><defs id="defs7"/><g id="g6907" transform="translate(-402.72312,-200.33327)"><path d="m -733.62329,72.267944 c 0,203.804876 -165.21649,369.021366 -369.02141,369.021366 -203.8048,0 -369.0213,-165.21649 -369.0213,-369.021366 0,-203.804874 165.2165,-369.021364 369.0213,-369.021364 203.80492,0 369.02141,165.21649 369.02141,369.021364 z" id="path5070" style="fill:#7d4698;fill-opacity:1;fill-rule:nonzero;stroke:none" transform="matrix(0.69372682,0,0,0.69372682,1423.6573,406.19906)"/><path d="m 723.53196,283.83325 c -23.7152,17.0853 -44.3711,36.4707 -57.375,62.2227 l 9.1833,-36.4713 c -13.741,24.4841 -23.16811,49.8059 -26.18021,74.56251 l -18.4381,-12.3397 -3.3113,2.5489 c 16.5756,29.8315 7.9107,45.6423 -0.2501,51.2527 -16.5756,11.4749 -40.8066,25.7518 -52.7892,38.246 -23.2056,23.7132 -29.8409,46.4084 -27.8002,76.2418 2.2946,38.25001 30.0938,70.12001 67.3206,82.61421 16.3179,5.3566 31.3621,6.1222 48.19171,6.1222 27.029,0 54.8238,-7.1353 74.9673,-23.9648 21.4187,-17.8488 34.1725,-44.6256 34.1725,-72.41841 0,-28.0485 -11.7308,-54.5745 -32.3858,-73.4428 -10.9651,-9.9438 -24.7411,-18.0965 -39.0202,-26.0015 -6.3742,-3.5717 -26.009,-18.8666 -19.3791,-40.795 l -14.1978,-1.9415 c 19.7024,-30.84491 45.3352,-61.50381 77.4329,-90.11801 -24.7326,8.4147 -46.6533,21.1684 -62.9731,44.1181 9.6899,-20.1435 25.4925,-40.2926 42.8318,-60.4361 z m -88.98661,95.87101 14.436,5.9555 c 0,0.01 9e-4,0.016 0,0.024 l 6.3486,2.7633 -0.143,0 0,140.5846 c -2.8144,8.4267 -5.2362,9.7924 -11.9585,17.71161 -7.9032,9.1803 -9.2191,22.6971 -9.2191,33.6603 0,4.5911 1.8342,9.6883 3.6209,14.5313 2.0388,5.1008 3.7824,10.1836 6.5868,14.0073 3.6154,5.3173 8.1007,8.6595 10.9699,9.9217 l 0,0.6552 c -9.8068,-2.0917 -21.0397,-5.5748 -27.7644,-11.3392 -13.5135,-11.7287 -25.4829,-31.3446 -27.014,-48.4299 -1.2733,-14.0233 11.7103,-34.70071 29.8131,-45.15431 15.2985,-8.9244 18.8523,-19.0914 22.1663,-35.4112 -4.5892,14.2791 -8.9021,26.2493 -23.6908,33.8986 -21.4188,11.2189 -32.4048,30.04491 -31.3854,47.89381 1.5291,22.9478 10.7217,38.4945 28.8244,50.9907 5.2508,3.6756 13.6234,7.5003 21.2492,10.0289 -27.8159,-6.4371 -30.5727,-9.4369 -38.5915,-18.9145 0,-0.5097 -2.0367,-1.7892 -2.0367,-2.2988 -10.1996,-11.7306 -23.2109,-31.6197 -27.8001,-49.9783 -1.531,-6.374 -3.0594,-13.25321 -1.2745,-19.62921 8.4128,-30.0891 26.7719,-41.8177 45.1305,-54.3137 4.5892,-3.0583 8.9216,-6.1253 13.2569,-9.1834 10.1997,-7.9051 12.7608,-29.0643 15.0554,-40.7949 -4.3371,14.533 -8.6768,32.3834 -16.58,38.2459 -4.0795,3.314 -9.1717,5.8668 -13.5071,8.6712 -19.124,13.004 -37.9983,25.2439 -46.6669,56.3506 -2.0388,7.9069 -0.5104,13.76481 1.2744,21.41581 4.8431,19.1242 17.8531,39.5247 28.5625,51.7649 0,0 1.7747,1.7828 1.7747,2.0368 4.8596,5.6076 11.1241,9.5747 18.4858,12.7566 -6.4048,-1.7769 -12.5938,-4.0332 -18.4739,-6.8845 -29.8316,-14.5348 -49.7274,-45.6458 -51.0026,-71.14401 -2.8043,-51.7617 22.1928,-66.807 45.1424,-85.6753 13.0039,-10.7093 30.8416,-15.8145 41.2952,-34.6846 2.0407,-4.0776 3.0688,-13.2562 0.7742,-22.6903 -1.0213,-3.314 -5.8738,-14.792 -7.6587,-17.3424 z m 21.6779,9.1357 7.01551,3.0492 c 0.088,3.1904 0.087,6.3118 0.06,9.3501 -0.022,-1.0459 -0.027,-2.1178 0,-3.204 -0.7564,13.6259 -0.9643,18.6542 1.5842,28.5981 2.8043,10.9651 17.088,26.7639 22.9523,44.8685 11.2192,34.6784 8.4229,80.07011 0.2621,115.51211 -1.4364,5.8676 -5.4205,12.9683 -10.7317,19.4625 1.8712,-3.4233 3.4855,-7.149 4.6094,-11.0533 8.1609,-28.5583 11.4706,-41.8127 7.647,-73.43091 -0.5098,-3.062 -1.7895,-13.5181 -6.6345,-24.739 -7.1396,-17.0852 -17.3315,-33.3936 -18.6049,-36.7094 -2.2964,-5.3529 -5.3623,-28.5601 -5.87201,-44.3682 0.25581,13.2578 1.27791,37.9913 4.84771,47.6794 1.0194,3.314 10.4523,17.8538 17.0803,35.4469 4.5911,12.2403 5.6068,23.4617 6.3723,26.7757 3.0601,14.535 -0.7594,39.00731 -5.8602,62.21081 -2.0981,10.2863 -8.3526,22.6365 -16.0439,30.099 -0.096,0.07 -0.1895,0.1454 -0.2859,0.2143 4.7805,-4.8389 9.4405,-12.9366 12.2682,-22.6784 3.8256,-13.5135 5.3437,-30.8065 5.0859,-41.7715 -0.2557,-6.3742 -3.0701,-20.17751 -8.1708,-32.67171 -2.8043,-6.8838 -7.1156,-13.7719 -9.9218,-18.6168 -3.0563,-4.8487 -3.0785,-15.2997 -4.6095,-27.5381 0.2558,13.2597 -1.03901,19.9125 2.275,29.3485 2.0387,5.6085 8.9292,13.2582 10.9699,20.6536 2.8044,9.9457 5.8558,20.90831 5.5982,27.53801 0,7.6512 -0.4737,21.9333 -3.7877,37.2336 -2.4815,12.413 -8.1409,23.0851 -17.61631,29.289 -0.1628,0.1065 -0.3234,0.2177 -0.4883,0.3216 l 0,-0.4645 c 0.084,0.025 0.171,0.064 0.2501,0.084 0.016,0 0.042,0 0.06,0 0.057,0.013 0.1249,0.049 0.1786,0.059 l 0,-0.2978 c 4.94741,-5.5159 7.91911,-10.9926 8.92131,-16.5086 1.2753,-6.6298 1.5691,-13.2725 2.3345,-21.1776 0.7637,-6.6299 0.2127,-15.5606 -1.5722,-24.739 -2.5485,-11.4748 -6.8505,-23.18061 -8.63541,-31.33771 0.2539,8.9245 3.83081,20.35751 5.35991,32.08811 1.277,8.6705 0.7323,17.3856 0.4765,25.0368 -0.2521,8.8557 -3.2095,24.7172 -7.24191,32.4334 -0.046,-0.021 -0.086,-0.039 -0.131,-0.06 l 0,-225.98601 z m -1.0363,140.9659 0,84.49611 c -2.9668,-1.6106 -4.3877,-3.503 -6.5867,-6.3604 -3.0583,-4.3353 -5.1416,-8.6701 -7.1823,-13.7691 -1.5291,-3.8256 -3.3181,-8.1937 -4.0855,-13.2926 -1.0194,-7.6492 -0.7359,-19.6214 7.9328,-31.8617 6.1097,-8.92981 7.8859,-10.27871 9.9217,-19.21231 z" id="path2554-4" style="fill:#ffffff;fill-opacity:1"/></g></svg>